<svg xmlns:xlink="http://www.w3.org/1999/xlink" class="profileIcon pi66DarkModeMargin" width="20" height="21" viewBox="0 0 20 21" fill="none" xmlns="http://www.w3.org/2000/svg"><path d="M9.27134 10.4901C7.35672 6.78411 8.86048 3.52187 9.70685 2.21533C5.30241 2.37146 1.77722 5.97883 1.77722 10.4243C1.77722 10.5394 1.79366 10.6544 1.79366 10.7695C2.30312 10.5476 2.85368 10.4243 3.4371 10.4243C4.80116 10.4243 6.05018 11.1064 6.80617 12.1911C8.17845 12.5855 9.18917 13.8509 9.18917 15.3547C9.18917 16.6037 8.47427 17.6802 7.44711 18.2389C8.2524 18.5019 9.11521 18.6498 10.0027 18.6498C12.8787 18.6498 15.4096 17.1707 16.8805 14.9356C14.9412 15.1246 11.1449 14.1385 9.27134 10.4901Z" fill="#44475B" opacity=".4"></path><path d="M5.90226 13.7113H5.75435C5.40923 12.7581 4.50533 12.0679 3.43709 12.0679C2.07303 12.0679 0.971924 13.169 0.971924 14.533C0.971924 15.8971 2.07303 16.9982 3.43709 16.9982C3.94656 16.9982 5.48319 16.9982 5.90226 16.9982C6.80616 16.9982 7.54571 16.2587 7.54571 15.3548C7.54571 14.4509 6.80616 13.7113 5.90226 13.7113Z" fill="#44475B" opacity=".4"></path></svg>