<svg xmlns:xlink="http://www.w3.org/1999/xlink" class="profileIcon" xmlns="http://www.w3.org/2000/svg" width="11" height="15" viewBox="0 0 11 15"><path fill="#44475B" d="M9.98508278,0.5 L0.68144867,0.5 C0.489305749,0.5 0.333333712,0.65492029 0.333333712,0.846069797 L0.333333712,13.80733 C0.333062144,14.0670175 0.478971098,14.3049405 0.711228794,14.4236316 C0.943622463,14.5421876 1.22320198,14.5215045 1.43519833,14.3699638 L5.33326574,11.5920777 L9.23146909,14.3698286 C9.44360141,14.5210989 9.72290899,14.5416468 9.95516668,14.4230909 C10.1872884,14.3045349 10.3333337,14.0667472 10.3333337,13.80733 L10.3333337,0.846069797 C10.3333337,0.65492029 10.1773617,0.5 9.98508278,0.5 Z M9.6369682,13.8071948 L5.53628724,10.8849328 C5.41499107,10.7985505 5.25181236,10.7985505 5.13065216,10.8849328 L1.02983523,13.80733 L1.02983523,1.19213959 L9.6369682,1.19213959 L9.6369682,13.8071948 Z" opacity=".7"></path></svg>