<svg xmlns:xlink="http://www.w3.org/1999/xlink" version="1.1" class="highcharts-root" style="font-family:&quot;Lucida Grande&quot;, &quot;Lucida Sans Unicode&quot;, Arial, Helvetica, sans-serif;font-size:12px;overflow:visible;" xmlns="http://www.w3.org/2000/svg" width="100" height="25" viewBox="0 0 100 25"><desc>Created with Highstock 6.2.0</desc><defs><clipPath id="highcharts-0z4v3a5-2114"><rect x="0" y="0" width="100" height="21" fill="none"></rect></clipPath><clipPath id="highcharts-0z4v3a5-2192"><rect x="0" y="0" width="100" height="21" fill="none"></rect></clipPath></defs><rect fill="none" class="highcharts-background" x="0" y="0" width="100" height="25" rx="0" ry="0"></rect><rect fill="none" class="highcharts-plot-background" x="0" y="2" width="100" height="21"></rect><rect fill="none" class="highcharts-plot-border" data-z-index="1" x="0" y="2" width="100" height="21"></rect><g class="highcharts-series-group" data-z-index="3"><g data-z-index="0.1" class="highcharts-series highcharts-series-0 highcharts-line-series highcharts-color-0 " transform="translate(0,2) scale(1 1)" clip-path="url(#highcharts-0z4v3a5-2192)"><path fill="none" d="M 0 14.318181818181621 L 1.3333333333333 8.590909090908918 L 2.6666666666667 6.681818181818109 L 4 8.590909090908918 L 5.3333333333333 4.772727272727025 L 6.6666666666667 8.590909090908918 L 8 8.590909090908918 L 9.3333333333333 6.681818181818109 L 10.666666666667 8.590909090908918 L 12 10.5 L 13.333333333333 14.318181818181621 L 14.666666666667 12.40909090909081 L 16 16.2272727272727 L 17.333333333333 12.40909090909081 L 18.666666666667 16.2272727272727 L 20 10.5 L 21.333333333333 8.590909090908918 L 22.666666666667 12.40909090909081 L 24 12.40909090909081 L 25.333333333333 8.590909090908918 L 26.666666666667 6.681818181818109 L 28 6.681818181818109 L 29.333333333333 4.772727272727025 L 30.666666666667 6.681818181818109 L 32 6.681818181818109 L 33.333333333333 6.681818181818109 L 34.666666666667 0.9545454545454071 L 36 0.9545454545454071 L 37.333333333333 0.9545454545454071 L 38.666666666667 6.681818181818109 L 40 8.590909090908918 L 41.333333333333 4.772727272727025 L 42.666666666667 2.863636363636214 L 44 4.772727272727025 L 45.333333333333 2.863636363636214 L 46.666666666667 6.681818181818109 L 48 4.772727272727025 L 49.333333333333 2.863636363636214 L 50.666666666667 0.9545454545454071 L 52 2.863636363636214 L 53.333333333333 2.863636363636214 L 54.666666666667 2.863636363636214 L 56 0.9545454545454071 L 57.333333333333 0.9545454545454071 L 58.666666666667 2.863636363636214 L 60 6.681818181818109 L 61.333333333333 4.772727272727025 L 62.666666666667 2.863636363636214 L 64 4.772727272727025 L 65.333333333333 4.772727272727025 L 66.666666666667 4.772727272727025 L 68 2.863636363636214 L 69.333333333333 2.863636363636214 L 70.666666666667 4.772727272727025 L 72 4.772727272727025 L 73.333333333333 4.772727272727025 L 74.666666666667 4.772727272727025 L 76 4.772727272727025 L 77.333333333333 2.863636363636214 L 78.666666666667 6.681818181818109 L 80 8.590909090908918 L 81.333333333333 8.590909090908918 L 82.666666666667 14.318181818181621 L 84 16.2272727272727 L 85.333333333333 12.40909090909081 L 86.666666666667 16.2272727272727 L 88 20.045454545454596 L 89.333333333333 20.045454545454596 L 90.666666666667 16.2272727272727 L 92 14.318181818181621 L 93.333333333333 14.318181818181621 L 94.666666666667 12.40909090909081 L 96 16.2272727272727 L 97.333333333333 10.5 L 98.666666666667 12.40909090909081 L 100 14.318181818181621" class="highcharts-graph" data-z-index="1" stroke="#00D09C" stroke-width="2px" stroke-linejoin="round" stroke-linecap="round"></path><path fill="none" d="M -10 14.318181818181621 L 0 14.318181818181621 L 1.3333333333333 8.590909090908918 L 2.6666666666667 6.681818181818109 L 4 8.590909090908918 L 5.3333333333333 4.772727272727025 L 6.6666666666667 8.590909090908918 L 8 8.590909090908918 L 9.3333333333333 6.681818181818109 L 10.666666666667 8.590909090908918 L 12 10.5 L 13.333333333333 14.318181818181621 L 14.666666666667 12.40909090909081 L 16 16.2272727272727 L 17.333333333333 12.40909090909081 L 18.666666666667 16.2272727272727 L 20 10.5 L 21.333333333333 8.590909090908918 L 22.666666666667 12.40909090909081 L 24 12.40909090909081 L 25.333333333333 8.590909090908918 L 26.666666666667 6.681818181818109 L 28 6.681818181818109 L 29.333333333333 4.772727272727025 L 30.666666666667 6.681818181818109 L 32 6.681818181818109 L 33.333333333333 6.681818181818109 L 34.666666666667 0.9545454545454071 L 36 0.9545454545454071 L 37.333333333333 0.9545454545454071 L 38.666666666667 6.681818181818109 L 40 8.590909090908918 L 41.333333333333 4.772727272727025 L 42.666666666667 2.863636363636214 L 44 4.772727272727025 L 45.333333333333 2.863636363636214 L 46.666666666667 6.681818181818109 L 48 4.772727272727025 L 49.333333333333 2.863636363636214 L 50.666666666667 0.9545454545454071 L 52 2.863636363636214 L 53.333333333333 2.863636363636214 L 54.666666666667 2.863636363636214 L 56 0.9545454545454071 L 57.333333333333 0.9545454545454071 L 58.666666666667 2.863636363636214 L 60 6.681818181818109 L 61.333333333333 4.772727272727025 L 62.666666666667 2.863636363636214 L 64 4.772727272727025 L 65.333333333333 4.772727272727025 L 66.666666666667 4.772727272727025 L 68 2.863636363636214 L 69.333333333333 2.863636363636214 L 70.666666666667 4.772727272727025 L 72 4.772727272727025 L 73.333333333333 4.772727272727025 L 74.666666666667 4.772727272727025 L 76 4.772727272727025 L 77.333333333333 2.863636363636214 L 78.666666666667 6.681818181818109 L 80 8.590909090908918 L 81.333333333333 8.590909090908918 L 82.666666666667 14.318181818181621 L 84 16.2272727272727 L 85.333333333333 12.40909090909081 L 86.666666666667 16.2272727272727 L 88 20.045454545454596 L 89.333333333333 20.045454545454596 L 90.666666666667 16.2272727272727 L 92 14.318181818181621 L 93.333333333333 14.318181818181621 L 94.666666666667 12.40909090909081 L 96 16.2272727272727 L 97.333333333333 10.5 L 98.666666666667 12.40909090909081 L 100 14.318181818181621 L 110 14.318181818181621" stroke-linejoin="round" stroke="#C0C0C0" stroke-width="22px" visibility="visible" data-z-index="2" class="highcharts-tracker-line" stroke-opacity="0"></path></g><g data-z-index="0.1" class="highcharts-markers highcharts-series-0 highcharts-line-series highcharts-color-0 highcharts-tracker" transform="translate(0,2) scale(1 1)"></g><g data-z-index="0.1" class="highcharts-series highcharts-series-1 highcharts-line-series highcharts-color-1 " transform="translate(0,2) scale(1 1)" clip-path="url(#highcharts-0z4v3a5-2192)"><path fill="none" d="M 0 18.136363636363512 L 1.3333333333333 18.136363636363512 L 2.6666666666667 18.136363636363512 L 4 18.136363636363512 L 5.3333333333333 18.136363636363512 L 6.6666666666667 18.136363636363512 L 8 18.136363636363512 L 9.3333333333333 18.136363636363512 L 10.666666666667 18.136363636363512 L 12 18.136363636363512 L 13.333333333333 18.136363636363512 L 14.666666666667 18.136363636363512 L 16 18.136363636363512 L 17.333333333333 18.136363636363512 L 18.666666666667 18.136363636363512 L 20 18.136363636363512 L 21.333333333333 18.136363636363512 L 22.666666666667 18.136363636363512 L 24 18.136363636363512 L 25.333333333333 18.136363636363512 L 26.666666666667 18.136363636363512 L 28 18.136363636363512 L 29.333333333333 18.136363636363512 L 30.666666666667 18.136363636363512 L 32 18.136363636363512 L 33.333333333333 18.136363636363512 L 34.666666666667 18.136363636363512 L 36 18.136363636363512 L 37.333333333333 18.136363636363512 L 38.666666666667 18.136363636363512 L 40 18.136363636363512 L 41.333333333333 18.136363636363512 L 42.666666666667 18.136363636363512 L 44 18.136363636363512 L 45.333333333333 18.136363636363512 L 46.666666666667 18.136363636363512 L 48 18.136363636363512 L 49.333333333333 18.136363636363512 L 50.666666666667 18.136363636363512 L 52 18.136363636363512 L 53.333333333333 18.136363636363512 L 54.666666666667 18.136363636363512 L 56 18.136363636363512 L 57.333333333333 18.136363636363512 L 58.666666666667 18.136363636363512 L 60 18.136363636363512 L 61.333333333333 18.136363636363512 L 62.666666666667 18.136363636363512 L 64 18.136363636363512 L 65.333333333333 18.136363636363512 L 66.666666666667 18.136363636363512 L 68 18.136363636363512 L 69.333333333333 18.136363636363512 L 70.666666666667 18.136363636363512 L 72 18.136363636363512 L 73.333333333333 18.136363636363512 L 74.666666666667 18.136363636363512 L 76 18.136363636363512 L 77.333333333333 18.136363636363512 L 78.666666666667 18.136363636363512 L 80 18.136363636363512 L 81.333333333333 18.136363636363512 L 82.666666666667 18.136363636363512 L 84 18.136363636363512 L 85.333333333333 18.136363636363512 L 86.666666666667 18.136363636363512 L 88 18.136363636363512 L 89.333333333333 18.136363636363512 L 90.666666666667 18.136363636363512 L 92 18.136363636363512 L 93.333333333333 18.136363636363512 L 94.666666666667 18.136363636363512 L 96 18.136363636363512 L 97.333333333333 18.136363636363512 L 98.666666666667 18.136363636363512 L 100 18.136363636363512" class="highcharts-graph" data-z-index="1" stroke="#B3B6B9" stroke-width="1.5px" stroke-dasharray="1.5,1.5" stroke-opacity="0.63"></path><path fill="none" d="M -10 18.136363636363512 L 0 18.136363636363512 L 1.3333333333333 18.136363636363512 L 2.6666666666667 18.136363636363512 L 4 18.136363636363512 L 5.3333333333333 18.136363636363512 L 6.6666666666667 18.136363636363512 L 8 18.136363636363512 L 9.3333333333333 18.136363636363512 L 10.666666666667 18.136363636363512 L 12 18.136363636363512 L 13.333333333333 18.136363636363512 L 14.666666666667 18.136363636363512 L 16 18.136363636363512 L 17.333333333333 18.136363636363512 L 18.666666666667 18.136363636363512 L 20 18.136363636363512 L 21.333333333333 18.136363636363512 L 22.666666666667 18.136363636363512 L 24 18.136363636363512 L 25.333333333333 18.136363636363512 L 26.666666666667 18.136363636363512 L 28 18.136363636363512 L 29.333333333333 18.136363636363512 L 30.666666666667 18.136363636363512 L 32 18.136363636363512 L 33.333333333333 18.136363636363512 L 34.666666666667 18.136363636363512 L 36 18.136363636363512 L 37.333333333333 18.136363636363512 L 38.666666666667 18.136363636363512 L 40 18.136363636363512 L 41.333333333333 18.136363636363512 L 42.666666666667 18.136363636363512 L 44 18.136363636363512 L 45.333333333333 18.136363636363512 L 46.666666666667 18.136363636363512 L 48 18.136363636363512 L 49.333333333333 18.136363636363512 L 50.666666666667 18.136363636363512 L 52 18.136363636363512 L 53.333333333333 18.136363636363512 L 54.666666666667 18.136363636363512 L 56 18.136363636363512 L 57.333333333333 18.136363636363512 L 58.666666666667 18.136363636363512 L 60 18.136363636363512 L 61.333333333333 18.136363636363512 L 62.666666666667 18.136363636363512 L 64 18.136363636363512 L 65.333333333333 18.136363636363512 L 66.666666666667 18.136363636363512 L 68 18.136363636363512 L 69.333333333333 18.136363636363512 L 70.666666666667 18.136363636363512 L 72 18.136363636363512 L 73.333333333333 18.136363636363512 L 74.666666666667 18.136363636363512 L 76 18.136363636363512 L 77.333333333333 18.136363636363512 L 78.666666666667 18.136363636363512 L 80 18.136363636363512 L 81.333333333333 18.136363636363512 L 82.666666666667 18.136363636363512 L 84 18.136363636363512 L 85.333333333333 18.136363636363512 L 86.666666666667 18.136363636363512 L 88 18.136363636363512 L 89.333333333333 18.136363636363512 L 90.666666666667 18.136363636363512 L 92 18.136363636363512 L 93.333333333333 18.136363636363512 L 94.666666666667 18.136363636363512 L 96 18.136363636363512 L 97.333333333333 18.136363636363512 L 98.666666666667 18.136363636363512 L 100 18.136363636363512 L 110 18.136363636363512" stroke-linejoin="round" stroke="#C0C0C0" stroke-width="21.5px" visibility="visible" data-z-index="2" class="highcharts-tracker-line" stroke-opacity="0"></path></g><g data-z-index="0.1" class="highcharts-markers highcharts-series-1 highcharts-line-series highcharts-color-1 highcharts-tracker" transform="translate(0,2) scale(1 1)"></g></g><text x="50" text-anchor="middle" class="highcharts-title" data-z-index="4" style="color: rgb(51, 51, 51); font-size: 16px;" y="22" fill="#333333"></text><text x="50" text-anchor="middle" class="highcharts-subtitle" data-z-index="4" style="color: rgb(102, 102, 102);" y="24" fill="#666666"></text></svg>