<svg xmlns:xlink="http://www.w3.org/1999/xlink" version="1.1" class="highcharts-root" style="font-family:&quot;Lucida Grande&quot;, &quot;Lucida Sans Unicode&quot;, Arial, Helvetica, sans-serif;font-size:12px;overflow:visible;" xmlns="http://www.w3.org/2000/svg" width="100" height="25" viewBox="0 0 100 25"><desc>Created with Highstock 6.2.0</desc><defs><clipPath id="highcharts-0z4v3a5-1802"><rect x="0" y="0" width="100" height="21" fill="none"></rect></clipPath><clipPath id="highcharts-0z4v3a5-1880"><rect x="0" y="0" width="100" height="21" fill="none"></rect></clipPath></defs><rect fill="none" class="highcharts-background" x="0" y="0" width="100" height="25" rx="0" ry="0"></rect><rect fill="none" class="highcharts-plot-background" x="0" y="2" width="100" height="21"></rect><rect fill="none" class="highcharts-plot-border" data-z-index="1" x="0" y="2" width="100" height="21"></rect><g class="highcharts-series-group" data-z-index="3"><g data-z-index="0.1" class="highcharts-series highcharts-series-0 highcharts-line-series highcharts-color-0 " transform="translate(0,2) scale(1 1)" clip-path="url(#highcharts-0z4v3a5-1880)"><path fill="none" d="M 0 16.574380165289163 L 1.3333333333333 14.155146506386135 L 2.6666666666667 10.999624342599512 L 4 13.62922614575503 L 5.3333333333333 13.62922614575503 L 6.6666666666667 12.104057099924782 L 8 8.317430503380931 L 9.3333333333333 3.6367392937640624 L 10.666666666667 6.47670924117207 L 12 2.9004507888804696 L 13.333333333333 2.953042824943651 L 14.666666666667 0.9545454545454817 L 16 1.6908339594289536 L 17.333333333333 2.4797145003756107 L 18.666666666667 6.687077385424439 L 20 6.213749060856518 L 21.333333333333 3.478963185574756 L 22.666666666667 1.6908339594289536 L 24 3.741923365890308 L 25.333333333333 2.5848985725018565 L 26.666666666667 4.7411720510893325 L 28 4.793764087152514 L 29.333333333333 6.1611570247933365 L 30.666666666667 5.214500375657373 L 32 4.110067618332103 L 33.333333333333 5.214500375657373 L 34.666666666667 5.477460555972925 L 36 6.47670924117207 L 37.333333333333 7.055221637866236 L 38.666666666667 7.633734034560401 L 40 8.317430503380931 L 41.333333333333 8.370022539443994 L 42.666666666667 9.369271224643139 L 44 8.26483846731775 L 45.333333333333 9.369271224643139 L 46.666666666667 8.580390683696484 L 48 10.894440270473268 L 49.333333333333 11.683320811419923 L 50.666666666667 10.05296769346355 L 52 8.73816679188579 L 53.333333333333 8.948534936138161 L 54.666666666667 8.26483846731775 L 56 8.370022539443994 L 57.333333333333 8.73816679188579 L 58.666666666667 8.370022539443994 L 60 9.264087152516895 L 61.333333333333 8.895942900075099 L 62.666666666667 8.370022539443994 L 64 8.685574755822609 L 65.333333333333 9.947783621337306 L 66.666666666667 9.684823441021754 L 68 10.47370398196841 L 69.333333333333 10.999624342599512 L 70.666666666667 9.632231404958691 L 72 10.000375657400369 L 73.333333333333 10.841848234410206 L 74.666666666667 10.999624342599512 L 76 10.999624342599512 L 77.333333333333 12.577385424492823 L 78.666666666667 10.421111945905347 L 80 10.421111945905347 L 81.333333333333 10.94703230653645 L 82.666666666667 12.104057099924782 L 84 11.525544703230617 L 85.333333333333 11.998873027798657 L 86.666666666667 12.05146506386172 L 88 14.04996243425989 L 89.333333333333 13.418858001502542 L 90.666666666667 13.15589782118699 L 92 13.050713749060865 L 93.333333333333 14.155146506386135 L 94.666666666667 13.418858001502542 L 96 11.525544703230617 L 97.333333333333 11.315176558978127 L 98.666666666667 11.15740045078882 L 100 12.577385424492823" class="highcharts-graph" data-z-index="1" stroke="#00D09C" stroke-width="2px" stroke-linejoin="round" stroke-linecap="round"></path><path fill="none" d="M -10 16.574380165289163 L 0 16.574380165289163 L 1.3333333333333 14.155146506386135 L 2.6666666666667 10.999624342599512 L 4 13.62922614575503 L 5.3333333333333 13.62922614575503 L 6.6666666666667 12.104057099924782 L 8 8.317430503380931 L 9.3333333333333 3.6367392937640624 L 10.666666666667 6.47670924117207 L 12 2.9004507888804696 L 13.333333333333 2.953042824943651 L 14.666666666667 0.9545454545454817 L 16 1.6908339594289536 L 17.333333333333 2.4797145003756107 L 18.666666666667 6.687077385424439 L 20 6.213749060856518 L 21.333333333333 3.478963185574756 L 22.666666666667 1.6908339594289536 L 24 3.741923365890308 L 25.333333333333 2.5848985725018565 L 26.666666666667 4.7411720510893325 L 28 4.793764087152514 L 29.333333333333 6.1611570247933365 L 30.666666666667 5.214500375657373 L 32 4.110067618332103 L 33.333333333333 5.214500375657373 L 34.666666666667 5.477460555972925 L 36 6.47670924117207 L 37.333333333333 7.055221637866236 L 38.666666666667 7.633734034560401 L 40 8.317430503380931 L 41.333333333333 8.370022539443994 L 42.666666666667 9.369271224643139 L 44 8.26483846731775 L 45.333333333333 9.369271224643139 L 46.666666666667 8.580390683696484 L 48 10.894440270473268 L 49.333333333333 11.683320811419923 L 50.666666666667 10.05296769346355 L 52 8.73816679188579 L 53.333333333333 8.948534936138161 L 54.666666666667 8.26483846731775 L 56 8.370022539443994 L 57.333333333333 8.73816679188579 L 58.666666666667 8.370022539443994 L 60 9.264087152516895 L 61.333333333333 8.895942900075099 L 62.666666666667 8.370022539443994 L 64 8.685574755822609 L 65.333333333333 9.947783621337306 L 66.666666666667 9.684823441021754 L 68 10.47370398196841 L 69.333333333333 10.999624342599512 L 70.666666666667 9.632231404958691 L 72 10.000375657400369 L 73.333333333333 10.841848234410206 L 74.666666666667 10.999624342599512 L 76 10.999624342599512 L 77.333333333333 12.577385424492823 L 78.666666666667 10.421111945905347 L 80 10.421111945905347 L 81.333333333333 10.94703230653645 L 82.666666666667 12.104057099924782 L 84 11.525544703230617 L 85.333333333333 11.998873027798657 L 86.666666666667 12.05146506386172 L 88 14.04996243425989 L 89.333333333333 13.418858001502542 L 90.666666666667 13.15589782118699 L 92 13.050713749060865 L 93.333333333333 14.155146506386135 L 94.666666666667 13.418858001502542 L 96 11.525544703230617 L 97.333333333333 11.315176558978127 L 98.666666666667 11.15740045078882 L 100 12.577385424492823 L 110 12.577385424492823" stroke-linejoin="round" stroke="#C0C0C0" stroke-width="22px" visibility="visible" data-z-index="2" class="highcharts-tracker-line" stroke-opacity="0"></path></g><g data-z-index="0.1" class="highcharts-markers highcharts-series-0 highcharts-line-series highcharts-color-0 highcharts-tracker" transform="translate(0,2) scale(1 1)"></g><g data-z-index="0.1" class="highcharts-series highcharts-series-1 highcharts-line-series highcharts-color-1 " transform="translate(0,2) scale(1 1)" clip-path="url(#highcharts-0z4v3a5-1880)"><path fill="none" d="M 0 20.04545454545452 L 1.3333333333333 20.04545454545452 L 2.6666666666667 20.04545454545452 L 4 20.04545454545452 L 5.3333333333333 20.04545454545452 L 6.6666666666667 20.04545454545452 L 8 20.04545454545452 L 9.3333333333333 20.04545454545452 L 10.666666666667 20.04545454545452 L 12 20.04545454545452 L 13.333333333333 20.04545454545452 L 14.666666666667 20.04545454545452 L 16 20.04545454545452 L 17.333333333333 20.04545454545452 L 18.666666666667 20.04545454545452 L 20 20.04545454545452 L 21.333333333333 20.04545454545452 L 22.666666666667 20.04545454545452 L 24 20.04545454545452 L 25.333333333333 20.04545454545452 L 26.666666666667 20.04545454545452 L 28 20.04545454545452 L 29.333333333333 20.04545454545452 L 30.666666666667 20.04545454545452 L 32 20.04545454545452 L 33.333333333333 20.04545454545452 L 34.666666666667 20.04545454545452 L 36 20.04545454545452 L 37.333333333333 20.04545454545452 L 38.666666666667 20.04545454545452 L 40 20.04545454545452 L 41.333333333333 20.04545454545452 L 42.666666666667 20.04545454545452 L 44 20.04545454545452 L 45.333333333333 20.04545454545452 L 46.666666666667 20.04545454545452 L 48 20.04545454545452 L 49.333333333333 20.04545454545452 L 50.666666666667 20.04545454545452 L 52 20.04545454545452 L 53.333333333333 20.04545454545452 L 54.666666666667 20.04545454545452 L 56 20.04545454545452 L 57.333333333333 20.04545454545452 L 58.666666666667 20.04545454545452 L 60 20.04545454545452 L 61.333333333333 20.04545454545452 L 62.666666666667 20.04545454545452 L 64 20.04545454545452 L 65.333333333333 20.04545454545452 L 66.666666666667 20.04545454545452 L 68 20.04545454545452 L 69.333333333333 20.04545454545452 L 70.666666666667 20.04545454545452 L 72 20.04545454545452 L 73.333333333333 20.04545454545452 L 74.666666666667 20.04545454545452 L 76 20.04545454545452 L 77.333333333333 20.04545454545452 L 78.666666666667 20.04545454545452 L 80 20.04545454545452 L 81.333333333333 20.04545454545452 L 82.666666666667 20.04545454545452 L 84 20.04545454545452 L 85.333333333333 20.04545454545452 L 86.666666666667 20.04545454545452 L 88 20.04545454545452 L 89.333333333333 20.04545454545452 L 90.666666666667 20.04545454545452 L 92 20.04545454545452 L 93.333333333333 20.04545454545452 L 94.666666666667 20.04545454545452 L 96 20.04545454545452 L 97.333333333333 20.04545454545452 L 98.666666666667 20.04545454545452 L 100 20.04545454545452" class="highcharts-graph" data-z-index="1" stroke="#B3B6B9" stroke-width="1.5px" stroke-dasharray="1.5,1.5" stroke-opacity="0.63"></path><path fill="none" d="M -10 20.04545454545452 L 0 20.04545454545452 L 1.3333333333333 20.04545454545452 L 2.6666666666667 20.04545454545452 L 4 20.04545454545452 L 5.3333333333333 20.04545454545452 L 6.6666666666667 20.04545454545452 L 8 20.04545454545452 L 9.3333333333333 20.04545454545452 L 10.666666666667 20.04545454545452 L 12 20.04545454545452 L 13.333333333333 20.04545454545452 L 14.666666666667 20.04545454545452 L 16 20.04545454545452 L 17.333333333333 20.04545454545452 L 18.666666666667 20.04545454545452 L 20 20.04545454545452 L 21.333333333333 20.04545454545452 L 22.666666666667 20.04545454545452 L 24 20.04545454545452 L 25.333333333333 20.04545454545452 L 26.666666666667 20.04545454545452 L 28 20.04545454545452 L 29.333333333333 20.04545454545452 L 30.666666666667 20.04545454545452 L 32 20.04545454545452 L 33.333333333333 20.04545454545452 L 34.666666666667 20.04545454545452 L 36 20.04545454545452 L 37.333333333333 20.04545454545452 L 38.666666666667 20.04545454545452 L 40 20.04545454545452 L 41.333333333333 20.04545454545452 L 42.666666666667 20.04545454545452 L 44 20.04545454545452 L 45.333333333333 20.04545454545452 L 46.666666666667 20.04545454545452 L 48 20.04545454545452 L 49.333333333333 20.04545454545452 L 50.666666666667 20.04545454545452 L 52 20.04545454545452 L 53.333333333333 20.04545454545452 L 54.666666666667 20.04545454545452 L 56 20.04545454545452 L 57.333333333333 20.04545454545452 L 58.666666666667 20.04545454545452 L 60 20.04545454545452 L 61.333333333333 20.04545454545452 L 62.666666666667 20.04545454545452 L 64 20.04545454545452 L 65.333333333333 20.04545454545452 L 66.666666666667 20.04545454545452 L 68 20.04545454545452 L 69.333333333333 20.04545454545452 L 70.666666666667 20.04545454545452 L 72 20.04545454545452 L 73.333333333333 20.04545454545452 L 74.666666666667 20.04545454545452 L 76 20.04545454545452 L 77.333333333333 20.04545454545452 L 78.666666666667 20.04545454545452 L 80 20.04545454545452 L 81.333333333333 20.04545454545452 L 82.666666666667 20.04545454545452 L 84 20.04545454545452 L 85.333333333333 20.04545454545452 L 86.666666666667 20.04545454545452 L 88 20.04545454545452 L 89.333333333333 20.04545454545452 L 90.666666666667 20.04545454545452 L 92 20.04545454545452 L 93.333333333333 20.04545454545452 L 94.666666666667 20.04545454545452 L 96 20.04545454545452 L 97.333333333333 20.04545454545452 L 98.666666666667 20.04545454545452 L 100 20.04545454545452 L 110 20.04545454545452" stroke-linejoin="round" stroke="#C0C0C0" stroke-width="21.5px" visibility="visible" data-z-index="2" class="highcharts-tracker-line" stroke-opacity="0"></path></g><g data-z-index="0.1" class="highcharts-markers highcharts-series-1 highcharts-line-series highcharts-color-1 highcharts-tracker" transform="translate(0,2) scale(1 1)"></g></g><text x="50" text-anchor="middle" class="highcharts-title" data-z-index="4" style="color: rgb(51, 51, 51); font-size: 16px;" y="22" fill="#333333"></text><text x="50" text-anchor="middle" class="highcharts-subtitle" data-z-index="4" style="color: rgb(102, 102, 102);" y="24" fill="#666666"></text></svg>