<svg xmlns:xlink="http://www.w3.org/1999/xlink" xmlns="http://www.w3.org/2000/svg" width="123" height="180" viewBox="0 0 123 180" fill="none">
<path d="M25.5899 160.04C24.2197 161.348 22.9791 162.785 21.8856 164.331C20.9618 165.534 20.2861 166.909 19.8976 168.375C19.6723 169.425 19.6723 170.511 19.8976 171.561C20.1928 173.08 20.0493 174.652 19.4839 176.092C18.9535 177.491 18.1208 178.756 17.0453 179.797C16.7921 180.044 16.6995 180.105 16.4279 179.716C14.5592 176.728 12.7071 173.738 10.8714 170.746C9.01919 167.764 7.12997 164.813 5.27163 161.843C3.62937 159.207 2.00564 156.558 0.363382 153.922C0.289296 153.804 0.239904 153.619 0.0546875 153.582V153.403C0.566232 153.114 1.03745 152.759 1.45616 152.347C6.13598 148.551 10.859 144.815 15.3413 140.79C20.3236 136.314 24.9417 131.529 28.6398 125.898C32.1992 120.389 35.2178 114.548 37.6537 108.457C39.8887 103.037 41.747 97.4862 43.4881 91.8988C43.5162 91.793 43.5388 91.6859 43.556 91.5778L40.3085 91.7383C40.574 90.9295 40.8333 90.1578 41.0802 89.3922C41.426 88.3118 41.7717 87.2252 42.1113 86.1447C42.113 85.8184 42.1912 85.4969 42.3397 85.2063C42.4632 84.7988 42.6237 84.3975 42.7348 83.9715C42.7571 83.8326 42.8262 83.7054 42.9306 83.6111C43.035 83.5168 43.1685 83.461 43.309 83.4529C45.7142 83.0016 48.0593 82.2744 50.2979 81.2859C52.5284 80.3281 54.6465 79.1272 56.6138 77.705C56.7239 77.606 56.8517 77.5285 56.9904 77.4766C57.225 77.4395 57.3793 77.5877 57.5522 77.6988C58.3496 78.21 59.174 78.6778 60.0218 79.1003C60.2687 79.2176 60.5836 79.4214 60.7626 79.1003C60.9417 78.7793 60.5959 78.5879 60.3366 78.4829C58.0707 77.3871 56.0325 75.8726 54.3294 74.0192C53.2517 72.7788 52.2791 71.451 51.4215 70.0494C51.3423 69.8913 51.2404 69.7457 51.119 69.6172C51.0659 69.5536 50.9915 69.5116 50.9096 69.4991C50.8277 69.4866 50.7441 69.5045 50.6745 69.5493C50.6126 69.592 50.566 69.6534 50.5416 69.7245C50.5171 69.7956 50.5161 69.8727 50.5387 69.9444C50.5733 70.0736 50.632 70.195 50.7115 70.3025C51.7573 72.0785 53.018 73.7187 54.4652 75.1861C54.6381 75.3528 54.8727 75.4948 54.8851 75.8035C54.8974 76.1121 54.6505 76.0998 54.4961 76.2109C51.4921 78.3546 48.1243 79.936 44.5561 80.8784C43.7412 81.0883 43.6671 81.0204 43.8955 80.224C44.2351 79.0756 44.6364 77.9458 45.0007 76.8036C46.0934 73.408 47.1615 70.0123 48.2481 66.6043C48.3739 66.2268 48.4078 65.8246 48.3469 65.4313C47.9191 62.5483 48.5249 59.6068 50.0571 57.1274C51.0295 55.5583 52.1815 54.108 53.4898 52.8057C54.3647 51.894 55.3239 51.0672 56.3545 50.3361C56.7681 50.0459 56.8978 50.0398 57.3114 50.3361C58.7607 51.422 59.9905 52.7734 60.9355 54.3183C61.915 55.849 62.6697 57.5123 63.1766 59.2574C63.2223 59.4776 63.3476 59.6733 63.5285 59.8069C64.1511 60.2603 64.8195 60.6472 65.5227 60.9614C65.6215 61.0108 65.7388 61.0972 65.8499 61.017C65.961 60.9367 65.9178 60.77 65.8993 60.6404C65.5504 58.4878 64.8274 56.413 63.7631 54.5097C62.9032 53.0029 61.867 51.6039 60.6762 50.3423C60.2625 49.8978 59.7748 49.5273 59.3303 49.1075C58.8858 48.6877 58.966 48.6445 59.3797 48.4284C60.294 47.9413 61.2361 47.5084 62.2011 47.1319C62.3556 47.0862 62.5155 47.0613 62.6765 47.0578C64.071 46.5694 65.4911 46.1572 66.9304 45.823C69.2517 45.3661 71.5422 45.2982 73.7772 46.2181C75.212 46.8819 76.4783 47.8611 77.4815 49.0828C78.8176 50.6082 79.9985 52.2627 81.0068 54.0219C81.4021 54.8037 81.8982 55.5301 82.4824 56.1828C82.904 56.5771 83.3853 56.9021 83.9086 57.1459C83.9729 57.1907 84.0457 57.2218 84.1226 57.237C84.1995 57.2523 84.2787 57.2515 84.3552 57.2347C84.4318 57.2179 84.504 57.1854 84.5674 57.1393C84.6308 57.0932 84.6839 57.0345 84.7235 56.9669C86.1944 55.1334 87.4382 53.1288 88.4279 50.9967C89.547 48.5679 90.488 46.0609 91.2431 43.4954C92.2927 40.0936 94.7005 38.2538 98.0962 37.5685C98.6186 37.4605 99.1496 37.3985 99.6829 37.3833C99.9225 37.3971 100.16 37.3279 100.354 37.1874C100.549 37.0468 100.689 36.8434 100.751 36.6115C101.084 35.7287 101.467 34.8643 101.868 34.0123C102.708 32.0699 103.812 30.2521 105.147 28.6102C105.424 28.283 105.741 27.9925 106.091 27.7458C106.374 27.4999 106.729 27.3534 107.103 27.3289C107.476 27.3043 107.848 27.4031 108.16 27.61C108.476 27.8293 108.715 28.1439 108.84 28.5082C108.966 28.8724 108.972 29.2672 108.857 29.635C108.706 30.2067 108.453 30.7464 108.11 31.2279C108.011 31.3699 107.894 31.5242 108.03 31.6662C108.166 31.8082 108.265 31.6662 108.388 31.6107C110.039 31.001 111.765 30.6148 113.519 30.4623C114.184 30.4093 114.853 30.5151 115.47 30.771C115.917 30.9189 116.295 31.2269 116.53 31.6359C116.764 32.0449 116.84 32.5262 116.741 32.9875C116.728 33.0734 116.736 33.1614 116.765 33.2434C116.794 33.3254 116.843 33.3987 116.908 33.4567C117.249 33.8143 117.519 34.2333 117.704 34.6915C117.874 35.009 117.931 35.3747 117.865 35.7287C117.725 36.4263 117.709 37.1429 117.816 37.8463C117.818 38.2714 117.722 38.6912 117.535 39.0726C117.347 39.4541 117.073 39.7867 116.735 40.0442C115.852 40.7627 114.893 41.3837 113.877 41.8964C113 42.3903 112.142 42.9089 111.253 43.3781C110.681 43.6747 110.24 44.1747 110.018 44.7796C109.296 46.5762 108.783 48.4407 108.246 50.2991C107.058 54.7469 105.571 59.1094 103.795 63.3569C102.681 65.9524 101.252 68.4012 99.5409 70.6483C97.2699 73.5571 94.0371 75.562 90.422 76.3035C90.1195 76.3715 89.8046 76.4641 89.5145 76.5073C88.9471 76.5983 88.4142 76.8392 87.971 77.2049C85.5014 79.1374 82.5812 80.0943 79.5745 80.829C79.5045 80.8523 79.4319 80.8668 79.3584 80.8722C78.4817 80.8722 78.1854 81.3538 78.031 82.1811C77.6235 84.4037 77.0494 86.5893 76.4381 88.7625C76.3901 88.8693 76.381 88.9897 76.4126 89.1025C76.4442 89.2153 76.5144 89.3135 76.611 89.3799C83.6909 95.4426 89.9837 102.368 95.3426 109.995C98.3266 114.227 100.887 118.744 102.986 123.478C103.177 123.91 103.122 124.145 102.745 124.374C102.369 124.602 101.875 124.991 101.405 125.232C100.936 125.472 100.979 125.645 101.189 125.973C101.226 126.022 101.245 126.078 101.276 126.127C101.423 126.251 101.534 126.414 101.597 126.596C103.396 130.77 104.854 135.084 105.956 139.493C106.524 141.827 106.863 144.198 107.234 146.569C107.886 151.335 108.891 156.046 110.24 160.664C110.749 162.344 111.463 163.955 112.364 165.461C113.235 166.996 114.619 168.176 116.272 168.795C119.137 169.832 120.866 171.925 121.897 174.691C121.95 174.892 121.975 175.1 121.971 175.308C121.934 175.58 122.125 175.827 122.063 176.098C121.563 176.222 121.051 176.068 120.551 176.179L118.421 176.21C117.871 176.265 117.316 176.21 116.76 176.21C116.603 176.188 116.443 176.2 116.291 176.247L114.154 176.277C113.469 176.339 112.778 176.24 112.092 176.327L109.975 176.358C109.425 176.419 108.87 176.358 108.314 176.389C108.155 176.365 107.993 176.375 107.839 176.419L105.709 176.45C105.159 176.506 104.603 176.45 104.048 176.45C103.891 176.428 103.73 176.441 103.579 176.487L101.442 176.518C100.757 176.586 100.072 176.481 99.3865 176.574H97.2627C96.7132 176.636 96.1576 176.574 95.6019 176.605C95.4426 176.583 95.2806 176.596 95.1265 176.642H92.9965C92.2865 176.722 91.5765 176.599 90.8665 176.703C90.5764 176.654 90.6381 176.358 90.6319 176.228C90.6319 175.845 90.4899 175.487 90.4961 175.111C90.3755 174.979 90.3073 174.808 90.3047 174.629C89.5145 169.27 88.7983 163.905 87.7981 158.577C87.0831 154.645 86.1432 150.757 84.9828 146.933C83.7155 142.888 82.0615 138.974 80.0437 135.246C78.3924 132.168 76.5725 129.183 74.5922 126.306C74.4193 126.047 74.2464 125.787 74.0797 125.528C71.9868 122.49 69.758 119.564 67.4181 116.706C66.4241 115.471 65.4177 114.292 64.3929 113.1C64.3064 112.995 64.2385 112.81 64.0595 112.859C63.8804 112.909 63.9237 113.069 63.8804 113.193C62.9852 115.971 61.9357 118.694 60.7935 121.373C59.638 124.082 58.3396 126.728 56.9039 129.3C56.7434 129.584 56.6076 129.881 56.4285 130.158C55.135 132.419 53.7254 134.612 52.2056 136.728C51.866 137.197 51.7117 137.246 51.156 137.036C50.6995 136.872 50.2593 136.665 49.841 136.419C49.3965 136.147 49.3903 136.159 49.1001 136.567C47.3776 138.938 45.5687 141.241 43.6301 143.439C42.5373 144.673 41.4198 145.908 40.2406 147.069C38.5662 148.7 36.8106 150.245 34.9804 151.699C33.1283 153.199 31.3317 154.755 29.5474 156.336C28.3682 157.373 27.2939 158.515 26.1024 159.534C25.9295 159.738 25.8678 160.009 25.5899 160.04Z" fill="#44475B"/>
<path d="M84.7363 56.8987C84.6967 56.9663 84.6435 57.025 84.5802 57.0711C84.5168 57.1172 84.4445 57.1497 84.368 57.1665C84.2914 57.1833 84.2122 57.1841 84.1354 57.1688C84.0585 57.1536 83.9856 57.1225 83.9213 57.0777C83.3966 56.8339 82.915 56.5066 82.4952 56.1084C81.9123 55.5004 81.4101 54.8197 81.0011 54.0834C79.9943 52.3232 78.8133 50.6685 77.4758 49.1443C76.4808 47.9331 75.225 46.9623 73.8023 46.3043C71.6116 45.4874 69.2256 45.3497 66.9555 45.9091C65.5139 46.2425 64.0918 46.6547 62.6955 47.1439C62.5362 47.1439 62.3778 47.1689 62.2263 47.218C61.2587 47.5934 60.3144 48.0263 59.3986 48.5145C58.985 48.7306 58.985 48.8664 59.3492 49.1937C59.7135 49.5209 60.2815 49.9654 60.6951 50.4284C61.8859 51.6901 62.9222 53.0891 63.7821 54.5958C64.8473 56.4987 65.5703 58.5737 65.9183 60.7265C65.9183 60.8562 65.9985 61.0043 65.8689 61.1031C65.7392 61.2019 65.6466 61.1031 65.5417 61.0475C64.8385 60.7334 64.1701 60.3464 63.5475 59.893C63.3665 59.7594 63.2412 59.5638 63.1956 59.3435C62.6887 57.5984 61.934 55.9351 60.9544 54.4044C60.0095 52.8595 58.7797 51.5082 57.3304 50.4223C56.9229 50.1197 56.7871 50.1259 56.3796 50.4223C55.3487 51.1553 54.3876 51.982 53.5087 52.8918C52.2004 54.1941 51.0484 55.6445 50.076 57.2136C48.5483 59.6947 47.9429 62.6345 48.3659 65.5174C48.4268 65.9107 48.3929 66.3129 48.2671 66.6905C47.1867 70.0923 46.1124 73.4818 45.0196 76.8898C44.6554 78.0319 44.2541 79.1618 43.9207 80.3101C43.6861 81.1065 43.7601 81.1744 44.5751 80.9645C48.1462 80.0127 51.5158 78.4231 54.5212 76.2724C54.6756 76.1612 54.8546 76.0686 54.9102 75.8649C54.9658 75.6612 54.6632 75.4327 54.4904 75.2475C53.0432 73.7801 51.7824 72.1399 50.7366 70.364C50.6571 70.2565 50.5985 70.135 50.5638 70.0059C50.5412 69.9341 50.5423 69.8571 50.5667 69.786C50.5911 69.7149 50.6377 69.6534 50.6996 69.6107C50.7685 69.5652 50.8517 69.5463 50.9335 69.5577C51.0153 69.5691 51.0902 69.6099 51.1441 69.6725C51.2643 69.8043 51.3661 69.9517 51.4466 70.1108C52.3046 71.469 53.2687 72.7572 54.3299 73.9633C56.0234 75.8038 58.0462 77.3115 60.2938 78.4085C60.5531 78.5382 60.9112 78.674 60.7198 79.0259C60.5284 79.3778 60.2259 79.1679 59.979 79.0259C59.1312 78.6034 58.3069 78.1356 57.5094 77.6245C57.3365 77.5133 57.1822 77.3652 56.9476 77.4022C56.8103 77.4543 56.683 77.5295 56.571 77.6245C54.6071 79.0637 52.4887 80.2793 50.2551 81.2485C48.0173 82.2379 45.6719 82.9631 43.2662 83.4094C43.1266 83.423 42.9952 83.4815 42.8917 83.5761C42.7882 83.6707 42.7181 83.7964 42.6921 83.9342C42.5809 84.3478 42.4204 84.7491 42.2969 85.169C42.1512 85.4606 42.0731 85.7814 42.0685 86.1074C41.7289 87.1878 41.3832 88.2744 41.0375 89.3487C40.7905 90.1204 40.951 89.6327 40.6855 90.4415L43.5132 90.2995L76.4694 88.7004C77.0868 86.5272 77.6548 84.3417 78.0623 82.119C78.2167 81.2917 78.513 80.8102 79.3897 80.8102C79.4633 80.8053 79.536 80.7908 79.6058 80.767" fill="#66E3C4"/>
<path d="M32.4247 76.8097C32.5976 75.1118 33.4928 74.3401 35.1351 74.2845C36.1948 74.2954 37.2305 73.9689 38.0924 73.3523C38.6809 72.8853 39.1485 72.2838 39.4558 71.5982C39.7631 70.9127 39.9011 70.1634 39.8581 69.4133C39.8581 66.1103 39.8581 62.8134 39.8581 59.5351C39.8581 59.3561 39.8581 59.177 39.8581 59.0041C39.9013 58.5658 40.0495 58.4794 40.4384 58.6893C41.0929 59.035 41.7226 59.4178 42.3709 59.7821C42.587 59.8994 42.8216 60.1648 43.0377 60.0537C43.2537 59.9426 43.1364 59.5907 43.1364 59.3499C43.1364 56.4358 43.1364 53.5217 43.1364 50.6076C43.1364 50.2496 43.1364 49.8976 43.0994 49.5396C43.1457 49.1809 43.1457 48.8178 43.0994 48.4591C43.155 47.9035 43.0994 47.354 43.0994 46.7984C43.0994 46.6008 43.0685 46.3847 43.229 46.218C43.229 45.1561 43.229 44.088 43.229 43.0261C43.229 42.6618 43.3402 42.5445 43.7106 42.5445C47.0383 42.5445 50.3661 42.5445 53.6876 42.5445C54.5208 42.5317 55.3518 42.6335 56.1572 42.8471C56.3918 42.915 56.4906 42.8471 56.5091 42.6124C56.719 42.6124 56.682 42.8224 56.7005 42.9582C56.7971 43.6445 57.1218 44.2783 57.6224 44.7577C58.123 45.237 58.7704 45.5339 59.4602 45.6006C59.8982 45.6654 60.3434 45.6654 60.7814 45.6006C60.8818 45.5648 60.9884 45.5502 61.0947 45.5576C61.2009 45.5651 61.3045 45.5944 61.3988 45.6438L62.6336 47.1441C61.5347 47.6133 60.4295 48.0578 59.3676 48.6135C59.0836 48.7678 59.0281 48.8357 59.3059 49.0703C62.8675 52.0316 65.2343 56.1841 65.9675 60.7575C65.9675 60.9489 66.0046 61.1403 66.0231 61.3749C65.0082 61.0059 64.058 60.4787 63.2078 59.8129C63.0411 59.6771 63.0473 59.4363 62.9855 59.2449C62.1189 56.1973 60.4468 53.4396 58.1452 51.2621C57.7994 50.941 57.4167 50.6447 57.0524 50.3607C57.0201 50.3269 56.9813 50.3 56.9383 50.2816C56.8954 50.2632 56.8491 50.2537 56.8024 50.2537C56.7556 50.2537 56.7094 50.2632 56.6664 50.2816C56.6234 50.3 56.5846 50.3269 56.5523 50.3607C53.7762 52.3064 51.4584 54.8348 49.761 57.7694C48.3974 60.1748 47.9273 62.9845 48.4336 65.7028C48.4572 65.9116 48.4319 66.123 48.3596 66.3202C46.9272 70.823 45.4866 75.3238 44.0378 79.8225C43.9329 80.1559 43.8217 80.4893 43.6983 80.8844C44.5791 80.7042 45.4473 80.467 46.2975 80.1744C49.2741 79.1928 52.0844 77.7647 54.6322 75.9391C54.7122 75.8756 54.7865 75.8054 54.8545 75.7292C55.157 75.7292 55.262 75.9824 55.4719 76.1305C55.8979 76.4639 56.3115 76.8158 56.7437 77.1431C56.861 77.2295 57.0462 77.2912 57.003 77.5011C55.0327 79.003 52.892 80.2671 50.6254 81.2672C48.2603 82.3403 45.772 83.1179 43.2167 83.5824C43.109 83.5908 43.0068 83.6338 42.9256 83.705C42.8444 83.7762 42.7884 83.8718 42.766 83.9776C42.5437 84.7122 42.2783 85.4284 42.0313 86.1508C37.228 86.052 34.6226 83.0083 32.5173 78.7421C32.4301 78.1019 32.3991 77.4553 32.4247 76.8097Z" fill="#44475B"/>
<path d="M61.4234 45.6869C60.6064 45.8508 59.7635 45.834 58.9538 45.6375C58.3166 45.4785 57.7452 45.1237 57.32 44.6232C56.8947 44.1227 56.637 43.5015 56.583 42.8469C56.583 42.779 56.583 42.7111 56.5398 42.637C56.5527 41.7689 56.8187 40.9235 57.3054 40.2045C57.0029 40.1366 56.7497 40.0995 56.4966 40.0316C55.5794 39.7931 54.7885 39.2121 54.2867 38.4082C53.7848 37.6043 53.6101 36.6387 53.7986 35.7099C53.8568 35.0146 54.0858 34.3444 54.4654 33.7589C54.6136 33.5552 54.4654 33.3885 54.4654 33.2156C54.0823 31.9467 54.0355 30.6 54.3296 29.3076C54.4636 28.6943 54.7886 28.1392 55.2578 27.7221C55.727 27.305 56.3163 27.0474 56.9411 26.9862C57.1447 26.9733 57.339 26.8966 57.4964 26.7669C57.6538 26.6372 57.7663 26.4612 57.8178 26.2638C58.3846 24.5997 59.3002 23.0757 60.5035 21.7939C60.8437 21.4279 61.2627 21.1438 61.7287 20.9631C62.1947 20.7824 62.6956 20.7099 63.1937 20.7509C63.6919 20.7919 64.1742 20.9454 64.6044 21.1999C65.0345 21.4544 65.4013 21.8031 65.6772 22.2199C65.9646 22.6443 66.148 23.1304 66.2123 23.6388C66.2767 24.1473 66.2203 24.6638 66.0476 25.1464C65.8933 25.7205 65.8994 25.7144 66.4427 25.8687C70.5854 27.0664 73.0797 29.925 74.3577 33.8948C74.7014 34.8958 74.7819 35.9684 74.5917 37.0096C74.4014 38.0507 73.9466 39.0255 73.2711 39.8402C72.2705 41.0978 70.9658 42.0795 69.4803 42.6926C68.0966 43.2736 66.5915 43.5068 65.0968 43.3717C65.0133 43.3498 64.925 43.3553 64.8449 43.3876C64.7648 43.4198 64.6973 43.4771 64.6523 43.5508C63.8967 44.6577 62.7376 45.4245 61.4234 45.6869Z" fill="#44475B"/>
<path d="M32.4434 76.9085C32.4434 69.4505 32.4434 61.9924 32.4434 54.5343C32.4434 54.3923 32.3631 54.1886 32.6224 54.1577C33.0967 54.3256 33.5455 54.5583 33.956 54.8492C34.1149 54.9499 34.2822 55.0366 34.4561 55.1085C34.9438 55.3863 35.4068 55.6827 35.8761 55.942C36.4276 56.2948 37.0008 56.6123 37.5924 56.8928C38.2988 57.3555 39.0283 57.782 39.778 58.1707C39.9747 58.2562 40.1399 58.4008 40.2505 58.5845C40.3612 58.7682 40.4118 58.9818 40.3954 59.1956C40.3954 62.9 40.3954 66.5364 40.3954 70.2099C40.4195 70.7345 40.3348 71.2584 40.1467 71.7488C39.9587 72.2391 39.6712 72.6853 39.3025 73.0592C38.9338 73.4332 38.4917 73.7269 38.004 73.9218C37.5164 74.1167 36.9937 74.2087 36.4688 74.192C35.6984 74.2113 34.9475 74.4384 34.2955 74.8492C33.6434 75.2599 33.1145 75.8392 32.7644 76.5257C32.6842 76.6677 32.6656 76.8777 32.4434 76.9085Z" fill="#44475B"/>
<path d="M33.9552 55.5652C33.4874 55.3444 33.0428 55.0776 32.6278 54.7688C32.4241 54.2317 32.2327 53.6884 32.0104 53.1512C31.877 52.8411 31.8096 52.5065 31.8126 52.1689C31.8155 51.8313 31.8887 51.498 32.0275 51.1902C32.1663 50.8824 32.3677 50.6069 32.6188 50.3811C32.8699 50.1554 33.1652 49.9844 33.486 49.8791C36.1469 48.8604 38.814 47.8602 41.4688 46.7921C41.9748 46.5527 42.5447 46.4834 43.0933 46.5947C43.642 46.706 44.1398 46.9918 44.5125 47.4095C44.5711 48.1241 44.5835 48.8418 44.5496 49.558C44.5496 49.5951 44.4817 49.6383 44.4446 49.6753C44.2142 49.3873 44.0498 49.0522 43.9631 48.6937C43.5556 47.7182 42.9629 47.4157 41.9566 47.7861C39.9068 48.5455 37.8694 49.3296 35.8259 50.126L34.0416 50.799C33.8199 50.8512 33.6132 50.9537 33.4376 51.0988C33.262 51.2438 33.1222 51.4274 33.029 51.6352C32.9359 51.843 32.8919 52.0695 32.9004 52.2971C32.909 52.5247 32.97 52.7473 33.0785 52.9475C33.381 53.6205 33.6156 54.3243 33.8811 55.0096C33.9552 55.201 34.0848 55.3738 33.9552 55.5652Z" fill="#44475B"/>
<path d="M90.8418 176.771C91.5495 176.701 92.2612 176.681 92.9718 176.709C92.2656 176.801 91.5521 176.822 90.8418 176.771Z" fill="#FED6E3"/>
<path d="M116.266 176.24C116.973 176.17 117.685 176.15 118.396 176.179C117.689 176.27 116.976 176.291 116.266 176.24Z" fill="#FED6E3"/>
<path d="M107.814 176.413C108.524 176.346 109.238 176.326 109.951 176.352C109.243 176.449 108.527 176.47 107.814 176.413Z" fill="#FED6E3"/>
<path d="M103.555 176.506C104.262 176.436 104.974 176.415 105.685 176.444C104.979 176.539 104.265 176.56 103.555 176.506Z" fill="#FED6E3"/>
<path d="M95.0781 176.685C95.7879 176.616 96.5015 176.593 97.2143 176.617C96.5068 176.717 95.7905 176.74 95.0781 176.685Z" fill="#FED6E3"/>
<path d="M112.068 176.321C112.754 176.258 113.443 176.241 114.13 176.271C113.447 176.365 112.755 176.381 112.068 176.321Z" fill="#FED6E3"/>
<path d="M99.3613 176.573C100.044 176.506 100.731 176.487 101.417 176.518C100.736 176.607 100.047 176.626 99.3613 176.573Z" fill="#FED6E3"/>
<path d="M120.525 176.148L122.038 176.067C121.543 176.187 121.03 176.214 120.525 176.148Z" fill="#FED6E3"/>
<path d="M63.6408 110.636C63.0235 112.445 62.4925 114.168 61.8628 115.866C59.5564 122.325 56.4846 128.485 52.713 134.214C52.3673 134.733 51.9907 135.227 51.6635 135.752C51.4906 136.023 51.3486 136.054 51.0461 135.912C49.7442 135.246 48.4826 134.504 47.2677 133.69C42.4068 130.573 37.8103 127.063 33.5246 123.194C33.1418 122.842 32.7899 122.459 32.4009 122.126C32.1787 121.935 32.2157 121.786 32.3392 121.564C35.0082 116.816 37.3374 111.885 39.3095 106.808C41.2358 101.913 42.8904 96.9302 44.4338 91.9108C44.4579 91.7844 44.528 91.6714 44.6307 91.5938C44.7334 91.5162 44.8613 91.4796 44.9895 91.491L63.2951 90.5773C67.2834 90.3715 71.2718 90.1657 75.2601 89.9599C75.4475 89.9431 75.6364 89.9663 75.8141 90.0281C75.9919 90.0898 76.1545 90.1886 76.2912 90.318C79.9491 93.4883 83.4031 96.8866 86.6324 100.493C91.0462 105.36 94.95 110.666 98.2826 116.329C99.5939 118.574 100.791 120.884 101.87 123.25C102.036 123.614 101.999 123.793 101.647 124.009C99.5044 125.287 97.2837 126.429 94.9981 127.429C90.6553 129.47 86.1693 131.191 81.576 132.578C81.1624 132.696 80.7364 132.776 80.3412 132.906C80.0819 132.992 79.9832 132.906 79.8597 132.696C75.7939 125.728 71.0787 119.161 65.777 113.081C65.067 112.285 64.3755 111.494 63.6408 110.636Z" fill="#FEFEFE"/>
<path d="M72.6913 80.625C69.0601 80.6206 65.4606 79.9488 62.0722 78.6432C61.7203 78.5074 61.6833 78.3839 61.8191 78.0567C63.7392 73.4016 65.4 68.6476 67.3756 64.0234C67.5238 63.6715 67.6164 63.1899 67.8881 63.0356C68.1597 62.8812 68.5857 63.1158 68.95 63.1714C71.6932 63.6649 74.5071 63.6103 77.2292 63.0109C80.4289 62.1559 83.2689 60.2944 85.3293 57.7013C87.9532 54.6144 89.651 50.9903 91.0093 47.2057C91.4209 46.0944 91.7913 44.9749 92.1206 43.8471C93.0405 40.8404 95.1334 39.1611 98.134 38.5375C99.0539 38.34 99.9861 38.3029 100.943 38.1424C102.528 37.8759 104.001 37.1553 105.185 36.068C105.397 35.82 105.663 35.6233 105.962 35.4929C106.262 35.3624 106.587 35.3015 106.913 35.3148C107.069 35.3164 107.222 35.3506 107.363 35.4151C107.505 35.4797 107.631 35.5732 107.734 35.6895C107.837 35.8059 107.914 35.9425 107.961 36.0907C108.008 36.2388 108.023 36.3951 108.006 36.5495C108.006 36.7471 108.092 36.778 108.222 36.815C108.493 36.8842 108.746 37.0071 108.968 37.1763C109.19 37.3456 109.376 37.5578 109.514 37.8004C109.653 38.0429 109.741 38.3108 109.773 38.588C109.806 38.8653 109.782 39.1463 109.704 39.4142C109.683 39.5452 109.704 39.6794 109.766 39.797C109.922 40.1826 109.977 40.602 109.925 41.0149C109.873 41.4278 109.716 41.8205 109.469 42.1554C108.888 42.9751 108.201 43.7141 107.426 44.3534C106.117 45.5079 104.783 46.6377 103.542 47.8663C102.535 48.8898 101.779 50.1322 101.332 51.4966C100.097 55.0466 98.9242 58.6274 97.4363 62.091C95.9473 65.7804 93.9615 69.2492 91.5341 72.4014C89.3856 75.0809 86.8604 77.3035 83.613 78.5753C80.5704 79.7684 77.3516 80.4505 74.0866 80.5941L73.3766 80.625H72.6913Z" fill="#FEFEFE"/>
<path d="M109.937 163.09L106.233 163.627C100.991 164.368 95.7369 165.059 90.5508 166.097C90.1125 166.183 90.0754 166.01 90.026 165.671C89.0135 159.034 87.8281 152.44 85.7722 146.025C84.4515 141.938 82.7461 137.986 80.6788 134.221C80.5121 133.924 80.4874 133.826 80.8825 133.715C85.8227 132.294 90.6431 130.486 95.2985 128.306C96.8482 127.615 98.3855 126.886 99.8734 126.071C100.102 125.948 100.17 125.997 100.269 126.226C102.665 131.56 104.438 137.154 105.553 142.895C106.023 145.5 106.344 148.124 106.788 150.73C107.449 154.939 108.503 159.077 109.937 163.09Z" fill="#FEFEFE"/>
<path d="M21.6074 162.991L19.1378 159.96C15.8348 155.854 12.5626 151.724 9.02498 147.816C8.79037 147.556 8.93237 147.47 9.11759 147.316C12.3465 144.667 15.5014 142 18.5204 139.111C23.6191 134.388 28.007 128.952 31.5474 122.972L31.677 122.756C32.6648 123.707 33.6527 124.608 34.6899 125.509C38.9308 129.116 43.4313 132.405 48.1552 135.351C48.4824 135.561 48.5071 135.665 48.2786 135.968C45.5308 139.79 42.4726 143.379 39.1351 146.698C37.1594 148.643 34.9677 150.341 32.8501 152.119C29.5101 154.815 26.3582 157.736 23.4163 160.861C22.799 161.559 22.2248 162.263 21.6074 162.991Z" fill="#FEFEFE"/>
<path d="M109.308 44.0323C108.945 44.8811 108.628 45.7487 108.358 46.6316C107.215 50.3359 106.246 54.0402 104.987 57.6767C103.869 61.1233 102.374 64.4361 100.529 67.5549C99.2684 69.7282 97.5747 71.6195 95.553 73.1114C93.9745 74.1281 92.2327 74.8654 90.404 75.2908C90.3423 75.2943 90.2804 75.2943 90.2188 75.2908C90.9473 74.5499 91.6202 73.809 92.25 73.0311C94.6612 69.9173 96.65 66.4981 98.1646 62.8627C99.6648 59.4239 100.826 55.8615 102.073 52.3301C102.171 52.0522 102.289 51.7806 102.369 51.4966C102.851 49.842 104.024 48.6875 105.24 47.5762C106.549 46.3784 107.882 45.2116 109.21 44.0323C109.197 44.02 109.234 44.0323 109.308 44.0323Z" fill="#FEFEFE"/>
<path d="M110.295 42.8222C110.597 42.3568 110.794 41.831 110.87 41.2817C110.947 40.7324 110.903 40.1729 110.74 39.6426C110.61 39.2351 110.74 38.8029 110.697 38.4078C110.641 37.9662 110.484 37.5434 110.238 37.1727C109.992 36.8021 109.663 36.4936 109.277 36.2716C109.189 36.2241 109.112 36.159 109.05 36.0804C108.989 36.0018 108.944 35.9114 108.919 35.8148C108.505 34.5183 106.807 33.9626 105.474 34.6541C105.126 34.8549 104.803 35.0952 104.511 35.3703C103.81 36.0086 102.992 36.5055 102.103 36.8335C101.973 36.8767 101.837 36.9816 101.658 36.8829C101.989 35.9733 102.37 35.0829 102.8 34.2157C103.554 32.5613 104.485 30.9942 105.579 29.5421C105.899 29.1154 106.289 28.7459 106.733 28.4493C106.85 28.346 106.998 28.2835 107.154 28.2713C107.31 28.259 107.465 28.2977 107.597 28.3814C107.739 28.4772 107.848 28.615 107.908 28.7755C107.968 28.9361 107.976 29.1113 107.931 29.2766C107.782 29.9114 107.489 30.5032 107.073 31.0053C107.005 31.08 106.959 31.1718 106.939 31.2708C106.92 31.3698 106.927 31.4722 106.962 31.5671C107.087 31.9472 107.188 32.3349 107.264 32.7278C107.32 32.9995 107.431 32.9995 107.653 32.9069C109.4 32.1824 111.235 31.6925 113.111 31.4498C113.742 31.351 114.388 31.406 114.994 31.6104C115.154 31.6492 115.304 31.7243 115.431 31.83C115.558 31.9357 115.659 32.0691 115.726 32.2199C115.794 32.3708 115.826 32.5351 115.82 32.7002C115.814 32.8653 115.77 33.0268 115.691 33.1723C115.656 33.2209 115.632 33.2765 115.62 33.3353C115.608 33.3941 115.608 33.4549 115.622 33.5134C115.635 33.5719 115.661 33.6269 115.698 33.6745C115.734 33.7222 115.78 33.7615 115.833 33.7897C116.244 34.1199 116.57 34.5432 116.784 35.0245C116.902 35.2217 116.955 35.4504 116.938 35.6792C116.92 35.908 116.832 36.1258 116.685 36.3025C116.562 36.4383 116.611 36.5433 116.685 36.6606C117.229 38.0065 116.92 38.8215 115.679 39.6982C114.438 40.5749 113.16 41.1737 111.895 41.9084L110.295 42.8222Z" fill="#FEFEFE"/>
<path d="M56.9776 77.5257C56.2799 76.9083 55.5205 76.4021 54.8537 75.7538C53.2186 74.1347 51.7973 72.313 50.6246 70.3331L50.5135 70.1417C50.3591 69.8577 50.3591 69.5923 50.6678 69.4194C50.9765 69.2465 51.1679 69.4194 51.3346 69.6478C51.8471 70.4937 52.3965 71.3148 52.9707 72.1174C54.8736 74.8073 57.4266 76.9716 60.3917 78.4086L60.5522 78.4889C60.6213 78.5057 60.6856 78.5382 60.7401 78.5838C60.7947 78.6295 60.8379 78.6871 60.8666 78.7522C60.8952 78.8173 60.9085 78.8881 60.9054 78.9591C60.9023 79.0301 60.8828 79.0995 60.8486 79.1618C60.6942 79.4829 60.4164 79.4767 60.1262 79.3409C59.1916 78.8809 58.2864 78.3634 57.4159 77.7912C57.2863 77.6924 57.1319 77.6122 56.9776 77.5257Z" fill="#FEFEFE"/>
<path d="M80.3702 60.2206C80.3702 60.4367 80.4567 60.6528 80.1974 60.8072C79.7899 61.0541 79.5059 60.9492 79.4565 60.4738C79.2898 58.992 79.1602 57.5041 78.9317 56.0286C78.87 55.5902 78.7959 55.1581 78.7157 54.7197C78.6539 54.4048 78.765 54.1702 79.0676 54.1023C79.3701 54.0344 79.5862 54.2196 79.6849 54.5468C80.006 56.4299 80.1912 58.3253 80.3702 60.2206Z" fill="#FEFEFE"/>
<path d="M109.456 170.462C109.302 170.418 109.184 170.375 109.135 170.227C109.086 170.079 109.197 169.924 109.326 169.819C110.066 169.209 110.763 168.549 111.413 167.844C111.722 167.504 112.031 167.165 112.327 166.813C112.463 166.658 112.599 166.51 112.802 166.683C112.84 166.714 112.87 166.754 112.891 166.798C112.912 166.842 112.922 166.89 112.922 166.939C112.922 166.988 112.912 167.037 112.891 167.081C112.87 167.125 112.84 167.164 112.802 167.196C111.851 168.347 110.793 169.406 109.641 170.357C109.583 170.398 109.521 170.433 109.456 170.462Z" fill="#FDFDFD"/>
<path d="M19.6504 167.597C18.1427 167.369 16.6603 166.997 15.2237 166.485C15.1807 166.473 15.1408 166.452 15.1068 166.423C15.0728 166.394 15.0455 166.359 15.0267 166.318C15.0079 166.278 14.9981 166.233 14.998 166.189C14.998 166.144 15.0075 166.1 15.0261 166.059C15.0879 165.837 15.2484 165.825 15.446 165.893C16.8261 166.381 18.2478 166.743 19.6936 166.973C19.8974 167.01 20.0394 167.084 19.99 167.319C19.9792 167.4 19.9381 167.473 19.875 167.525C19.812 167.577 19.7317 167.602 19.6504 167.597Z" fill="#FDFDFD"/>
<path d="M20.614 164.998C20.614 165.337 20.3547 165.43 19.9966 165.245C19.0506 164.703 18.0513 164.26 17.0146 163.923C16.8047 163.862 16.5948 163.794 16.3973 163.738C16.3528 163.731 16.3108 163.713 16.2747 163.686C16.2385 163.659 16.2093 163.624 16.1894 163.584C16.1695 163.543 16.1595 163.499 16.1602 163.454C16.1609 163.409 16.1723 163.364 16.1935 163.325C16.2044 163.285 16.2236 163.248 16.2497 163.217C16.2758 163.185 16.3083 163.16 16.3451 163.142C16.3818 163.124 16.4219 163.113 16.4629 163.112C16.5038 163.111 16.5445 163.118 16.5825 163.133C17.9332 163.495 19.2275 164.041 20.4288 164.757C20.4775 164.778 20.52 164.811 20.5524 164.853C20.5848 164.896 20.606 164.945 20.614 164.998Z" fill="#FCFCFD"/>
<path d="M111.327 165.3C111.327 165.454 111.209 165.522 111.092 165.59C109.949 166.214 108.895 166.991 107.962 167.899C107.801 168.054 107.635 168.122 107.468 167.936C107.301 167.751 107.357 167.584 107.523 167.43C108.5 166.484 109.603 165.678 110.802 165.035C111.092 164.88 111.345 165.022 111.327 165.3Z" fill="#FDFDFD"/>
<path d="M109.489 43.6929C109.489 43.841 109.439 43.9522 109.365 43.946C109.192 43.946 109.328 43.841 109.365 43.7917C109.404 43.7558 109.445 43.7228 109.489 43.6929Z" fill="#676590"/>
<path d="M73.704 35.8891C73.686 36.8035 73.453 37.7007 73.024 38.5083C72.595 39.3159 71.982 40.0113 71.2345 40.5381C70.3281 41.3032 69.266 41.8618 68.1221 42.1752C66.9781 42.4887 65.7797 42.5494 64.6099 42.3532C64.5131 42.3241 64.409 42.332 64.3177 42.3754C64.2265 42.4187 64.1545 42.4944 64.116 42.5878C63.6607 43.4084 62.9527 44.0602 62.0973 44.4462C61.2419 44.8321 60.2848 44.9317 59.3682 44.7302C59.0353 44.6706 58.7198 44.5378 58.4444 44.3414C58.169 44.1451 57.9407 43.89 57.7759 43.5946C57.6111 43.2993 57.5139 42.971 57.4914 42.6336C57.4689 42.2961 57.5216 41.9578 57.6457 41.6432C57.798 41.0839 58.0879 40.5715 58.4891 40.1531C58.8903 39.7346 59.3899 39.4234 59.9424 39.2477C60.4003 39.0233 60.9092 38.9232 61.418 38.9576C61.6572 38.9747 61.895 38.9084 62.0909 38.77C62.2868 38.6315 62.4286 38.4295 62.4922 38.1982C62.6527 37.729 62.5478 37.4635 62.0415 37.0745C61.8316 36.914 61.6094 36.7658 61.4241 36.5991C60.9931 36.2872 60.672 35.8467 60.5067 35.341C60.3414 34.8352 60.3406 34.2901 60.5042 33.7838C60.8669 32.6707 61.4531 31.6434 62.2268 30.7648C62.8441 29.9684 63.5356 29.2028 64.2086 28.4311C64.6335 27.9581 65.0061 27.4406 65.3199 26.8876C65.3339 26.8401 65.3581 26.7962 65.3906 26.7589C65.4231 26.7215 65.4632 26.6916 65.5083 26.6711C65.5534 26.6506 65.6023 26.6401 65.6518 26.6401C65.7013 26.6402 65.7502 26.6509 65.7953 26.6715C67.2108 27.0038 68.5384 27.6366 69.6878 28.5272C70.8372 29.4178 71.7816 30.5452 72.4569 31.8329C73.2195 33.0529 73.6495 34.4514 73.704 35.8891Z" fill="#FEFEFE"/>
<path d="M64.5462 110.148C64.0522 110.148 63.8732 109.871 63.9967 109.432C64.4289 107.944 64.8363 106.456 65.1944 104.944C65.567 103.47 65.8536 101.975 66.0526 100.468C66.0526 100.227 66.1884 100.153 66.3983 100.097C67.7472 99.7791 69.0637 99.3369 70.3311 98.7762C70.6274 98.6403 70.8929 98.6589 71.0411 98.9799C71.1893 99.3009 71.0411 99.517 70.7262 99.6529C69.6346 100.137 68.5051 100.532 67.3491 100.832C67.2294 100.848 67.1192 100.906 67.0379 100.995C66.9566 101.084 66.9093 101.199 66.9046 101.32C66.4193 104.126 65.7595 106.899 64.9289 109.624C64.8548 109.895 64.7684 110.142 64.5462 110.148Z" fill="#030047"/>
<path d="M105.751 40.9518C106.208 40.5752 106.591 40.2295 106.986 39.927C107.593 39.4459 108.336 39.1674 109.11 39.1305C109.308 39.1305 109.474 39.1676 109.493 39.4022C109.503 39.4455 109.504 39.4907 109.494 39.5342C109.484 39.5776 109.464 39.6183 109.436 39.6529C109.408 39.6875 109.372 39.7152 109.332 39.7339C109.291 39.7525 109.247 39.7615 109.203 39.7603C107.826 39.8344 106.912 40.7049 106.048 41.6124C105.12 42.613 104.136 43.5611 103.103 44.4524C102.933 44.5956 102.746 44.7179 102.547 44.8167C102.513 44.8392 102.474 44.8541 102.433 44.8604C102.392 44.8666 102.35 44.8641 102.311 44.853C102.271 44.8419 102.234 44.8225 102.202 44.796C102.171 44.7695 102.145 44.7366 102.127 44.6994C102.104 44.6655 102.088 44.6271 102.08 44.5867C102.073 44.5463 102.074 44.5047 102.083 44.4646C102.092 44.4246 102.11 44.3869 102.134 44.3539C102.159 44.321 102.19 44.2936 102.226 44.2734C102.306 44.2117 102.399 44.1623 102.485 44.1067C103.716 43.341 104.617 42.1432 105.011 40.7481C105.062 40.6092 105.093 40.4637 105.103 40.3159C105.13 40.116 105.099 39.9127 105.013 39.73C104.928 39.5473 104.792 39.3928 104.622 39.2849C104.257 39.0873 103.961 39.359 103.72 39.5812C103.194 39.9976 102.823 40.5778 102.664 41.2297C102.615 41.5013 102.417 41.5507 102.195 41.4951C101.39 41.3105 100.546 41.4003 99.7975 41.7505C99.0491 42.1006 98.4392 42.691 98.0649 43.4276C97.9599 43.6313 97.8241 43.7486 97.6142 43.6437C97.4043 43.5387 97.3858 43.3288 97.4969 43.1127C97.7663 42.5753 98.1475 42.1017 98.615 41.7237C99.0825 41.3457 99.6253 41.072 100.207 40.921C100.691 40.7773 101.201 40.7373 101.701 40.8037C101.942 40.8037 102.047 40.8037 102.14 40.532C102.299 40.069 102.567 39.6506 102.92 39.3114C103.273 38.9722 103.702 38.7218 104.171 38.5811C104.321 38.5164 104.487 38.5012 104.646 38.5378C105.109 38.7848 105.325 38.4885 105.591 38.2045C106.168 37.6041 106.902 37.1765 107.709 36.9697C107.925 36.9079 108.128 36.8338 108.209 37.124C108.289 37.4142 108.11 37.5315 107.863 37.5932C107.058 37.8119 106.339 38.2706 105.801 38.9083C105.725 38.9743 105.674 39.0635 105.655 39.1619C105.636 39.2603 105.65 39.3622 105.696 39.4516C105.886 39.9304 105.906 40.4602 105.751 40.9518Z" fill="#44475B"/>
<path d="M101.424 133.807C101.387 134.029 101.288 134.196 101.017 134.097C99.9452 133.726 99.034 132.998 98.4359 132.035C98.3248 131.862 98.3124 131.689 98.5038 131.572C98.54 131.546 98.5815 131.528 98.6254 131.519C98.6693 131.51 98.7145 131.511 98.7579 131.522C98.8014 131.532 98.842 131.552 98.877 131.58C98.912 131.608 98.9406 131.643 98.9607 131.683C99.4839 132.517 100.267 133.155 101.189 133.498C101.256 133.519 101.314 133.56 101.356 133.615C101.398 133.67 101.422 133.737 101.424 133.807Z" fill="#44475B"/>
<path d="M41.6855 138.598C41.7028 137.768 41.9142 136.954 42.3029 136.221C42.4079 136.011 42.5252 135.801 42.803 135.956C43.0808 136.11 42.9821 136.283 42.8771 136.487C42.388 137.39 42.2245 138.434 42.4141 139.444C42.4573 139.678 42.4141 139.919 42.1486 139.956C41.8831 139.993 41.8275 139.746 41.7843 139.524C41.7207 139.219 41.6876 138.909 41.6855 138.598Z" fill="#44475B"/>
<path d="M116.012 35.5001C116.241 35.5001 116.525 35.4383 116.531 35.8026C116.537 36.1668 116.296 36.1236 116.062 36.1421C114.505 36.2408 113.007 36.7757 111.74 37.6856C111.555 37.8153 111.351 38.0622 111.122 37.7474C110.894 37.4325 111.122 37.3152 111.332 37.13C112.708 36.1571 114.33 35.5922 116.012 35.5001Z" fill="#44475B"/>
<path d="M114.833 32.8205H114.969C115.185 32.8205 115.413 32.7711 115.432 33.0674C115.45 33.3638 115.253 33.4379 115 33.4564C113.949 33.5342 112.912 33.7415 111.913 34.0738C111.468 34.2219 111.03 34.4072 110.592 34.58C110.363 34.6726 110.141 34.6973 110.03 34.4257C109.919 34.154 110.141 34.0738 110.338 33.9873C111.767 33.3679 113.283 32.9742 114.833 32.8205Z" fill="#44475B"/>
<path d="M104.726 16.0514C104.06 15.9185 103.368 16.0455 102.792 16.4062C102.513 16.5732 102.271 16.7967 102.083 17.0625C101.895 17.3283 101.765 17.6305 101.701 17.9497C102.026 18.0455 102.369 18.0674 102.703 18.0137C103.038 17.9599 103.356 17.832 103.635 17.6392C103.914 17.4613 104.154 17.2291 104.342 16.9563C104.529 16.6835 104.66 16.3758 104.726 16.0514Z" fill="#44475B"/>
<path d="M105.835 20.4243C105.696 20.0219 105.47 19.6546 105.175 19.3482C104.879 19.0418 104.52 18.8036 104.123 18.6502C103.147 18.3397 102.588 18.6502 101.914 18.455C101.24 18.2599 100.841 17.568 99.998 17.3196C99.53 17.1947 99.0384 17.1868 98.5666 17.2966C98.0948 17.4065 97.6572 17.6307 97.2925 17.9494C96.1216 18.9074 95.5184 21.2315 96.1482 23.5911C96.3789 24.4337 96.7248 25.3651 97.5231 25.6756C98.3215 25.9861 98.5698 25.5159 99.5279 25.8264C100.486 26.1369 100.512 26.6602 101.222 26.8731C101.932 27.086 102.934 26.474 103.617 25.924C104.027 25.5973 104.404 25.232 104.744 24.8329C104.374 24.5324 104.098 24.1331 103.947 23.6815C103.796 23.23 103.777 22.7448 103.891 22.2826C104.006 21.8204 104.249 21.4003 104.593 21.0713C104.937 20.7422 105.368 20.5178 105.835 20.4243Z" fill="#44475B"/>
<path d="M85.0172 8.396L85.0642 9.85878L83.7422 10.2812C83.1164 9.65605 82.653 8.88725 82.3926 8.04188C82.1322 7.19652 82.0826 6.30026 82.2481 5.43132L83.4919 5.29834L84.3602 6.31525C84.3439 6.67227 84.3888 7.02944 84.4932 7.37127C84.6072 7.7406 84.7846 8.08732 85.0172 8.396Z" fill="#FBBB00"/>
<path d="M92.4087 3.9292C92.5632 4.2305 92.6914 4.54455 92.792 4.86788C92.8999 5.23532 92.9707 5.6127 93.0032 5.9943C93.1012 7.24041 92.77 8.48255 92.0645 9.51437L90.5548 9.88202L89.9524 8.63827C90.456 8.09257 90.7594 7.39203 90.8129 6.65138L88.0281 7.48838L87.4102 5.43109L90.234 4.57846L92.4087 3.9292Z" fill="#518EF8"/>
<path d="M92.0633 9.51457C91.6136 10.1742 91.024 10.7265 90.3365 11.1322C89.6489 11.5379 88.8804 11.787 88.0856 11.8617C87.2908 11.9364 86.4893 11.8349 85.7382 11.5644C84.9871 11.2939 84.3049 10.8611 83.7402 10.2968L85.0153 8.41162C85.3013 8.78495 85.6652 9.0915 86.0817 9.30995C86.4982 9.52841 86.9573 9.65352 87.4271 9.6766C87.8968 9.69968 88.3659 9.62016 88.8019 9.44359C89.2378 9.26701 89.63 8.99761 89.9512 8.65411L92.0633 9.51457Z" fill="#28B446"/>
<path d="M89.7008 1.43384L88.4336 3.31903C87.9643 3.18998 87.4719 3.16889 86.9933 3.25735C86.5146 3.34581 86.0623 3.54153 85.6701 3.82981C85.278 4.11809 84.9562 4.49145 84.729 4.92187C84.5018 5.35229 84.375 5.82858 84.3581 6.315L82.2461 5.43107C82.3944 4.63273 82.7201 3.8779 83.1992 3.22232C83.6783 2.56674 84.2986 2.02717 85.0142 1.64346C85.7298 1.25974 86.5225 1.04169 87.3336 1.00541C88.1448 0.969134 88.9538 1.11555 89.7008 1.43384Z" fill="#F14336"/>
<path d="M40.4583 12.0253C40.1463 11.7476 39.8872 11.4155 39.6938 11.0452L38.949 8.40875C38.7679 7.82459 38.3638 7.33538 37.8244 7.0473C37.2849 6.75921 36.6536 6.6955 36.0675 6.86999L35.891 6.9288C35.2117 7.04624 34.6005 7.41245 34.1765 7.95604C33.7525 8.49962 33.5461 9.18163 33.5976 9.8691C33.5976 9.90212 33.6042 9.9348 33.6171 9.96519C33.6301 9.99557 33.649 10.023 33.6728 10.0459C33.6966 10.0688 33.7248 10.0866 33.7556 10.0984C33.7865 10.1101 33.8194 10.1154 33.8524 10.1141C34.3719 10.1141 34.8913 10.0259 35.4108 9.94751C35.4638 9.93345 35.5112 9.90326 35.5463 9.86112C35.5814 9.81898 35.6025 9.76697 35.6068 9.71228C35.6068 9.23203 35.695 9.08502 36.1851 8.9478C36.6751 8.81059 36.9692 9.03601 37.1652 9.71228C34.5385 10.614 33.5584 11.6725 33.9896 13.2112C34.2 13.7268 34.5938 14.1463 35.0951 14.3888C35.5964 14.6313 36.1697 14.6796 36.7045 14.5246C37.056 14.4567 37.3904 14.3194 37.6883 14.1208C37.9861 13.9223 38.2414 13.6664 38.4393 13.3681C38.7682 13.5462 39.127 13.6624 39.4978 13.7111C39.5297 13.7209 39.5639 13.7209 39.5958 13.7111C39.6608 13.6925 39.7166 13.6507 39.7526 13.5935L40.4387 12.3586C40.4815 12.3147 40.5071 12.2568 40.5107 12.1956C40.5143 12.1344 40.4957 12.0739 40.4583 12.0253ZM37.9787 12.6526C37.9034 12.8121 37.797 12.955 37.6657 13.0728C37.5344 13.1907 37.3809 13.281 37.2142 13.3387C36.9887 13.3975 36.2341 13.5151 35.9106 12.4076C35.8774 12.2937 35.8673 12.1744 35.8808 12.0566C35.8942 11.9388 35.931 11.8249 35.989 11.7215C36.4191 11.1495 37.0367 10.747 37.7336 10.5846C37.7947 10.566 37.8607 10.5719 37.9174 10.6012C37.9742 10.6305 38.0172 10.6808 38.0375 10.7414C38.1712 11.0526 38.2352 11.3894 38.2251 11.728C38.2149 12.0666 38.1308 12.3989 37.9787 12.7016V12.6526Z" fill="#37474F"/>
<path d="M43.2306 13.2011C43.162 13.2011 41.437 13.2011 40.9176 14.1812C40.8857 14.2398 40.8782 14.3086 40.8965 14.3727C40.9148 14.4369 40.9576 14.4913 41.0156 14.5242C41.0439 14.5398 41.075 14.5495 41.107 14.553C41.1391 14.5565 41.1716 14.5536 41.2026 14.5445C41.2335 14.5354 41.2624 14.5202 41.2875 14.4999C41.3126 14.4796 41.3334 14.4546 41.3488 14.4262C41.633 13.9362 42.5347 13.7598 43.0444 13.7107C43.1522 14.2596 43.2306 15.1515 42.9072 15.3867C42.8835 15.4096 42.8646 15.437 42.8517 15.4673C42.8388 15.4976 42.8322 15.5302 42.8322 15.5631C42.8322 15.5961 42.8388 15.6287 42.8517 15.659C42.8646 15.6893 42.8835 15.7167 42.9072 15.7395C42.9256 15.7664 42.9494 15.7892 42.9771 15.8064C43.0047 15.8236 43.0357 15.8348 43.0679 15.8394C43.1002 15.844 43.133 15.8419 43.1644 15.8331C43.1958 15.8244 43.225 15.8092 43.2502 15.7886C43.9755 15.2495 43.5638 13.5735 43.5148 13.3873C43.4987 13.3267 43.4607 13.2743 43.4083 13.2399C43.3559 13.2056 43.2926 13.1917 43.2306 13.2011Z" fill="#FFC107"/>
<path d="M42.7501 14.6224C42.7136 14.4951 42.6281 14.3875 42.5123 14.3232C42.3966 14.2588 42.26 14.2431 42.1326 14.2794C42.0322 14.3065 41.9429 14.3648 41.8778 14.446C38.9963 16.6512 36.0854 17.2295 32.1552 16.3474C32.0903 16.3326 32.0221 16.3438 31.9654 16.3786C31.9086 16.4134 31.8677 16.469 31.8514 16.5336C31.8398 16.5884 31.846 16.6454 31.8689 16.6965C31.8918 16.7475 31.9302 16.79 31.9788 16.8178C32.9157 17.386 33.9575 17.7596 35.0419 17.9162C36.1264 18.0728 37.2313 18.0093 38.2906 17.7293C39.8639 17.2409 41.2962 16.3802 42.4659 15.2203C42.5767 15.1708 42.6662 15.0834 42.7183 14.9738C42.7704 14.8642 42.7817 14.7396 42.7501 14.6224Z" fill="#FFC107"/>
<path d="M60.3027 5.85341L64.9017 7.02007L65.9923 2.7254C66.0104 2.64258 65.9959 2.55596 65.9518 2.48355C65.9077 2.41113 65.8375 2.35847 65.7556 2.33652L61.4694 1.25439L60.3027 5.85341Z" fill="#4CAF50"/>
<path d="M59.6947 5.70077L60.8529 1.10176L56.5582 0.00272649C56.5183 -0.00739043 56.4767 -0.0095052 56.4359 -0.0034962C56.3951 0.00251281 56.3559 0.016527 56.3205 0.0377404C56.2852 0.0589538 56.2544 0.0869478 56.2299 0.120112C56.2054 0.153277 56.1877 0.190957 56.1778 0.230987L55.0703 4.53411L59.6947 5.70077Z" fill="#F44336"/>
<path d="M59.5327 6.30973L54.9337 5.14307L53.8516 9.43774C53.8309 9.51955 53.8433 9.60619 53.886 9.67896C53.9287 9.75172 53.9983 9.80477 54.0798 9.82662L58.3745 10.9087L59.5327 6.30973Z" fill="#2196F3"/>
<path d="M60.1413 6.46143L58.9746 11.0604L63.2693 12.151C63.3092 12.1611 63.3508 12.1633 63.3916 12.1572C63.4324 12.1512 63.4716 12.1372 63.507 12.116C63.5423 12.0948 63.5731 12.0668 63.5976 12.0336C63.6221 12.0005 63.6398 11.9628 63.6497 11.9228L64.7487 7.61118L60.1413 6.46143Z" fill="#FFC107"/>
<path d="M35.8669 32.8814C35.698 33.2169 35.4695 33.5188 35.1927 33.7726C35.1873 33.7822 35.1795 33.7903 35.1699 33.7959C35.1604 33.8016 35.1495 33.8045 35.1384 33.8045C35.1274 33.8045 35.1165 33.8016 35.107 33.7959C35.0974 33.7903 35.0896 33.7822 35.0842 33.7726C35.0145 33.6098 34.72 33.3464 33.5344 33.7726C33.5193 33.7763 33.5062 33.7855 33.4976 33.7984C33.489 33.8113 33.4855 33.827 33.4879 33.8423L34.5573 40.8165C34.5634 40.834 34.5624 40.8532 34.5544 40.8699C34.5464 40.8866 34.5321 40.8994 34.5146 40.9056C34.4972 40.9118 34.478 40.9107 34.4613 40.9028C34.4445 40.8948 34.4317 40.8805 34.4255 40.863L30.9229 34.7489C30.9107 34.7395 30.8957 34.7344 30.8803 34.7344C30.8649 34.7344 30.8499 34.7395 30.8377 34.7489C29.6443 35.1054 29.5978 35.4929 29.5978 35.6866C29.6002 35.6969 29.6002 35.7077 29.5978 35.7181C29.5953 35.7284 29.5906 35.738 29.5838 35.7463C29.5771 35.7545 29.5686 35.7611 29.5589 35.7655C29.5493 35.7699 29.5387 35.7721 29.5281 35.7718C29.1507 35.7417 28.7811 35.6474 28.4355 35.4929C28.4259 35.4865 28.418 35.4779 28.4126 35.4677C28.4071 35.4576 28.4043 35.4463 28.4043 35.4347C28.4043 35.4232 28.4071 35.4119 28.4126 35.4018C28.418 35.3916 28.4259 35.383 28.4355 35.3766C29.3532 34.6921 30.3877 34.1801 31.4886 33.8655C31.4965 33.8599 31.506 33.8568 31.5157 33.8568C31.5255 33.8568 31.535 33.8599 31.5429 33.8655L32.1008 34.222C32.1073 34.2288 32.1151 34.2342 32.1238 34.2379C32.1324 34.2416 32.1418 34.2435 32.1512 34.2435C32.1606 34.2435 32.1699 34.2416 32.1786 34.2379C32.1872 34.2342 32.195 34.2288 32.2015 34.222L32.4185 33.5943C32.4151 33.5871 32.4133 33.5791 32.4133 33.5711C32.4133 33.563 32.4151 33.5551 32.4185 33.5478C33.4897 33.0918 34.6341 32.8319 35.7971 32.7807C35.8096 32.7793 35.8222 32.7814 35.8336 32.7866C35.845 32.7918 35.8548 32.8 35.8619 32.8103C35.8691 32.8206 35.8733 32.8327 35.8742 32.8452C35.875 32.8577 35.8725 32.8702 35.8669 32.8814Z" fill="#E82934"/>
<path d="M35.9998 31.626L35.9455 32.1762C35.9437 32.1872 35.938 32.1971 35.9294 32.2042C35.9209 32.2113 35.9101 32.2151 35.899 32.215C34.4852 32.2313 33.085 32.4935 31.761 32.9899C30.4179 33.4269 29.1617 34.0957 28.0492 34.9659C28.0407 34.9735 28.0296 34.9777 28.0182 34.9777C28.0067 34.9777 27.9957 34.9735 27.9872 34.9659L27.5997 34.5707C27.5948 34.5663 27.5908 34.5609 27.5881 34.5549C27.5854 34.5489 27.584 34.5424 27.584 34.5358C27.584 34.5292 27.5854 34.5227 27.5881 34.5167C27.5908 34.5107 27.5948 34.5053 27.5997 34.5009C30.0582 32.7565 32.959 31.7412 35.9688 31.5718C35.9789 31.5765 35.9873 31.5843 35.9929 31.594C35.9984 31.6037 36.0008 31.6149 35.9998 31.626Z" fill="#E82934"/>
</svg>