<svg xmlns:xlink="http://www.w3.org/1999/xlink" xmlns="http://www.w3.org/2000/svg" width="445" height="341" viewBox="0 0 445 341" fill="none">
<g clip-path="url(#clip0)">
<g opacity="0.6">
<path opacity="0.1" d="M169.073 67.5674C178.985 58.6888 194.542 56.8686 208.705 57.5755C253.186 59.802 293.337 81.4112 328.069 105.858C340.644 114.706 353.022 124.244 361.182 136.431C377.809 161.24 372.868 195.607 349.768 216.045C341.906 222.998 332.378 228.338 322.596 233.054C305.202 241.455 286.435 248.199 266.694 250.129C252.619 251.494 238.368 250.385 224.371 248.476C185.272 243.128 146.899 231.326 114.722 211.138C100.614 202.283 87.3159 191.274 81.5001 176.955C75.6842 162.637 79.4065 144.47 93.8137 135.977C99.7721 132.47 106.898 130.885 113.871 129.397C124.138 127.208 134.569 125.049 143.832 120.6C153.404 116.004 164.734 107.115 162.833 96.9385C160.811 86.0349 159.176 76.446 169.073 67.5674Z" fill="#3D84A8"/>
<ellipse opacity="0.1" cx="119.975" cy="108.691" rx="10.2759" ry="10.2506" fill="#3D84A8"/>
<ellipse opacity="0.1" cx="100.892" cy="79.4034" rx="7.3399" ry="7.32187" fill="#3D84A8"/>
<ellipse opacity="0.1" cx="75.936" cy="104.298" rx="2.93596" ry="2.92875" fill="#3D84A8"/>
</g>
<path d="M137.691 108.822L253.803 83.8619L288.226 244.593L172.113 269.554L137.691 108.822Z" fill="#E0E0E0"/>
<g opacity="0.5">
<path d="M141.056 110.9L252.979 86.6918L286.159 242.579L174.237 266.788L141.056 110.9Z" fill="url(#paint0_linear)"/>
</g>
<path d="M141.907 111.954L251.239 88.4514L283.763 240.319L174.431 263.822L141.907 111.954Z" fill="#FAFAFA"/>
<path d="M168.188 99.4178L222.427 87.7583L225.246 100.921L171.007 112.581L168.188 99.4178Z" fill="url(#paint1_linear)"/>
<path fill-rule="evenodd" clip-rule="evenodd" d="M186.615 90.4523C185.657 86.0954 188.413 81.8214 192.769 80.9069C197.125 79.9925 201.422 82.7884 202.38 87.1453C203.338 91.5022 200.574 95.7762 196.226 96.6907C191.879 97.6052 187.573 94.8092 186.615 90.4523ZM190.524 91.5505C191.652 93.0881 193.62 93.806 195.503 93.3671C196.725 93.0972 197.787 92.3624 198.453 91.3254C199.119 90.2884 199.335 89.0347 199.053 87.8415C198.64 85.9931 197.124 84.5727 195.217 84.2474C193.31 83.9222 191.391 84.7566 190.361 86.3589C189.332 87.9611 189.396 90.0129 190.524 91.5505Z" fill="url(#paint2_linear)"/>
<path d="M168.638 98.7304L221.734 87.3165L224.429 99.8994L171.333 111.313L168.638 98.7304Z" fill="#00D09C"/>
<path fill-rule="evenodd" clip-rule="evenodd" d="M186.59 89.6031C185.739 85.6444 188.262 81.7466 192.224 80.8969C194.127 80.4889 196.114 80.8528 197.748 81.9087C199.382 82.9646 200.529 84.626 200.938 86.5272C201.787 90.4859 199.265 94.3836 195.303 95.2329C191.341 96.0823 187.44 93.5617 186.59 89.6031ZM190.278 90.476C191.25 91.8847 192.977 92.569 194.651 92.21C196.938 91.7198 198.394 89.4706 197.904 87.186C197.545 85.5126 196.212 84.22 194.527 83.9111C192.843 83.6022 191.138 84.3378 190.207 85.7749C189.277 87.2119 189.305 89.0674 190.278 90.476Z" fill="#00D09C"/>
<rect x="189.36" y="104.196" width="118.887" height="164.236" fill="#E0E0E0"/>
<g opacity="0.5">
<rect x="190.903" y="107.161" width="114.281" height="158.21" fill="url(#paint3_linear)"/>
</g>
<rect x="192.296" y="107.129" width="111.549" height="155.438" fill="white"/>
<rect x="220.183" y="101.263" width="55.7743" height="13.1975" fill="url(#paint4_linear)"/>
<path fill-rule="evenodd" clip-rule="evenodd" d="M240.73 96.1308C240.73 91.676 244.345 88.0657 248.803 88.0657C253.261 88.0657 256.876 91.676 256.876 96.1308C256.876 100.586 253.261 104.196 248.803 104.196C244.345 104.196 240.73 100.586 240.73 96.1308ZM244.317 97.9896C245.091 99.7245 246.865 100.829 248.803 100.785V100.762C251.397 100.732 253.478 98.662 253.459 96.1309C253.458 94.2388 252.284 92.5353 250.488 91.822C248.692 91.1086 246.632 91.5274 245.278 92.8814C243.923 94.2353 243.543 96.2547 244.317 97.9896Z" fill="url(#paint5_linear)"/>
<rect x="221.65" y="99.7966" width="54.3066" height="13.1975" fill="#00D09C"/>
<path fill-rule="evenodd" clip-rule="evenodd" d="M241.289 92.5918C242.425 89.852 245.101 88.0657 248.069 88.0657C252.122 88.0657 255.408 91.3483 255.408 95.3975C255.408 98.363 253.62 101.036 250.878 102.171C248.135 103.306 244.979 102.679 242.88 100.582C240.781 98.485 240.153 95.3315 241.289 92.5918ZM243.839 95.3976C243.839 97.7326 245.732 99.6264 248.069 99.6293V99.6161C249.193 99.6175 250.271 99.1727 251.067 98.3795C251.862 97.5863 252.309 96.5099 252.31 95.3871C252.304 93.0521 250.407 91.1631 248.069 91.166C245.732 91.1689 243.839 93.0626 243.839 95.3976Z" fill="#00D09C"/>
<g opacity="0.5">
<rect x="122.85" y="272.844" width="1.0034" height="5.68694" fill="#66E3C4"/>
<path d="M126.199 275.188V276.19H120.507V275.188H126.199Z" fill="#66E3C4"/>
</g>
<g opacity="0.5">
<rect x="241.686" y="71.9353" width="0.959778" height="5.68694" fill="#66E3C4"/>
<path d="M244.889 74.2761V75.2786H239.444V74.2761H244.889Z" fill="#66E3C4"/>
</g>
<path opacity="0.5" d="M328.437 282.399C327.873 282.154 327.583 281.526 327.762 280.939C327.776 280.896 327.785 280.851 327.788 280.805C327.804 280.539 327.644 280.293 327.393 280.201C327.142 280.108 326.86 280.191 326.699 280.404C326.672 280.441 326.649 280.48 326.631 280.522C326.386 281.085 325.757 281.375 325.169 281.196C325.126 281.182 325.081 281.173 325.035 281.17C324.768 281.154 324.523 281.314 324.43 281.565C324.338 281.815 324.42 282.097 324.634 282.258C324.67 282.285 324.71 282.308 324.752 282.326C325.315 282.571 325.605 283.199 325.426 283.786C325.412 283.83 325.404 283.875 325.4 283.92C325.384 284.187 325.545 284.432 325.796 284.525C326.046 284.617 326.328 284.535 326.489 284.321C326.517 284.285 326.539 284.245 326.557 284.203C326.803 283.64 327.431 283.351 328.019 283.529C328.063 283.543 328.108 283.552 328.153 283.556C328.42 283.572 328.666 283.411 328.758 283.161C328.851 282.91 328.768 282.628 328.555 282.468C328.518 282.44 328.478 282.417 328.437 282.399Z" fill="#4D8AF0"/>
<path opacity="0.5" d="M156.71 226.676C156.147 226.431 155.856 225.803 156.035 225.216C156.049 225.173 156.058 225.128 156.062 225.082C156.078 224.816 155.917 224.57 155.666 224.478C155.415 224.385 155.134 224.468 154.973 224.681C154.945 224.718 154.922 224.757 154.904 224.799C154.659 225.362 154.03 225.652 153.443 225.473C153.399 225.459 153.354 225.45 153.309 225.447C153.042 225.431 152.796 225.591 152.703 225.842C152.611 226.092 152.694 226.374 152.907 226.535C152.944 226.562 152.983 226.585 153.025 226.603C153.589 226.848 153.879 227.476 153.7 228.064C153.686 228.107 153.677 228.152 153.674 228.197C153.657 228.464 153.818 228.71 154.069 228.802C154.32 228.894 154.602 228.812 154.763 228.598C154.79 228.562 154.813 228.522 154.831 228.48C155.076 227.917 155.705 227.628 156.293 227.807C156.336 227.82 156.381 227.829 156.427 227.833C156.693 227.849 156.939 227.688 157.032 227.438C157.124 227.187 157.041 226.906 156.828 226.745C156.791 226.717 156.752 226.695 156.71 226.676Z" fill="#FDD835"/>
<path opacity="0.5" d="M299.081 90.302C298.518 90.0569 298.228 89.4288 298.407 88.8415C298.421 88.7981 298.429 88.7533 298.433 88.7078C298.449 88.4412 298.288 88.1955 298.037 88.1031C297.787 88.0107 297.505 88.0934 297.344 88.3067C297.316 88.3432 297.294 88.3828 297.275 88.4246C297.03 88.9876 296.402 89.2774 295.814 89.0985C295.77 89.0845 295.725 89.0757 295.68 89.0723C295.413 89.0562 295.167 89.2167 295.075 89.4673C294.982 89.718 295.065 89.9995 295.278 90.1604C295.315 90.1876 295.355 90.2105 295.396 90.2286C295.96 90.4736 296.25 91.1017 296.071 91.689C296.057 91.7324 296.048 91.7773 296.045 91.8227C296.029 92.0893 296.189 92.335 296.44 92.4274C296.691 92.5198 296.973 92.4371 297.134 92.2239C297.161 92.1873 297.184 92.1477 297.202 92.1059C297.447 91.543 298.076 91.2532 298.664 91.432C298.707 91.446 298.752 91.4548 298.798 91.4583C299.064 91.4743 299.31 91.3138 299.403 91.0632C299.495 90.8126 299.413 90.531 299.199 90.3701C299.163 90.3429 299.123 90.32 299.081 90.302Z" fill="#FDD835"/>
<ellipse opacity="0.5" cx="339.804" cy="157.719" rx="2.20162" ry="2.19959" fill="#F55F44"/>
<ellipse opacity="0.5" cx="181.288" cy="275.031" rx="2.20162" ry="2.19959" fill="#F55F44"/>
<ellipse opacity="0.5" cx="319.255" cy="201.711" rx="2.20162" ry="2.19959" fill="#F55F44"/>
<ellipse opacity="0.5" cx="143.126" cy="97.5971" rx="2.20162" ry="2.19959" fill="#4D8AF0"/>
<ellipse opacity="0.5" cx="121.11" cy="154.786" rx="2.20162" ry="2.19959" fill="#66E3C4"/>
</g>
<defs>
<linearGradient id="paint0_linear" x1="286.453" y1="242.71" x2="252.978" y2="86.6921" gradientUnits="userSpaceOnUse">
<stop stop-color="#808080" stop-opacity="0.25"/>
<stop offset="0.54" stop-color="#808080" stop-opacity="0.12"/>
<stop offset="1" stop-color="#808080" stop-opacity="0.1"/>
</linearGradient>
<linearGradient id="paint1_linear" x1="225.255" y1="100.941" x2="222.427" y2="87.7583" gradientUnits="userSpaceOnUse">
<stop stop-color="#808080" stop-opacity="0.25"/>
<stop offset="0.54" stop-color="#808080" stop-opacity="0.12"/>
<stop offset="1" stop-color="#808080" stop-opacity="0.1"/>
</linearGradient>
<linearGradient id="paint2_linear" x1="204.134" y1="94.9524" x2="200.675" y2="79.1674" gradientUnits="userSpaceOnUse">
<stop stop-color="#808080" stop-opacity="0.25"/>
<stop offset="0.54" stop-color="#808080" stop-opacity="0.12"/>
<stop offset="1" stop-color="#808080" stop-opacity="0.1"/>
</linearGradient>
<linearGradient id="paint3_linear" x1="305.183" y1="265.372" x2="305.183" y2="107.161" gradientUnits="userSpaceOnUse">
<stop stop-color="#808080" stop-opacity="0.25"/>
<stop offset="0.54" stop-color="#808080" stop-opacity="0.12"/>
<stop offset="1" stop-color="#808080" stop-opacity="0.1"/>
</linearGradient>
<linearGradient id="paint4_linear" x1="275.957" y1="114.461" x2="275.957" y2="101.263" gradientUnits="userSpaceOnUse">
<stop stop-color="#808080" stop-opacity="0.25"/>
<stop offset="0.54" stop-color="#808080" stop-opacity="0.12"/>
<stop offset="1" stop-color="#808080" stop-opacity="0.1"/>
</linearGradient>
<linearGradient id="paint5_linear" x1="256.876" y1="104.182" x2="256.876" y2="88.0519" gradientUnits="userSpaceOnUse">
<stop stop-color="#808080" stop-opacity="0.25"/>
<stop offset="0.54" stop-color="#808080" stop-opacity="0.12"/>
<stop offset="1" stop-color="#808080" stop-opacity="0.1"/>
</linearGradient>
<clipPath id="clip0">
<rect width="445" height="341" fill="white"/>
</clipPath>
</defs>
</svg>