<svg xmlns:xlink="http://www.w3.org/1999/xlink" xmlns="http://www.w3.org/2000/svg" width="291" height="242" viewBox="0 0 291 242">
    <g fill="none" fill-rule="evenodd">
        <path fill="#F0E8E8" d="M126.184 48.146v58.522h-9.189c-6.527 0-11.82-5.292-11.82-11.82v-34.88c0-6.53 5.293-11.822 11.82-11.822h9.189zm0 90.322h-5.075c.729 2.532 2.627 4.567 5.075 5.482v40.828H42.53c-5.525 0-10.008-4.48-10.008-10.008v-38.507c0-5.528 4.483-10.008 10.008-10.008h78.249v9.899c0 .394.028.782.084 1.16h5.32v1.154zm132.89-43.62v-34.88c0-6.53-5.295-11.822-11.822-11.822h-23.353v28.76c0 1.814-1.47 3.285-3.285 3.285v26.477h26.638c6.527 0 11.822-5.292 11.822-11.82z" opacity=".3"/>
        <path fill="#303131" d="M217.245 16.376l-1.117.562-.561-1.12c-1.518-3.037-5.21-4.266-8.243-2.749-2.153 1.077-3.4 3.245-3.4 5.5 0 .162.006.323.022.484.059.764.266 1.533.63 2.259l.558 1.12 5.494 10.99 9.986-4.991 1.008-.502 1.117-.559c3.037-1.516 4.268-5.208 2.751-8.242-1.517-3.037-5.208-4.269-8.245-2.752zm64.596 50.97c-4.69 0-8.509 3.818-8.509 8.508 0 4.69 3.819 8.506 8.51 8.506 4.69 0 8.505-3.815 8.505-8.506 0-4.69-3.815-8.509-8.506-8.509zm0 15.621c-3.924 0-7.116-3.192-7.116-7.113 0-3.924 3.192-7.116 7.116-7.116 3.921 0 7.114 3.192 7.114 7.116 0 3.921-3.193 7.113-7.114 7.113zm-95.252 35.316h2.77c1.663 0 3.01 1.346 3.01 3.009v4.823l-1.883-3.682c-.097-.186-.196-.366-.301-.54h-.003v-.002c-.069-.159-.14-.314-.215-.466-.493-1.008-1.154-1.908-2.124-2.507-.42-.257-.838-.471-1.254-.635zm-46.632 3.009v5.379c0 1.662 1.35 3.009 3.01 3.009h32.867c-.534-1.108-.803-2.293-.803-3.518 0-3.087 1.709-5.879 4.454-7.281.5-.254 1.014-.456 1.533-.598h-38.051c-1.66 0-3.01 1.346-3.01 3.009zM96.403 41.398L93.441 27.92l13.478-2.962 2.966 13.479-13.482 2.962zM95.1 28.98l2.367 10.762 10.758-2.367-2.367-10.759L95.1 28.98zM78.717 82.437l-.797.397-.4-.794c-1.08-2.162-3.707-3.04-5.87-1.958-1.532.767-2.42 2.312-2.42 3.915 0 .658.15 1.325.463 1.955l.397.797 3.915 7.827 7.827-3.912.797-.397c2.163-1.083 3.037-3.71 1.958-5.873-1.08-2.162-3.71-3.037-5.87-1.957zm-20.136 72.646c1.585.457 3.09.26 4.16-.549.23-.174.556-.13.726.1.174.226.13.552-.1.726-1.398 1.057-3.346 1.29-5.35.635-.087-.027-.174-.059-.26-.09-1.192.934-2.858 1.402-4.53 1.402h-.09c.546 1.62.81 3.472.81 5.57 0 5.434-.996 10.283-4.272 12.68v2.966c0 1.83-1.486 3.317-3.316 3.317-.4 0-.785-.072-1.142-.202-1.272-.465-2.178-1.685-2.178-3.115v-1.37H30.373v1.37c0 1.43-.905 2.65-2.177 3.115-.357.13-.739.202-1.142.202-1.83 0-3.316-1.486-3.316-3.317v-1.721c-3.959-.925-6.468-3.648-7.582-7.514l-3.378.487c-1.38-.025-2.296-9.03-.152-9.123.09-.006.18-.007.27-.003l2.937.052c.314-1.436.835-2.763 1.542-3.973.844-1.443 1.952-2.718 3.295-3.798l-1.902-4.74-.676-1.687c4.212-1.694 10.166-.965 12.045 2.494.602-.093 1.223-.17 1.853-.23.453-.04.908-.074 1.368-.099-.652.574-1.117 1.356-1.294 2.237-.053.26-.08.524-.08.8 0 .019 0 .034.002.053-.558.127-.995.263-1.3.372-.294.103-.465.177-.499.192-.155.068-.223.252-.155.41.068.155.255.227.41.155.002-.003.046-.022.123-.05.798-.31 5.358-1.88 11.432.063.031.009.065.015.096.015.13 0 .252-.084.295-.217.053-.161-.037-.335-.202-.388-.726-.233-1.43-.416-2.109-.558.003-.016.003-.031.003-.047 0-.276-.028-.54-.08-.8-.171-.85-.612-1.607-1.223-2.172.434.038.866.08 1.294.13 6.697.782 10.789 3.19 12.663 7.408 1.538.121 2.913-.235 3.924-.868-1.42-.785-2.49-1.967-2.87-3.233-.468-1.563-.093-2.965 1.009-3.744 1.033-.735 2.475-.729 3.505.019.642.465 2.026 1.914.974 5.304-.152.497-.39.94-.695 1.334zm-35.966 4.644c0-.93-.757-1.687-1.688-1.687-.933 0-1.69.756-1.69 1.687 0 .394.133.757.362 1.043.304.39.78.645 1.316.648h.012c.93 0 1.688-.757 1.688-1.69zm-5.063 10.417s1.467 2.327 2.277 1.902c.58-.307.803-1.241.58-3.05l-2.857 1.148zm37.23-18.271c.328 1.1 1.392 2.168 2.754 2.816.357-.375.61-.8.75-1.246.6-1.936.385-3.454-.592-4.16-.341-.246-.75-.37-1.16-.37-.4 0-.8.118-1.138.357-.73.521-.956 1.467-.615 2.603z"/>
        <path fill="#D2AB66" d="M220.614 80.19V35.909c.908 0 1.728.366 2.323.961.596.596.962 1.415.962 2.324v37.713c0 1.101-.54 2.075-1.371 2.67-.54.385-1.198.615-1.914.615zm50.81 118.68l4.052 7.017c1.048 1.815.428 4.14-1.39 5.188l-36.14 20.868c-1.818 1.048-4.142.425-5.19-1.393l-4.052-7.017c-1.048-1.815-.425-4.138 1.39-5.187l1.179-.682.502-.289.509-.295 31.866-18.396.502-.291.503-.292 1.082-.623c1.815-1.049 4.139-.425 5.187 1.392zM120.78 60.11v76.044c0 .394.028.782.084 1.16h58.87l-3.8-7.433c-.01-.017-.018-.034-.026-.05-.026-.05-.051-.1-.074-.151h-32.867c-1.66 0-3.01-1.347-3.01-3.01v-5.379c0-1.662 1.35-3.008 3.01-3.008h38.05c.76-.212 1.533-.308 2.296-.295 1.067-.248 2.162-.146 3.276.295h2.77c1.663 0 3.01 1.346 3.01 3.008v4.824l5.73 11.2h.694c3.583 0 6.5-2.914 6.5-6.5V52.281c0-.165-.007-.326-.022-.487-.04-.003-.084-.003-.125-.003h-76.043c-1.027 0-2.01.186-2.92.527-3.157 1.182-5.403 4.225-5.403 7.793zm59.546 78.358l3.07 6.01h-54.293c-1.027 0-2.01-.187-2.92-.528-2.447-.915-4.345-2.95-5.074-5.482h59.217zm26.12-86.187c0-.13-.003-.26-.009-.391 3.98.62 7.03 4.063 7.03 8.22v76.044c0 3.431-2.073 6.375-5.035 7.647-1.009.437-2.12.676-3.286.676h-3.384l-3.074-6.009h.105c4.219 0 7.653-3.434 7.653-7.653V52.281z"/>
        <path fill="#F0E8E8" d="M38.672 10.352c1.132 0 2.05-.918 2.05-2.05V2.05C40.722.918 39.804 0 38.672 0c-1.133 0-2.05.918-2.05 2.05v6.251c0 1.133.917 2.05 2.05 2.05zm7.755 2.078c.323.187.676.276 1.024.276.707 0 1.399-.369 1.777-1.026l3.124-5.414c.568-.98.233-2.233-.75-2.8-.98-.569-2.234-.23-2.802.75l-3.124 5.413c-.567.98-.23 2.237.751 2.801zm5.677 5.677c.378.658 1.07 1.027 1.778 1.027.347 0 .7-.09 1.023-.276l5.414-3.124c.98-.568 1.318-1.82.75-2.801-.567-.983-1.82-1.318-2.801-.75l-5.413 3.123c-.98.568-1.319 1.821-.751 2.801zm153.03 4.325l5.494 10.99 9.986-4.99V144.147c-.49.95-.794 2.002-.882 3.1-1.92-3.413-5.934-4.986-9.675-3.745-.41.134-.804.298-1.167.487l-.198.105-.106.056c-1.489.844-2.655 2.104-3.38 3.667-.314.68-.531 1.393-.652 2.119l-2.792-5.46h3.384c1.167 0 2.277-.239 3.286-.676 2.962-1.272 5.034-4.216 5.034-7.647V60.111c0-4.157-3.05-7.6-7.029-8.22-.205-4.04-3.555-7.26-7.644-7.26h-72.61V28.357c0-5.137 4.164-9.304 9.304-9.304h20.3c.221.035.447.053.677.053h33.87c.23 0 .455-.018.676-.053h12.936c.059.764.266 1.533.63 2.259l.558 1.12zm-7.318 175.846l-2.975-2.65h-1.272c-1.616 0-2.922-1.305-2.922-2.921v-.813l-4.362-3.887v4.7c0 1.616-1.306 2.922-2.919 2.922h-8.097c-1.613 0-2.919-1.306-2.919-2.922v-8.094c0-1.613 1.306-2.922 2.92-2.922h3.924l-1.84-1.638c-1.62-1.486-2.516-3.558-2.522-5.835-.01-2.265.86-4.464 2.444-6.192l.18-.19c1.554-1.612 3.586-2.599 5.749-2.785 1.06-.096 2.103.006 3.092.307 1.117.338 2.116.903 2.966 1.684l.05.047 10.377 9.241-16.293-31.853h-54.294c-1.027 0-2.01-.186-2.92-.527v35.024h9.062c.357 0 .645.288.645.641 0 .357-.288.646-.645.646h-9.061v27.05c0 5.138 4.163 9.304 9.303 9.304h75.827c3.725 0 6.939-2.19 8.422-5.354-4.78-.255-13.892-1.93-21.92-12.983zm-48.124-5.571c0 1.616-1.309 2.922-2.922 2.922h-8.094c-1.613 0-2.922-1.306-2.922-2.922v-8.094c0-1.613 1.31-2.922 2.922-2.922h8.094c1.613 0 2.922 1.309 2.922 2.922v8.094zm4.359-8.094c0-1.613 1.309-2.922 2.922-2.922h8.093c1.613 0 2.922 1.309 2.922 2.922v8.094c0 1.616-1.309 2.922-2.922 2.922h-8.093c-1.613 0-2.922-1.306-2.922-2.922v-8.094zm37.375 25.087h-36.054c-.316 0-.574-.257-.574-.577 0-.32.258-.577.574-.577h36.054c.316 0 .576.258.576.577 0 .32-.26.577-.576.577zm-174.05-52.972l-3.168-7.898c1.52-.609 3.09-.807 4.56-.64l1.902 4.74c-1.343 1.08-2.45 2.355-3.295 3.798zm12.997 21.795c0 1.43-.905 2.65-2.177 3.115.353.13.738.202 1.138.202 1.833 0 3.316-1.486 3.316-3.317v-1.37h-2.277v1.37zm12.666 0v-1.37h-2.277v1.37c0 1.83 1.483 3.317 3.317 3.317.4 0 .785-.072 1.138-.202-1.272-.465-2.178-1.684-2.178-3.115zM205.146 51.791c.04 0 .084 0 .125.003-.246-3.357-3.06-6.012-6.478-6.012h-72.61v6.536c.91-.341 1.893-.527 2.92-.527h76.043zM2.196 210.78h72.95c1.102 0 1.993.893 1.993 1.994 0 .553-.224 1.049-.584 1.409-.36.36-.86.583-1.408.583H2.197c-1.102 0-1.992-.89-1.992-1.992 0-.552.223-1.048.583-1.411.36-.36.86-.583 1.408-.583zM73.73 200.1H42.081c-.943 0-1.793.38-2.41.998-.618.617-1 1.47-1 2.41 0 1.884 1.527 3.41 3.41 3.41h31.648c.943 0 1.793-.382 2.41-1 .618-.617 1-1.47 1-2.41 0-1.882-1.527-3.409-3.41-3.409zM56.233 27.912c-1.132 0-2.05-.918-2.05-2.05 0-1.132.918-2.05 2.05-2.05h6.251c1.132 0 2.05.918 2.05 2.05 0 1.132-.918 2.05-2.05 2.05h-6.251zm-4.13 5.705c.565-.98 1.822-1.318 2.802-.75l5.414 3.123c.98.568 1.318 1.821.75 2.802-.378.66-1.07 1.027-1.777 1.027-.348 0-.701-.088-1.024-.277l-5.413-3.124c-.98-.567-1.319-1.82-.751-2.8zm-1.522 14.918c-.71 0-1.4-.369-1.78-1.026l-3.125-5.413c-.567-.98-.23-2.237.751-2.802.98-.568 2.233-.23 2.801.75l3.124 5.414c.568.98.233 2.234-.75 2.802-.323.186-.674.275-1.021.275zM29.927 109.96c1.594 2.552 5.93 4.619 9.684 4.619 3.751 0 5.498-2.067 3.903-4.62-1.597-2.55-5.931-4.619-9.685-4.619-3.75 0-5.5 2.07-3.902 4.62zm10.795-60.285c0 1.132-.918 2.05-2.05 2.05-1.133 0-2.05-.918-2.05-2.05v-6.251c0-1.132.917-2.05 2.05-2.05 1.132 0 2.05.918 2.05 2.05v6.251zm-4.69 97.982c1.057 0 2.022.407 2.745 1.077.611.564 1.052 1.321 1.223 2.171.052.26.08.524.08.8 0 .016 0 .031-.003.047.003.071 0 .143-.006.214-2.656-.313-5.401-.345-8.081-.096-.003-.037-.007-.075-.003-.112-.004-.019-.004-.034-.004-.053 0-.276.028-.54.081-.8.177-.88.642-1.663 1.294-2.237.713-.63 1.65-1.011 2.674-1.011zm1.579-60.762c1.157.527 1.693-1.294 1.203-4.07-.493-2.777-1.83-5.457-2.984-5.984-1.157-.53-1.697 1.29-1.204 4.067.49 2.776 1.828 5.457 2.985 5.987zm-7.718-74.189c-.708 0-1.396-.369-1.778-1.026l-3.124-5.414c-.567-.98-.233-2.233.75-2.8.981-.569 2.234-.23 2.802.75l3.124 5.413c.568.98.23 2.237-.75 2.801-.323.187-.677.276-1.024.276zm-4.151 35.555c.322.186.673.275 1.024.275.707 0 1.395-.369 1.777-1.026l3.124-5.413c.568-.98.23-2.237-.75-2.802-.981-.568-2.234-.23-2.802.75l-3.124 5.414c-.567.98-.233 2.234.75 2.802zm-3.304-29.403l-5.413-3.124c-.98-.568-1.319-1.82-.751-2.801.568-.983 1.821-1.318 2.801-.75l5.414 3.123c.98.568 1.318 1.821.75 2.801-.378.658-1.07 1.027-1.777 1.027-.348 0-.701-.09-1.024-.276zm2.801 14.76c-.564-.98-1.82-1.318-2.801-.75l-5.413 3.123c-.98.568-1.319 1.821-.751 2.802.382.66 1.07 1.027 1.777 1.027.348 0 .702-.088 1.024-.277l5.414-3.124c.98-.567 1.318-1.82.75-2.8zm-4.129-5.705h-6.25c-1.133 0-2.051-.918-2.051-2.05 0-1.132.918-2.05 2.05-2.05h6.251c1.132 0 2.05.918 2.05 2.05 0 1.132-.918 2.05-2.05 2.05zM3.614 206.917h9.114c.943 0 1.793-.381 2.41-.998.618-.618 1-1.47 1-2.41 0-1.883-1.527-3.41-3.41-3.41H3.614c-.943 0-1.793.382-2.41.999-.618.617-1 1.47-1 2.41 0 1.884 1.527 3.41 3.41 3.41zm36.367-74.187h30.808c3.616 0 6.554 2.94 6.554 6.554v48.983c0 3.614-2.938 6.555-6.554 6.555H6.555c-3.617 0-6.555-2.94-6.555-6.555v-48.983c0-3.614 2.938-6.554 6.555-6.554h25.528c.396-1.812 2.016-3.168 3.949-3.168 1.933 0 3.552 1.356 3.949 3.168zm30.808 61.683c3.39 0 6.145-2.758 6.145-6.146v-48.983c0-3.387-2.755-6.145-6.145-6.145H40.052c.019.155.028.313.028.471 0 2.234-1.812 4.049-4.048 4.049-2.237 0-4.049-1.815-4.049-4.049 0-.158.01-.316.028-.471H6.555c-3.391 0-6.145 2.758-6.145 6.145v48.983c0 3.388 2.754 6.146 6.145 6.146h64.234z"/>
        <path fill="#F0E8E8" fill-rule="nonzero" d="M289.556 89.584v38.507c0 5.529-4.482 10.008-10.007 10.008h-58.935V80.191c.716 0 1.374-.23 1.914-.614h57.02c5.526 0 10.008 4.48 10.008 10.007z" opacity=".3"/>
        <path fill="#FFF" d="M183.254 108.836c0 1.589 1.288 2.876 2.876 2.876 1.588 0 2.872-1.287 2.876-2.876v-8.76c0-1.589-1.288-2.876-2.876-2.876-1.588 0-2.876 1.287-2.876 2.876v8.76zm5.748 57.99v-8.761c0-1.589-1.284-2.876-2.872-2.876-1.588 0-2.876 1.287-2.876 2.876v7.56c.978-.09 1.952.003 2.876.285.999.3 1.936.816 2.742 1.558l.047.043c.056-.22.083-.45.083-.686zm-24.19-42.808c-.487 0-.983-.124-1.433-.384l-7.588-4.38c-1.374-.795-1.846-2.554-1.052-3.928s2.553-1.846 3.928-1.051l7.587 4.38c1.375.794 1.846 2.553 1.052 3.927-.534.922-1.501 1.436-2.494 1.436zm44.342 20.484c.354-.183.717-.332 1.083-.453l-1.356-.782c-1.374-.794-3.133-.322-3.927 1.052-.735 1.281-.382 2.885.775 3.741.69-1.483 1.856-2.754 3.425-3.558zm-51.924 8.512c-.993 0-1.96-.514-2.49-1.439-.795-1.374-.323-3.133 1.05-3.927l7.589-4.38c1.374-.795 3.133-.323 3.927 1.051.794 1.374.323 3.133-1.052 3.928l-7.59 4.38c-.454.263-.947.387-1.434.387zm47.727-30.435c.53.925 1.498 1.44 2.491 1.44.487 0 .98-.125 1.436-.388l7.588-4.38c1.375-.795 1.846-2.554 1.052-3.928s-2.553-1.846-3.927-1.051l-7.588 4.38c-1.375.794-1.846 2.553-1.052 3.927z" opacity=".6"/>
        <path fill="#000" d="M189.263 167.042c-.952-.875-2.09-1.48-3.328-1.787l-14.28-27.92c-2.618-5.118-.81-11.359 4.008-14.322-.087.205-.164.416-.232.63-.674 2.078-.494 4.293.499 6.238l23.76 46.449-10.427-9.288zm86.52 41.957l.806 1.396c.956 1.657 1.21 3.583.717 5.432-.497 1.846-1.682 3.39-3.338 4.346l-36.14 20.865c-1.09.63-2.324.962-3.577.962-2.55 0-4.927-1.374-6.201-3.58l-4.052-7.017c-.955-1.657-1.21-3.586-.716-5.432.335-1.247.983-2.358 1.88-3.239-1.412-1.57-2.79-2.438-3.953-2.453-.047 0-.097 0-.148-.002l-.171-.002-.804.004c-3.943 0-15.883 0-26.138-13.932l-20.273-18.058c-2.196-2.013-3.413-4.808-3.422-7.876-.012-2.963 1.117-5.836 3.177-8.081.68-.742 1.44-1.39 2.258-1.933-1.545 3.304-.986 7.225 1.669 9.654l20.462 18.225c9.496 13.079 20.4 13.05 24.507 13.029.27-.003.509-.003.72 0 3.313.047 6.157 3.133 8.227 6.357l-1.179.682c-1.815 1.049-2.438 3.372-1.39 5.187l4.052 7.017c1.048 1.818 3.372 2.441 5.19 1.393l36.14-20.868c.834-.481 1.414-1.232 1.697-2.076z" opacity=".1"/>
        <path fill="#000" d="M228.059 146.484c0-.698.565-1.266 1.262-1.266.702 0 1.266.568 1.266 1.266 0 .698-.564 1.266-1.266 1.266-.697 0-1.262-.568-1.262-1.266zm13.913-1.266c-.701 0-1.266.568-1.266 1.266 0 .698.565 1.266 1.266 1.266.698 0 1.263-.568 1.263-1.266 0-.698-.565-1.266-1.263-1.266zm3.161 3.162c-.263 0-.505.08-.707.217-.056.037-.109.084-.155.127l-.017.014c-.006.005-.01.01-.017.014-.112.112-.205.248-.267.4h-.003c-.065.152-.1.32-.1.493 0 .699.565 1.266 1.266 1.266.35 0 .664-.143.894-.372.226-.23.369-.546.369-.894 0-.698-.565-1.265-1.263-1.265zm1.896 4.426c0-.698.567-1.262 1.265-1.262s1.266.564 1.266 1.262c0 .702-.568 1.266-1.266 1.266-.698 0-1.265-.564-1.265-1.266zm4.427 8.221c.437 0 .822.224 1.048.559.093.136.158.288.192.452.016.084.025.168.025.255 0 .698-.568 1.266-1.265 1.266-.699 0-1.263-.568-1.263-1.266 0-.087.006-.17.025-.255.034-.164.099-.316.19-.452.225-.335.61-.559 1.048-.559zm1.898 17.074c0-.697.565-1.262 1.263-1.262.7 0 1.265.565 1.265 1.262 0 .702-.564 1.266-1.265 1.266-.698 0-1.263-.564-1.263-1.266zm0 6.326c0-.698.565-1.266 1.263-1.266.7 0 1.265.568 1.265 1.266 0 .698-.564 1.265-1.265 1.265-.698 0-1.263-.567-1.263-1.265zm1.263 5.06c-.698 0-1.263.564-1.263 1.262 0 .701.565 1.266 1.263 1.266.7 0 1.265-.565 1.265-1.266 0-.698-.564-1.263-1.265-1.263zm-2.113-15.254c-.226-.335-.611-.555-1.048-.555-.438 0-.823.22-1.049.555-.09.137-.155.289-.19.453-.018.084-.024.167-.024.254 0 .698.564 1.266 1.263 1.266.697 0 1.265-.568 1.265-1.266 0-.087-.01-.17-.025-.254-.034-.164-.099-.316-.192-.453zm-1.048 12.092c.437 0 .822.22 1.048.556.093.136.158.288.192.453.016.083.025.167.025.254 0 .698-.568 1.266-1.265 1.266-.699 0-1.263-.568-1.263-1.266 0-.087.006-.17.025-.254.034-.165.099-.317.19-.453.225-.336.61-.556 1.048-.556zm0-18.972c-.699 0-1.263.567-1.263 1.265s.564 1.263 1.263 1.263c.697 0 1.265-.565 1.265-1.263s-.568-1.265-1.265-1.265zm-1.263 13.913c0-.698.564-1.266 1.263-1.266.697 0 1.265.568 1.265 1.266 0 .698-.568 1.262-1.265 1.262-.699 0-1.263-.564-1.263-1.262zm1.263 11.381c-.699 0-1.263.568-1.263 1.266 0 .698.564 1.263 1.263 1.263.697 0 1.265-.565 1.265-1.263s-.568-1.266-1.265-1.266zm-3.162-34.78c-.698 0-1.265.567-1.265 1.265s.567 1.266 1.265 1.266 1.266-.568 1.266-1.266c0-.698-.568-1.266-1.266-1.266zm-1.265 7.587c0-.698.567-1.263 1.265-1.263s1.266.565 1.266 1.263c0 .701-.568 1.266-1.266 1.266-.698 0-1.265-.565-1.265-1.266zm1.265 5.06c-.698 0-1.265.567-1.265 1.266 0 .697.567 1.265 1.265 1.265s1.266-.568 1.266-1.265c0-.699-.568-1.266-1.266-1.266zm-1.265 7.587c0-.697.567-1.262 1.265-1.262s1.266.565 1.266 1.262c0 .702-.568 1.266-1.266 1.266-.698 0-1.265-.564-1.265-1.266zm1.265 5.06c-.698 0-1.265.568-1.265 1.266 0 .698.567 1.265 1.265 1.265s1.266-.567 1.266-1.265-.568-1.266-1.266-1.266zm-1.265 7.588c0-.698.567-1.263 1.265-1.263s1.266.565 1.266 1.263c0 .701-.568 1.266-1.266 1.266-.698 0-1.265-.565-1.265-1.266zm1.265 5.06c-.698 0-1.265.567-1.265 1.265 0 .699.567 1.266 1.265 1.266s1.266-.567 1.266-1.266c0-.698-.568-1.265-1.266-1.265zm-3.16-34.782c.434 0 .818.224 1.048.559.09.136.155.288.189.452.019.084.025.168.025.255 0 .698-.565 1.266-1.263 1.266-.7 0-1.265-.568-1.265-1.266 0-.087.009-.17.024-.255.035-.164.1-.316.193-.452.226-.335.61-.559 1.048-.559zm1.048 13.206c-.23-.335-.614-.555-1.049-.555-.437 0-.822.22-1.048.555-.093.137-.158.289-.193.453-.015.084-.024.167-.024.254 0 .698.564 1.266 1.265 1.266.698 0 1.263-.568 1.263-1.266 0-.087-.006-.17-.025-.254-.034-.164-.099-.316-.19-.453zm-1.049 24.74c.435 0 .82.22 1.049.555.09.137.155.289.189.453.019.084.025.168.025.255 0 .697-.565 1.265-1.263 1.265-.7 0-1.265-.568-1.265-1.265 0-.087.009-.171.024-.255.035-.164.1-.316.193-.453.226-.335.61-.555 1.048-.555zm-1.265-43.002c0-.702.564-1.266 1.265-1.266.698 0 1.263.564 1.263 1.266 0 .698-.565 1.262-1.263 1.262-.7 0-1.265-.564-1.265-1.262zm1.265 11.382c-.7 0-1.265.567-1.265 1.265s.564 1.263 1.265 1.263c.698 0 1.263-.565 1.263-1.263s-.565-1.265-1.263-1.265zm-1.265 26.56c0-.698.564-1.266 1.265-1.266.698 0 1.263.568 1.263 1.266 0 .698-.565 1.263-1.263 1.263-.7 0-1.265-.565-1.265-1.263zm-3.162-41.107c0-.698.565-1.262 1.263-1.262.701 0 1.266.564 1.266 1.262 0 .702-.565 1.266-1.266 1.266-.698 0-1.263-.564-1.263-1.266zm1.263 5.06c-.698 0-1.263.568-1.263 1.266 0 .698.565 1.266 1.263 1.266.701 0 1.266-.568 1.266-1.266 0-.698-.565-1.266-1.266-1.266zm-1.263 7.588c0-.698.565-1.263 1.263-1.263.701 0 1.266.565 1.266 1.263 0 .701-.565 1.266-1.266 1.266-.698 0-1.263-.565-1.263-1.266zm1.263 30.355c-.698 0-1.263.567-1.263 1.265 0 .699.565 1.266 1.263 1.266.701 0 1.266-.567 1.266-1.266 0-.698-.565-1.265-1.266-1.265zm-1.263 7.59c0-.7.565-1.265 1.263-1.265.701 0 1.266.565 1.266 1.266 0 .698-.565 1.262-1.266 1.262-.698 0-1.263-.564-1.263-1.262zm-1.898-55.02c-.26 0-.506.081-.707.218-.046.03-.088.068-.13.104l-.026.023-.015.014-.015.014c-.115.112-.205.248-.27.4-.066.152-.103.32-.103.493 0 .699.568 1.266 1.266 1.266.419 0 .788-.208 1.018-.521.003-.005.007-.01.012-.014.006-.007.013-.014.018-.023l.008-.014.008-.014c.127-.199.202-.428.202-.68 0-.086-.01-.173-.025-.254-.118-.577-.63-1.011-1.241-1.011zm0 12.648c.437 0 .822.224 1.048.559.094.136.159.288.193.452.015.084.025.168.025.255 0 .698-.568 1.266-1.266 1.266-.698 0-1.266-.568-1.266-1.266 0-.087.01-.17.028-.255.034-.164.1-.316.19-.452.226-.335.61-.559 1.048-.559zm1.048 38.501c-.226-.335-.61-.555-1.048-.555-.438 0-.822.22-1.049.555-.09.137-.155.289-.189.453-.018.084-.028.168-.028.255 0 .697.568 1.265 1.266 1.265.698 0 1.266-.568 1.266-1.265 0-.087-.01-.171-.025-.255-.034-.164-.1-.316-.193-.453zm-2.314-43.557c0-.702.568-1.266 1.266-1.266.698 0 1.266.564 1.266 1.266 0 .698-.568 1.262-1.266 1.262-.698 0-1.266-.564-1.266-1.262zm-1.895-4.427c-.698 0-1.266.564-1.266 1.262 0 .702.568 1.266 1.266 1.266.698 0 1.266-.564 1.266-1.266 0-.698-.568-1.262-1.266-1.262zm-3.869-2.947c.202-.137.444-.217.708-.217.698 0 1.262.567 1.262 1.265 0 .348-.14.664-.369.894-.23.23-.546.372-.893.372-.701 0-1.266-.567-1.266-1.266 0-.173.034-.34.1-.493h.003c.062-.152.154-.288.266-.4l.017-.014.017-.014c.047-.043.1-.09.155-.127zm22.839 24.448c.7 0 1.265-.568 1.265-1.265 0-.699-.564-1.266-1.265-1.266-.698 0-1.263.567-1.263 1.266 0 .697.565 1.265 1.263 1.265z" opacity=".3"/>
        <path fill="#303030" d="M155.788 19.053c.22.035.446.053.676.053h33.87c.23 0 .455-.018.676-.053 2.066-.325 3.65-2.118 3.65-4.274v-4.93h-7.643c-.32 0-.577.26-.577.577 0 .32.258.578.577.578h6.493v3.775c0 1.752-1.427 3.176-3.177 3.176h-33.869c-1.75 0-3.177-1.424-3.177-3.176v-3.775h25.29c.316 0 .576-.258.576-.578 0-.316-.26-.577-.577-.577h-26.44v4.93c0 2.156 1.585 3.949 3.652 4.274zm103.944 149.953c.391.925.58 1.895.565 2.882-.06 4.002.201 14.32 3.84 23.7.335.863.68 1.71 1.018 2.513l-.503.292-.502.291c-.36-.853-.73-1.758-1.086-2.68-3.713-9.567-3.98-20.065-3.921-24.135.015-.828-.143-1.638-.472-2.416l-11.518-27.256c-.714-1.38-1.917-2.401-3.394-2.879-1.483-.477-3.062-.353-4.448.357-2.581 1.322-3.791 4.275-2.88 7.026l-.527.22-.53.224-1.247-2.435c-.857-1.672-2.308-2.907-4.095-3.484-1.784-.577-3.685-.425-5.354.428-2.358 1.207-3.82 3.602-3.82 6.254 0 .785.128 1.557.382 2.29l-.626.27-.428.182-1.319-2.577c-1.563-3.06-5.196-4.554-8.45-3.478-.35.118-.686.257-.999.419-1.405.72-2.5 1.858-3.167 3.288-.558 1.213-.767 2.547-.596 3.86l.428 3.287-5.615-10.972-3.074-6.009-.59-1.154-4.755-9.294-.245-.484c.031.283.05.555.05.819.006.261-.007.512-.032.757-.145 1.433-.797 2.693-1.786 3.456-.8.617-1.756.869-2.702.869-1.036 0-2.063-.301-2.885-.76-1.297-.723-2.308-1.825-3.186-2.997-.224-.295-.438-.596-.646-.897-.142-.204-.285-.412-.425-.623-.078-.111-.154-.223-.231-.336l-.004-.005-.134-.196c-1.055-1.523-1.399-3.425-.946-5.218.254-1.005.735-1.898 1.402-2.627-.09.037-.176.08-.266.127-2.364 1.207-3.829 3.605-3.829 6.257 0 1.117.261 2.19.773 3.192l.168.326 3.905 7.634.59 1.154 3.074 6.01 18.824 36.803-15.04-13.392c-.716-.66-1.563-1.141-2.516-1.427-.847-.26-1.74-.347-2.655-.263-1.957.167-3.797 1.092-5.177 2.602l-.14.155c-1.303 1.493-2.013 3.35-2.007 5.255.006 1.955.77 3.726 2.144 4.986l2.8 2.494 5.358 4.774 4.362 3.884 5.928 5.28 2.103 1.873.034.05c7.951 10.975 16.979 12.39 21.468 12.573.667.028 1.231.028 1.678.028H223.062c3.83.056 6.988 3.45 9.222 6.927l-.509.295-.502.289c-2.07-3.224-4.914-6.31-8.227-6.357-.207-.003-.445-.003-.713-.003h-.004l-.471.003c-.55 0-1.266 0-2.122-.046-4.78-.255-13.892-1.93-21.92-12.983l-2.975-2.65-4.194-3.734-4.362-3.887-7.091-6.316-1.84-1.638c-1.62-1.486-2.516-3.558-2.522-5.835-.01-2.265.86-4.464 2.444-6.192l.18-.19c1.554-1.613 3.586-2.6 5.749-2.785 1.06-.096 2.103.006 3.093.307 1.116.338 2.115.903 2.965 1.684l.05.047 10.377 9.241-16.293-31.853-3.07-6.009H120.258c-4.22 0-7.65-3.434-7.65-7.653V52.281c0-4.22 3.43-7.65 7.65-7.65h78.535c4.088 0 7.438 3.22 7.643 7.26.006.13.01.26.01.39v78.534c0 4.22-3.435 7.653-7.654 7.653h-.105l3.074 6.01 2.792 5.459c.12-.726.338-1.44.651-2.119.726-1.563 1.892-2.823 3.382-3.667l.157-.084.147-.077c.362-.19.757-.353 1.166-.487 3.741-1.24 7.755.332 9.676 3.744.087-1.098.39-2.15.88-3.099.767-1.485 1.986-2.723 3.537-3.517 1.945-.996 4.16-1.173 6.239-.503 1.994.645 3.636 2 4.644 3.831.282-2.218 1.632-4.225 3.75-5.308 1.663-.85 3.555-1.002 5.333-.428 1.774.574 3.22 1.806 4.07 3.465l.018.04 11.528 27.278zm-69.116-39.6c.025-.133.047-.272.059-.412.096-.924-.044-1.957-.44-3.25-.063-.206-.125-.416-.187-.629l-.001-.005v-.003l-.051-.173-.011-.036c-.245-.836-.494-1.685-.818-2.456-.444-1.064-1.027-1.985-1.93-2.543-.961-.596-1.88-.89-2.773-.89-.341 0-.68.043-1.014.13-.314.08-.624.198-.931.356-1.272.652-2.168 1.784-2.525 3.192-.37 1.47-.087 3.032.776 4.282.127.18.25.363.372.543l.104.15v.001l.32.466c.367.527.748 1.058 1.164 1.55.664.795 1.409 1.505 2.28 1.992 1.241.692 3.059.956 4.325-.018.645-.496 1.101-1.3 1.28-2.246zm-.13-6.973l1.882 3.682 5.73 11.2h.695c3.583 0 6.5-2.913 6.5-6.5V52.281c0-.165-.007-.326-.022-.487-.246-3.357-3.06-6.012-6.478-6.012H120.26c-3.583 0-6.5 2.916-6.5 6.499v78.534c0 3.587 2.917 6.5 6.5 6.5H179.734l-3.8-7.434c-.01-.017-.018-.034-.026-.05v-.001l-.003-.005-.002-.003-.037-.074-.032-.068c-.534-1.108-.803-2.293-.803-3.518 0-3.087 1.709-5.879 4.454-7.281.5-.254 1.015-.456 1.533-.598.76-.212 1.532-.308 2.295-.295 1.067-.248 2.162-.146 3.276.295.416.164.835.378 1.254.635.97.6 1.631 1.499 2.124 2.507.075.152.146.307.215.465v.002l.001.001h.002c.105.174.204.354.3.54zm47.884-46.957h32.223c.356 0 .645.288.645.645 0 .357-.289.645-.645.645H238.37c-.356 0-.645-.288-.645-.645 0-.357.289-.645.645-.645zm-82.998 133.07h36.054c.316 0 .576.258.576.577 0 .32-.26.577-.576.577h-36.054c-.316 0-.574-.257-.574-.577 0-.32.258-.577.574-.577zm-20.127-29.573h-32.222c-.357 0-.645.289-.645.642 0 .357.288.646.645.646h32.222c.357 0 .645-.29.645-.646 0-.353-.288-.642-.645-.642zm-42.366 7.135H125.1c.357 0 .645.289.645.646 0 .353-.288.642-.645.642H92.88c-.357 0-.645-.289-.645-.642 0-.357.288-.646.645-.646zM42.186 152.31c-.726-.233-1.43-.415-2.109-.558.003.07 0 .143-.006.214-2.656-.313-5.401-.345-8.081-.096-.004-.037-.007-.075-.004-.112-.558.127-.995.264-1.3.372-.294.103-.465.177-.499.192-.155.069-.223.252-.155.41.068.155.255.227.41.155.002-.003.046-.022.123-.05.798-.31 5.358-1.88 11.432.063.031.009.065.015.096.015.13 0 .252-.084.295-.217.053-.161-.037-.335-.202-.388zm-22.95 7.417c0-.93.758-1.687 1.691-1.687.93 0 1.688.757 1.688 1.687 0 .934-.757 1.691-1.688 1.691h-.012c-.537-.003-1.012-.257-1.316-.648-.229-.286-.363-.649-.363-1.043z"/>
        <path fill="#000" d="M17.375 156.728l-3.167-7.898c1.52-.609 3.09-.807 4.56-.64l1.902 4.74c-1.343 1.08-2.45 2.355-3.295 3.798zm12.998 21.795c0 1.43-.905 2.65-2.177 3.115.353.13.738.202 1.138.202 1.833 0 3.316-1.486 3.316-3.317v-1.37h-2.277v1.37zm12.666 0v-1.37h-2.277v1.37c0 1.83 1.483 3.317 3.317 3.317.4 0 .785-.072 1.138-.202-1.272-.465-2.178-1.685-2.178-3.115z" opacity=".3"/>
        <path fill="#FFF" d="M175.27 181.691c-1.614 0-2.92 1.309-2.92 2.922v8.093c0 1.617 1.306 2.923 2.92 2.923h8.096c1.613 0 2.919-1.306 2.919-2.923v-4.7l-7.091-6.315h-3.925zm15.377 11.016c0 1.616 1.306 2.922 2.922 2.922h1.272l-4.194-3.735v.813zm-33.674-11.016h8.093c1.613 0 2.922 1.309 2.922 2.922v8.093c0 1.617-1.309 2.923-2.922 2.923h-8.093c-1.613 0-2.922-1.306-2.922-2.923v-8.093c0-1.613 1.309-2.922 2.922-2.922zm-10.203 0h-8.094c-1.613 0-2.922 1.309-2.922 2.922v8.093c0 1.617 1.31 2.923 2.922 2.923h8.094c1.613 0 2.922-1.306 2.922-2.923v-8.093c0-1.613-1.309-2.922-2.922-2.922zm-126.941-9.645c-.81.425-2.277-1.902-2.277-1.902l2.857-1.147c.223 1.808 0 2.742-.58 3.05z"/>
        <path fill="#292929" fill-rule="nonzero" d="M40.08 151.705c0 .087-.003.174-.01.26-2.655-.312-5.4-.344-8.08-.095-.007-.053-.007-.11-.007-.165 0-.276.028-.54.081-.8 1.191-.255 2.538-.4 3.968-.4 1.43 0 2.776.145 3.968.4.052.26.08.524.08.8z" opacity=".2"/>
        <path fill="#FFF" fill-rule="nonzero" d="M119.133 122.483V54.012c0-2.265 1.836-4.098 4.097-4.098h68.471c.664 0 .996.803.528 1.272l-71.825 71.824c-.468.469-1.271.137-1.271-.527z" opacity=".2"/>
        <path fill="#303030" d="M39.947 124.282c0-2.066 1.681-3.748 3.747-3.748h77.086V128.03H43.694c-2.066 0-3.747-1.68-3.747-3.747zm80.188-.645H42.093c-.356 0-.645.288-.645.645 0 .354.289.642.645.642h78.042v1.815h-76.44c-1.356 0-2.458-1.101-2.458-2.457 0-1.356 1.102-2.457 2.457-2.457h76.44v1.812z" opacity=".1"/>
        <g fill="#FFF" fill-rule="nonzero">
            <path d="M23.44 11.636c-1.587 0-3.048 1.223-3.324 2.783l-.784 4.374c-.174.979.478 1.916 1.457 2.092.108.018.215.028.32.028.855 0 1.616-.613 1.772-1.485l.75-4.188h4.904c.996 0 1.802-.806 1.802-1.802s-.806-1.802-1.802-1.802H23.44zM15.356 28.193h-5.095c-1.587 0-3.048 1.224-3.324 2.784l-.784 4.373c-.174.98.478 1.916 1.457 2.092.108.019.215.028.32.028.855 0 1.616-.613 1.772-1.484l.75-4.189h4.904c.995 0 1.802-.806 1.802-1.802 0-.995-.806-1.802-1.802-1.802z" transform="translate(138.6 61.6)"/>
            <path d="M54.518 39.916H30.314l1.898-10.596c.225-1.256 1.54-2.36 2.819-2.36h12.616c1.277 0 2.595 1.104 2.82 2.36l1.432 7.991c.176.98 1.106 1.63 2.092 1.457.98-.176 1.632-1.113 1.456-2.092l-1.432-7.992c-.534-2.988-3.331-5.328-6.367-5.328H17.134l1.898-10.596c.225-1.256 1.542-2.36 2.819-2.36h12.615c1.276 0 2.594 1.104 2.819 2.36l1.42 7.932c.176.98 1.112 1.629 2.092 1.457.98-.176 1.633-1.113 1.457-2.092l-1.42-7.932c-.535-2.988-3.332-5.328-6.368-5.328H21.85c-3.035 0-5.832 2.34-6.367 5.328l-2.012 11.231H8.673c-3.035 0-5.832 2.34-6.367 5.329L.029 41.4c-.095.525.048 1.065.391 1.474.343.409.85.645 1.382.645h52.716c.995 0 1.802-.805 1.802-1.801 0-.996-.806-1.802-1.802-1.802zm-50.563 0L5.853 29.32c.225-1.256 1.542-2.36 2.819-2.36h12.617c1.277 0 2.594 1.104 2.819 2.36l1.898 10.596H3.955zm24.205-8.42l-.503-2.812c-.109-.606-.312-1.185-.59-1.725h2.187c-.278.54-.481 1.119-.59 1.725l-.504 2.812zM40.869 6.892h1.45v1.445c0 .996.807 1.802 1.802 1.802.996 0 1.803-.806 1.803-1.802V6.892h1.444c.996 0 1.803-.806 1.803-1.802s-.807-1.802-1.803-1.802h-1.444V1.843c0-.995-.807-1.802-1.803-1.802-.995 0-1.803.807-1.803 1.802v1.445h-1.45c-.995 0-1.802.807-1.802 1.802 0 .996.807 1.802 1.803 1.802z" transform="translate(138.6 61.6)"/>
            <path d="M3.891 17.98h1.451v1.444c0 .996.807 1.802 1.802 1.802s1.802-.806 1.802-1.802v-1.445h1.445c.996 0 1.802-.806 1.802-1.802s-.806-1.802-1.802-1.802H8.946V12.93c0-.996-.807-1.802-1.802-1.802s-1.802.806-1.802 1.802v1.445h-1.45c-.995 0-1.803.806-1.803 1.802s.807 1.802 1.802 1.802zM36.62 28.193c-1.587 0-3.048 1.224-3.324 2.784l-.784 4.373c-.175.98.477 1.916 1.456 2.092.107.019.214.028.32.028.856 0 1.616-.613 1.773-1.484l.75-4.189h4.904c.996 0 1.802-.806 1.802-1.802 0-.995-.806-1.802-1.802-1.802H36.62z" transform="translate(138.6 61.6)"/>
        </g>
    </g>
</svg>