<svg xmlns:xlink="http://www.w3.org/1999/xlink" xmlns="http://www.w3.org/2000/svg" width="370" height="282" viewBox="0 0 370 282">
    <defs>
        <linearGradient id="a" x1="49.999%" x2="49.999%" y1="100%" y2="0%">
            <stop offset="0%" stop-color="gray" stop-opacity=".25"/>
            <stop offset="54%" stop-color="gray" stop-opacity=".12"/>
            <stop offset="100%" stop-color="gray" stop-opacity=".1"/>
        </linearGradient>
        <linearGradient id="b" x1="50%" x2="50%" y1="100%" y2="0%">
            <stop offset="0%" stop-color="gray" stop-opacity=".25"/>
            <stop offset="54%" stop-color="gray" stop-opacity=".12"/>
            <stop offset="100%" stop-color="gray" stop-opacity=".1"/>
        </linearGradient>
        <linearGradient id="c" x1="60.761%" x2="39.299%" y1="98.79%" y2="1.12%">
            <stop offset="0%" stop-color="gray" stop-opacity=".25"/>
            <stop offset="54%" stop-color="gray" stop-opacity=".12"/>
            <stop offset="100%" stop-color="gray" stop-opacity=".1"/>
        </linearGradient>
        <linearGradient id="d" x1="49.999%" x2="49.999%" y1="100%" y2="0%">
            <stop offset="0%" stop-color="gray" stop-opacity=".25"/>
            <stop offset="54%" stop-color="gray" stop-opacity=".12"/>
            <stop offset="100%" stop-color="gray" stop-opacity=".1"/>
        </linearGradient>
        <linearGradient id="e" x1="50%" x2="50%" y1="100%" y2="0%">
            <stop offset="0%" stop-color="gray" stop-opacity=".25"/>
            <stop offset="54%" stop-color="gray" stop-opacity=".12"/>
            <stop offset="100%" stop-color="gray" stop-opacity=".1"/>
        </linearGradient>
        <linearGradient id="f" x1="50%" x2="50%" y1="99.914%" y2="-.086%">
            <stop offset="0%" stop-color="gray" stop-opacity=".25"/>
            <stop offset="54%" stop-color="gray" stop-opacity=".12"/>
            <stop offset="100%" stop-color="gray" stop-opacity=".1"/>
        </linearGradient>
    </defs>
    <g fill="none" fill-rule="nonzero">
        <g fill="#3D84A8" opacity=".6">
            <path d="M119.286 12.577C131.592 1.553 150.908-.707 168.493.171c55.227 2.764 105.08 29.595 148.203 59.948 15.613 10.986 30.982 22.828 41.114 37.96 20.643 30.803 14.51 73.474-14.172 98.85-9.762 8.632-21.592 15.263-33.738 21.118-21.595 10.43-44.897 18.804-69.408 21.2-17.475 1.696-35.17.318-52.548-2.052-48.546-6.64-96.19-21.293-136.141-46.36-17.518-10.993-34.028-24.663-41.25-42.44-7.22-17.779-2.599-40.335 15.29-50.88 7.397-4.354 16.245-6.322 24.902-8.17 12.748-2.718 25.7-5.398 37.2-10.922 11.885-5.707 25.952-16.744 23.593-29.378-2.511-13.539-4.542-25.444 7.748-36.468z" opacity=".1"/>
            <ellipse cx="58.325" cy="63.636" opacity=".1" rx="12.759" ry="12.727"/>
            <ellipse cx="34.631" cy="27.273" opacity=".1" rx="9.113" ry="9.091"/>
            <ellipse cx="3.645" cy="58.182" opacity=".1" rx="3.645" ry="3.636"/>
        </g>
        <g transform="translate(57 18)">
            <path fill="#E0E0E0" d="M23.32 45.8l144.167-30.992 42.74 199.566L66.06 245.365z"/>
            <path fill="url(#a)" d="M20.14 13.094l142.178-.236-.325 197.888-142.177.235z" opacity=".5" transform="rotate(-12.11 190.144 -3.95)"/>
            <path fill="#FAFAFA" d="M28.556 49.688l135.748-29.181 40.383 188.56-135.748 29.181z"/>
            <path fill="url(#b)" d="M62.17 26.713l68.882-.027-.007 16.714-68.881.027z" transform="rotate(-12.11 96.608 35.056)"/>
            <path fill="url(#c)" d="M91.706 11.14c-5.409 1.135-8.83 6.441-7.64 11.851 1.189 5.41 6.534 8.881 11.932 7.746 5.399-1.136 8.831-6.443 7.641-11.852-1.19-5.41-6.524-8.881-11.933-7.746zM95.1 26.61c-2.338.545-4.781-.347-6.182-2.256a5.675 5.675 0 0 1-.202-6.446c1.278-1.989 3.66-3.025 6.029-2.621 2.367.404 4.25 2.167 4.763 4.462a5.606 5.606 0 0 1-.745 4.326A5.846 5.846 0 0 1 95.1 26.61z"/>
            <path fill="#6C63FF" d="M61.745 33.27l65.925-14.172 3.345 15.623-65.924 14.171z"/>
            <path fill="#6C63FF" d="M91.029 11.127c-4.92 1.055-8.051 5.894-6.995 10.81 1.055 4.915 5.899 8.044 10.818 6.99 4.92-1.055 8.051-5.894 6.996-10.81a9.102 9.102 0 0 0-3.96-5.734 9.116 9.116 0 0 0-6.859-1.256zm3.014 14.046a5.26 5.26 0 0 1-5.43-2.153 5.25 5.25 0 0 1-.088-5.837 5.26 5.26 0 0 1 9.556 1.753 5.254 5.254 0 0 1-4.038 6.237z"/>
            <path fill="#E0E0E0" d="M87.474 40.055h147.612v203.917H87.474z"/>
            <path fill="url(#d)" d="M.094.04h141.893v196.436H.094z" opacity=".5" transform="translate(89.296 43.697)"/>
            <path fill="#FFF" d="M91.118 43.697h138.5V236.69h-138.5z"/>
            <path fill="url(#e)" d="M125.743 36.414h69.25V52.8h-69.25z"/>
            <path fill="url(#f)" d="M161.28 20.028c-5.535 0-10.023 4.482-10.023 10.013 0 5.532 4.488 10.014 10.023 10.014 5.534 0 10.023-4.482 10.023-10.014 0-5.53-4.489-10.013-10.023-10.013zm0 15.791c-2.407.056-4.609-1.316-5.57-3.47a5.675 5.675 0 0 1 1.192-6.342c1.682-1.681 4.24-2.201 6.47-1.316 2.23.886 3.688 3.001 3.688 5.35.024 3.143-2.56 5.713-5.78 5.75v.028z"/>
            <path fill="#6C63FF" d="M127.566 34.593h67.428v16.386h-67.428z"/>
            <path fill="#6C63FF" d="M160.369 20.028a9.112 9.112 0 0 0-8.419 5.62 9.097 9.097 0 0 0 1.976 9.92 9.118 9.118 0 0 0 9.93 1.973 9.103 9.103 0 0 0 5.624-8.41c0-5.028-4.08-9.103-9.111-9.103zm0 14.357a5.256 5.256 0 0 1-5.253-5.254c0-2.9 2.35-5.25 5.253-5.254a5.256 5.256 0 0 1 5.265 5.24c0 1.395-.556 2.731-1.544 3.716a5.261 5.261 0 0 1-3.721 1.536v.016z"/>
            <g fill="#47E6B1" opacity=".5">
                <path d="M4.894 249.451H6.14v7.061H4.894z"/>
                <path d="M9.052 252.36v1.246H1.985v-1.245z"/>
            </g>
            <g fill="#47E6B1" opacity=".5">
                <path d="M152.442 0h1.192v7.061h-1.192z"/>
                <path d="M156.42 2.906v1.245h-6.76V2.906z"/>
            </g>
            <path fill="#4D8AF0" d="M260.153 261.315a1.5 1.5 0 0 1-.838-1.814.722.722 0 0 0 .033-.166.752.752 0 0 0-1.353-.498.723.723 0 0 0-.084.147 1.503 1.503 0 0 1-1.815.836.724.724 0 0 0-.166-.032.753.753 0 0 0-.499 1.35.724.724 0 0 0 .147.085 1.5 1.5 0 0 1 .837 1.814.722.722 0 0 0-.032.166.752.752 0 0 0 1.352.498.723.723 0 0 0 .085-.147 1.503 1.503 0 0 1 1.814-.836c.054.017.11.028.167.032a.753.753 0 0 0 .498-1.35.724.724 0 0 0-.146-.085z" opacity=".5"/>
            <path fill="#FDD835" d="M46.935 192.128a1.5 1.5 0 0 1-.837-1.813.722.722 0 0 0 .033-.166.752.752 0 0 0-1.353-.498.723.723 0 0 0-.084.146 1.503 1.503 0 0 1-1.815.837.724.724 0 0 0-.167-.032.753.753 0 0 0-.498 1.35.724.724 0 0 0 .147.085 1.5 1.5 0 0 1 .837 1.813.722.722 0 0 0-.033.167.752.752 0 0 0 1.353.498.723.723 0 0 0 .084-.147 1.503 1.503 0 0 1 1.815-.837c.054.018.11.029.167.033a.753.753 0 0 0 .498-1.351.724.724 0 0 0-.147-.085zM223.705 22.804a1.5 1.5 0 0 1-.837-1.813.722.722 0 0 0 .032-.166.752.752 0 0 0-1.352-.498.722.722 0 0 0-.085.146 1.503 1.503 0 0 1-1.815.837.724.724 0 0 0-.166-.033.753.753 0 0 0-.498 1.351.724.724 0 0 0 .146.085 1.5 1.5 0 0 1 .838 1.813.722.722 0 0 0-.033.166.752.752 0 0 0 1.352.498.723.723 0 0 0 .085-.146 1.503 1.503 0 0 1 1.815-.837c.054.018.11.029.166.033a.753.753 0 0 0 .499-1.351.724.724 0 0 0-.147-.085z" opacity=".5"/>
            <ellipse cx="274.266" cy="106.51" fill="#F55F44" opacity=".5" rx="2.734" ry="2.731"/>
            <ellipse cx="77.451" cy="252.166" fill="#F55F44" opacity=".5" rx="2.734" ry="2.731"/>
            <ellipse cx="248.753" cy="161.131" fill="#F55F44" opacity=".5" rx="2.734" ry="2.731"/>
            <ellipse cx="30.069" cy="31.862" fill="#4D8AF0" opacity=".5" rx="2.734" ry="2.731"/>
            <ellipse cx="2.734" cy="102.869" fill="#47E6B1" opacity=".5" rx="2.734" ry="2.731"/>
        </g>
    </g>
</svg>