<svg xmlns:xlink="http://www.w3.org/1999/xlink" version="1.1" class="highcharts-root" style="font-family:&quot;Lucida Grande&quot;, &quot;Lucida Sans Unicode&quot;, Arial, Helvetica, sans-serif;font-size:12px;overflow:visible;" xmlns="http://www.w3.org/2000/svg" width="100" height="25" viewBox="0 0 100 25"><desc>Created with Highstock 6.2.0</desc><defs><clipPath id="highcharts-0z4v3a5-2423"><rect x="0" y="0" width="100" height="21" fill="none"></rect></clipPath><clipPath id="highcharts-0z4v3a5-2502"><rect x="0" y="0" width="100" height="21" fill="none"></rect></clipPath></defs><rect fill="none" class="highcharts-background" x="0" y="0" width="100" height="25" rx="0" ry="0"></rect><rect fill="none" class="highcharts-plot-background" x="0" y="2" width="100" height="21"></rect><rect fill="none" class="highcharts-plot-border" data-z-index="1" x="0" y="2" width="100" height="21"></rect><g class="highcharts-series-group" data-z-index="3"><g data-z-index="0.1" class="highcharts-series highcharts-series-0 highcharts-line-series highcharts-color-0 " transform="translate(0,2) scale(1 1)" clip-path="url(#highcharts-0z4v3a5-2502)"><path fill="none" d="M 0 14.636363636363658 L 1.3157894736842 11.454545454545487 L 2.6315789473684 11.454545454545487 L 3.9473684210526 16.227272727272744 L 5.2631578947368 17.818181818181827 L 6.5789473684211 17.50000000000003 L 7.8947368421053 18.136363636363626 L 9.2105263157895 19.090909090909115 L 10.526315789474 17.818181818181827 L 11.842105263158 19.409090909090914 L 13.157894736842 19.727272727272712 L 14.473684210526 20.04545454545451 L 15.789473684211 17.818181818181827 L 17.105263157895 11.772727272727286 L 18.421052631579 7.318181818181829 L 19.736842105263 7.318181818181829 L 21.052631578947 2.227272727272773 L 22.368421052632 0.9545454545454852 L 23.684210526316 4.454545454545546 L 25 4.136363636363658 L 26.315789473684 5.409090909090944 L 27.631578947368 6.363636363636431 L 28.947368421053 6.363636363636431 L 30.263157894737 3.5000000000000604 L 31.578947368421 4.454545454545546 L 32.894736842105 2.5454545454545716 L 34.210526315789 0.9545454545454852 L 35.526315789474 1.5909090909091752 L 36.842105263158 3.818181818181859 L 38.157894736842 5.090909090909145 L 39.473684210526 6.045454545454632 L 40.789473684211 6.363636363636431 L 42.105263157895 5.409090909090944 L 43.421052631579 2.5454545454545716 L 44.736842105263 1.909090909090974 L 46.052631578947 5.090909090909145 L 47.368421052632 4.772727272727344 L 48.684210526316 3.818181818181859 L 50 5.727272727272743 L 51.315789473684 3.818181818181859 L 52.631578947368 4.136363636363658 L 53.947368421053 3.5000000000000604 L 55.263157894737 3.818181818181859 L 56.578947368421 4.136363636363658 L 57.894736842105 5.090909090909145 L 59.210526315789 6.363636363636431 L 60.526315789474 7.318181818181829 L 61.842105263158 5.727272727272743 L 63.157894736842 6.68181818181823 L 64.473684210526 7.636363636363718 L 65.789473684211 6.363636363636431 L 67.105263157895 6.363636363636431 L 68.421052631579 7.318181818181829 L 69.736842105263 9.545454545454602 L 71.052631578947 8.909090909090914 L 72.368421052632 9.227272727272803 L 73.684210526316 9.227272727272803 L 75 8.590909090909115 L 76.315789473684 8.909090909090914 L 77.631578947368 7.636363636363718 L 78.947368421053 8.590909090909115 L 80.263157894737 9.545454545454602 L 81.578947368421 9.863636363636402 L 82.894736842105 12.727272727272773 L 84.210526315789 11.136363636363688 L 85.526315789474 12.409090909090974 L 86.842105263158 14.31818181818186 L 88.157894736842 14.00000000000006 L 89.473684210526 14.31818181818186 L 90.789473684211 15.272727272727256 L 92.105263157895 15.272727272727256 L 93.421052631579 13.36363636363637 L 94.736842105263 14.00000000000006 L 96.052631578947 17.18181818181823 L 97.368421052632 17.18181818181823 L 98.684210526316 15.590909090909147 L 100 16.545454545454543" class="highcharts-graph" data-z-index="1" stroke="#EB5B3C" stroke-width="2px" stroke-linejoin="round" stroke-linecap="round"></path><path fill="none" d="M -10 14.636363636363658 L 0 14.636363636363658 L 1.3157894736842 11.454545454545487 L 2.6315789473684 11.454545454545487 L 3.9473684210526 16.227272727272744 L 5.2631578947368 17.818181818181827 L 6.5789473684211 17.50000000000003 L 7.8947368421053 18.136363636363626 L 9.2105263157895 19.090909090909115 L 10.526315789474 17.818181818181827 L 11.842105263158 19.409090909090914 L 13.157894736842 19.727272727272712 L 14.473684210526 20.04545454545451 L 15.789473684211 17.818181818181827 L 17.105263157895 11.772727272727286 L 18.421052631579 7.318181818181829 L 19.736842105263 7.318181818181829 L 21.052631578947 2.227272727272773 L 22.368421052632 0.9545454545454852 L 23.684210526316 4.454545454545546 L 25 4.136363636363658 L 26.315789473684 5.409090909090944 L 27.631578947368 6.363636363636431 L 28.947368421053 6.363636363636431 L 30.263157894737 3.5000000000000604 L 31.578947368421 4.454545454545546 L 32.894736842105 2.5454545454545716 L 34.210526315789 0.9545454545454852 L 35.526315789474 1.5909090909091752 L 36.842105263158 3.818181818181859 L 38.157894736842 5.090909090909145 L 39.473684210526 6.045454545454632 L 40.789473684211 6.363636363636431 L 42.105263157895 5.409090909090944 L 43.421052631579 2.5454545454545716 L 44.736842105263 1.909090909090974 L 46.052631578947 5.090909090909145 L 47.368421052632 4.772727272727344 L 48.684210526316 3.818181818181859 L 50 5.727272727272743 L 51.315789473684 3.818181818181859 L 52.631578947368 4.136363636363658 L 53.947368421053 3.5000000000000604 L 55.263157894737 3.818181818181859 L 56.578947368421 4.136363636363658 L 57.894736842105 5.090909090909145 L 59.210526315789 6.363636363636431 L 60.526315789474 7.318181818181829 L 61.842105263158 5.727272727272743 L 63.157894736842 6.68181818181823 L 64.473684210526 7.636363636363718 L 65.789473684211 6.363636363636431 L 67.105263157895 6.363636363636431 L 68.421052631579 7.318181818181829 L 69.736842105263 9.545454545454602 L 71.052631578947 8.909090909090914 L 72.368421052632 9.227272727272803 L 73.684210526316 9.227272727272803 L 75 8.590909090909115 L 76.315789473684 8.909090909090914 L 77.631578947368 7.636363636363718 L 78.947368421053 8.590909090909115 L 80.263157894737 9.545454545454602 L 81.578947368421 9.863636363636402 L 82.894736842105 12.727272727272773 L 84.210526315789 11.136363636363688 L 85.526315789474 12.409090909090974 L 86.842105263158 14.31818181818186 L 88.157894736842 14.00000000000006 L 89.473684210526 14.31818181818186 L 90.789473684211 15.272727272727256 L 92.105263157895 15.272727272727256 L 93.421052631579 13.36363636363637 L 94.736842105263 14.00000000000006 L 96.052631578947 17.18181818181823 L 97.368421052632 17.18181818181823 L 98.684210526316 15.590909090909147 L 100 16.545454545454543 L 110 16.545454545454543" stroke-linejoin="round" stroke="#C0C0C0" stroke-width="22px" visibility="visible" data-z-index="2" class="highcharts-tracker-line" stroke-opacity="0"></path></g><g data-z-index="0.1" class="highcharts-markers highcharts-series-0 highcharts-line-series highcharts-color-0 highcharts-tracker" transform="translate(0,2) scale(1 1)"></g><g data-z-index="0.1" class="highcharts-series highcharts-series-1 highcharts-line-series highcharts-color-1 " transform="translate(0,2) scale(1 1)" clip-path="url(#highcharts-0z4v3a5-2502)"><path fill="none" d="M 0 16.227272727272744 L 1.3157894736842 16.227272727272744 L 2.6315789473684 16.227272727272744 L 3.9473684210526 16.227272727272744 L 5.2631578947368 16.227272727272744 L 6.5789473684211 16.227272727272744 L 7.8947368421053 16.227272727272744 L 9.2105263157895 16.227272727272744 L 10.526315789474 16.227272727272744 L 11.842105263158 16.227272727272744 L 13.157894736842 16.227272727272744 L 14.473684210526 16.227272727272744 L 15.789473684211 16.227272727272744 L 17.105263157895 16.227272727272744 L 18.421052631579 16.227272727272744 L 19.736842105263 16.227272727272744 L 21.052631578947 16.227272727272744 L 22.368421052632 16.227272727272744 L 23.684210526316 16.227272727272744 L 25 16.227272727272744 L 26.315789473684 16.227272727272744 L 27.631578947368 16.227272727272744 L 28.947368421053 16.227272727272744 L 30.263157894737 16.227272727272744 L 31.578947368421 16.227272727272744 L 32.894736842105 16.227272727272744 L 34.210526315789 16.227272727272744 L 35.526315789474 16.227272727272744 L 36.842105263158 16.227272727272744 L 38.157894736842 16.227272727272744 L 39.473684210526 16.227272727272744 L 40.789473684211 16.227272727272744 L 42.105263157895 16.227272727272744 L 43.421052631579 16.227272727272744 L 44.736842105263 16.227272727272744 L 46.052631578947 16.227272727272744 L 47.368421052632 16.227272727272744 L 48.684210526316 16.227272727272744 L 50 16.227272727272744 L 51.315789473684 16.227272727272744 L 52.631578947368 16.227272727272744 L 53.947368421053 16.227272727272744 L 55.263157894737 16.227272727272744 L 56.578947368421 16.227272727272744 L 57.894736842105 16.227272727272744 L 59.210526315789 16.227272727272744 L 60.526315789474 16.227272727272744 L 61.842105263158 16.227272727272744 L 63.157894736842 16.227272727272744 L 64.473684210526 16.227272727272744 L 65.789473684211 16.227272727272744 L 67.105263157895 16.227272727272744 L 68.421052631579 16.227272727272744 L 69.736842105263 16.227272727272744 L 71.052631578947 16.227272727272744 L 72.368421052632 16.227272727272744 L 73.684210526316 16.227272727272744 L 75 16.227272727272744 L 76.315789473684 16.227272727272744 L 77.631578947368 16.227272727272744 L 78.947368421053 16.227272727272744 L 80.263157894737 16.227272727272744 L 81.578947368421 16.227272727272744 L 82.894736842105 16.227272727272744 L 84.210526315789 16.227272727272744 L 85.526315789474 16.227272727272744 L 86.842105263158 16.227272727272744 L 88.157894736842 16.227272727272744 L 89.473684210526 16.227272727272744 L 90.789473684211 16.227272727272744 L 92.105263157895 16.227272727272744 L 93.421052631579 16.227272727272744 L 94.736842105263 16.227272727272744 L 96.052631578947 16.227272727272744 L 97.368421052632 16.227272727272744 L 98.684210526316 16.227272727272744 L 100 16.227272727272744" class="highcharts-graph" data-z-index="1" stroke="#B3B6B9" stroke-width="1.5px" stroke-dasharray="1.5,1.5" stroke-opacity="0.63"></path><path fill="none" d="M -10 16.227272727272744 L 0 16.227272727272744 L 1.3157894736842 16.227272727272744 L 2.6315789473684 16.227272727272744 L 3.9473684210526 16.227272727272744 L 5.2631578947368 16.227272727272744 L 6.5789473684211 16.227272727272744 L 7.8947368421053 16.227272727272744 L 9.2105263157895 16.227272727272744 L 10.526315789474 16.227272727272744 L 11.842105263158 16.227272727272744 L 13.157894736842 16.227272727272744 L 14.473684210526 16.227272727272744 L 15.789473684211 16.227272727272744 L 17.105263157895 16.227272727272744 L 18.421052631579 16.227272727272744 L 19.736842105263 16.227272727272744 L 21.052631578947 16.227272727272744 L 22.368421052632 16.227272727272744 L 23.684210526316 16.227272727272744 L 25 16.227272727272744 L 26.315789473684 16.227272727272744 L 27.631578947368 16.227272727272744 L 28.947368421053 16.227272727272744 L 30.263157894737 16.227272727272744 L 31.578947368421 16.227272727272744 L 32.894736842105 16.227272727272744 L 34.210526315789 16.227272727272744 L 35.526315789474 16.227272727272744 L 36.842105263158 16.227272727272744 L 38.157894736842 16.227272727272744 L 39.473684210526 16.227272727272744 L 40.789473684211 16.227272727272744 L 42.105263157895 16.227272727272744 L 43.421052631579 16.227272727272744 L 44.736842105263 16.227272727272744 L 46.052631578947 16.227272727272744 L 47.368421052632 16.227272727272744 L 48.684210526316 16.227272727272744 L 50 16.227272727272744 L 51.315789473684 16.227272727272744 L 52.631578947368 16.227272727272744 L 53.947368421053 16.227272727272744 L 55.263157894737 16.227272727272744 L 56.578947368421 16.227272727272744 L 57.894736842105 16.227272727272744 L 59.210526315789 16.227272727272744 L 60.526315789474 16.227272727272744 L 61.842105263158 16.227272727272744 L 63.157894736842 16.227272727272744 L 64.473684210526 16.227272727272744 L 65.789473684211 16.227272727272744 L 67.105263157895 16.227272727272744 L 68.421052631579 16.227272727272744 L 69.736842105263 16.227272727272744 L 71.052631578947 16.227272727272744 L 72.368421052632 16.227272727272744 L 73.684210526316 16.227272727272744 L 75 16.227272727272744 L 76.315789473684 16.227272727272744 L 77.631578947368 16.227272727272744 L 78.947368421053 16.227272727272744 L 80.263157894737 16.227272727272744 L 81.578947368421 16.227272727272744 L 82.894736842105 16.227272727272744 L 84.210526315789 16.227272727272744 L 85.526315789474 16.227272727272744 L 86.842105263158 16.227272727272744 L 88.157894736842 16.227272727272744 L 89.473684210526 16.227272727272744 L 90.789473684211 16.227272727272744 L 92.105263157895 16.227272727272744 L 93.421052631579 16.227272727272744 L 94.736842105263 16.227272727272744 L 96.052631578947 16.227272727272744 L 97.368421052632 16.227272727272744 L 98.684210526316 16.227272727272744 L 100 16.227272727272744 L 110 16.227272727272744" stroke-linejoin="round" stroke="#C0C0C0" stroke-width="21.5px" visibility="visible" data-z-index="2" class="highcharts-tracker-line" stroke-opacity="0"></path></g><g data-z-index="0.1" class="highcharts-markers highcharts-series-1 highcharts-line-series highcharts-color-1 highcharts-tracker" transform="translate(0,2) scale(1 1)"></g></g><text x="50" text-anchor="middle" class="highcharts-title" data-z-index="4" style="color: rgb(51, 51, 51); font-size: 16px;" y="22" fill="#333333"></text><text x="50" text-anchor="middle" class="highcharts-subtitle" data-z-index="4" style="color: rgb(102, 102, 102);" y="24" fill="#666666"></text></svg>