<svg xmlns:xlink="http://www.w3.org/1999/xlink" version="1.1" class="highcharts-root" style="font-family:&quot;Lucida Grande&quot;, &quot;Lucida Sans Unicode&quot;, Arial, Helvetica, sans-serif;font-size:12px;overflow:visible;" xmlns="http://www.w3.org/2000/svg" width="100" height="25" viewBox="0 0 100 25"><desc>Created with Highstock 6.2.0</desc><defs><clipPath id="highcharts-0z4v3a5-1958"><rect x="0" y="0" width="100" height="21" fill="none"></rect></clipPath><clipPath id="highcharts-0z4v3a5-2036"><rect x="0" y="0" width="100" height="21" fill="none"></rect></clipPath></defs><rect fill="none" class="highcharts-background" x="0" y="0" width="100" height="25" rx="0" ry="0"></rect><rect fill="none" class="highcharts-plot-background" x="0" y="2" width="100" height="21"></rect><rect fill="none" class="highcharts-plot-border" data-z-index="1" x="0" y="2" width="100" height="21"></rect><g class="highcharts-series-group" data-z-index="3"><g data-z-index="0.1" class="highcharts-series highcharts-series-0 highcharts-line-series highcharts-color-0 " transform="translate(0,2) scale(1 1)" clip-path="url(#highcharts-0z4v3a5-2036)"><path fill="none" d="M 0 0.9545454545454994 L 1.3333333333333 9.694961664841202 L 2.6666666666667 4.05969331872954 L 4 4.2897042716319795 L 5.3333333333333 5.784775465498425 L 6.6666666666667 4.2897042716319795 L 8 3.944687842278256 L 9.3333333333333 4.864731653888274 L 10.666666666667 4.519715224534551 L 12 7.969879518072318 L 13.333333333333 7.509857612267309 L 14.666666666667 7.739868565169747 L 16 6.704819277108443 L 17.333333333333 3.024644030668238 L 18.666666666667 3.5996714129245326 L 20 4.519715224534551 L 21.333333333333 5.554764512595854 L 22.666666666667 7.279846659364738 L 24 6.014786418400863 L 25.333333333333 5.209748083242131 L 26.666666666667 6.014786418400863 L 28 6.474808324206004 L 29.333333333333 6.129791894852149 L 30.666666666667 4.864731653888274 L 32 4.174698795180827 L 33.333333333333 3.3696604600219615 L 34.666666666667 3.5996714129245326 L 36 2.794633077765667 L 37.333333333333 5.209748083242131 L 38.666666666667 5.66976998904714 L 40 7.164841182913452 L 41.333333333333 8.314895947426042 L 42.666666666667 6.589813800657158 L 44 7.3948521358160235 L 45.333333333333 6.129791894852149 L 46.666666666667 6.474808324206004 L 48 5.784775465498425 L 49.333333333333 6.474808324206004 L 50.666666666667 6.244797371303434 L 52 7.279846659364738 L 53.333333333333 6.819824753559729 L 54.666666666667 5.439759036144569 L 56 5.209748083242131 L 57.333333333333 6.014786418400863 L 58.666666666667 5.899780941949709 L 60 6.014786418400863 L 61.333333333333 6.819824753559729 L 62.666666666667 6.589813800657158 L 64 5.784775465498425 L 65.333333333333 6.589813800657158 L 66.666666666667 6.589813800657158 L 68 6.589813800657158 L 69.333333333333 6.244797371303434 L 70.666666666667 6.244797371303434 L 72 4.634720700985834 L 73.333333333333 4.9797371303395614 L 74.666666666667 4.404709748083267 L 76 3.944687842278256 L 77.333333333333 3.8296823658269723 L 78.666666666667 4.634720700985834 L 80 5.094742606790845 L 81.333333333333 5.439759036144569 L 82.666666666667 6.244797371303434 L 84 9.579956188389916 L 85.333333333333 11.99507119386638 L 86.666666666667 11.07502738225636 L 88 10.039978094194925 L 89.333333333333 10.039978094194925 L 90.666666666667 12.45509309967139 L 92 13.14512595837897 L 93.333333333333 13.030120481927684 L 94.666666666667 13.490142387732693 L 96 14.295180722891558 L 97.333333333333 20.045454545454504 L 98.666666666667 20.045454545454504 L 100 17.630339539978042" class="highcharts-graph" data-z-index="1" stroke="#EB5B3C" stroke-width="2px" stroke-linejoin="round" stroke-linecap="round"></path><path fill="none" d="M -10 0.9545454545454994 L 0 0.9545454545454994 L 1.3333333333333 9.694961664841202 L 2.6666666666667 4.05969331872954 L 4 4.2897042716319795 L 5.3333333333333 5.784775465498425 L 6.6666666666667 4.2897042716319795 L 8 3.944687842278256 L 9.3333333333333 4.864731653888274 L 10.666666666667 4.519715224534551 L 12 7.969879518072318 L 13.333333333333 7.509857612267309 L 14.666666666667 7.739868565169747 L 16 6.704819277108443 L 17.333333333333 3.024644030668238 L 18.666666666667 3.5996714129245326 L 20 4.519715224534551 L 21.333333333333 5.554764512595854 L 22.666666666667 7.279846659364738 L 24 6.014786418400863 L 25.333333333333 5.209748083242131 L 26.666666666667 6.014786418400863 L 28 6.474808324206004 L 29.333333333333 6.129791894852149 L 30.666666666667 4.864731653888274 L 32 4.174698795180827 L 33.333333333333 3.3696604600219615 L 34.666666666667 3.5996714129245326 L 36 2.794633077765667 L 37.333333333333 5.209748083242131 L 38.666666666667 5.66976998904714 L 40 7.164841182913452 L 41.333333333333 8.314895947426042 L 42.666666666667 6.589813800657158 L 44 7.3948521358160235 L 45.333333333333 6.129791894852149 L 46.666666666667 6.474808324206004 L 48 5.784775465498425 L 49.333333333333 6.474808324206004 L 50.666666666667 6.244797371303434 L 52 7.279846659364738 L 53.333333333333 6.819824753559729 L 54.666666666667 5.439759036144569 L 56 5.209748083242131 L 57.333333333333 6.014786418400863 L 58.666666666667 5.899780941949709 L 60 6.014786418400863 L 61.333333333333 6.819824753559729 L 62.666666666667 6.589813800657158 L 64 5.784775465498425 L 65.333333333333 6.589813800657158 L 66.666666666667 6.589813800657158 L 68 6.589813800657158 L 69.333333333333 6.244797371303434 L 70.666666666667 6.244797371303434 L 72 4.634720700985834 L 73.333333333333 4.9797371303395614 L 74.666666666667 4.404709748083267 L 76 3.944687842278256 L 77.333333333333 3.8296823658269723 L 78.666666666667 4.634720700985834 L 80 5.094742606790845 L 81.333333333333 5.439759036144569 L 82.666666666667 6.244797371303434 L 84 9.579956188389916 L 85.333333333333 11.99507119386638 L 86.666666666667 11.07502738225636 L 88 10.039978094194925 L 89.333333333333 10.039978094194925 L 90.666666666667 12.45509309967139 L 92 13.14512595837897 L 93.333333333333 13.030120481927684 L 94.666666666667 13.490142387732693 L 96 14.295180722891558 L 97.333333333333 20.045454545454504 L 98.666666666667 20.045454545454504 L 100 17.630339539978042 L 110 17.630339539978042" stroke-linejoin="round" stroke="#C0C0C0" stroke-width="22px" visibility="visible" data-z-index="2" class="highcharts-tracker-line" stroke-opacity="0"></path></g><g data-z-index="0.1" class="highcharts-markers highcharts-series-0 highcharts-line-series highcharts-color-0 highcharts-tracker" transform="translate(0,2) scale(1 1)"></g><g data-z-index="0.1" class="highcharts-series highcharts-series-1 highcharts-line-series highcharts-color-1 " transform="translate(0,2) scale(1 1)" clip-path="url(#highcharts-0z4v3a5-2036)"><path fill="none" d="M 0 11.535049288061371 L 1.3333333333333 11.535049288061371 L 2.6666666666667 11.535049288061371 L 4 11.535049288061371 L 5.3333333333333 11.535049288061371 L 6.6666666666667 11.535049288061371 L 8 11.535049288061371 L 9.3333333333333 11.535049288061371 L 10.666666666667 11.535049288061371 L 12 11.535049288061371 L 13.333333333333 11.535049288061371 L 14.666666666667 11.535049288061371 L 16 11.535049288061371 L 17.333333333333 11.535049288061371 L 18.666666666667 11.535049288061371 L 20 11.535049288061371 L 21.333333333333 11.535049288061371 L 22.666666666667 11.535049288061371 L 24 11.535049288061371 L 25.333333333333 11.535049288061371 L 26.666666666667 11.535049288061371 L 28 11.535049288061371 L 29.333333333333 11.535049288061371 L 30.666666666667 11.535049288061371 L 32 11.535049288061371 L 33.333333333333 11.535049288061371 L 34.666666666667 11.535049288061371 L 36 11.535049288061371 L 37.333333333333 11.535049288061371 L 38.666666666667 11.535049288061371 L 40 11.535049288061371 L 41.333333333333 11.535049288061371 L 42.666666666667 11.535049288061371 L 44 11.535049288061371 L 45.333333333333 11.535049288061371 L 46.666666666667 11.535049288061371 L 48 11.535049288061371 L 49.333333333333 11.535049288061371 L 50.666666666667 11.535049288061371 L 52 11.535049288061371 L 53.333333333333 11.535049288061371 L 54.666666666667 11.535049288061371 L 56 11.535049288061371 L 57.333333333333 11.535049288061371 L 58.666666666667 11.535049288061371 L 60 11.535049288061371 L 61.333333333333 11.535049288061371 L 62.666666666667 11.535049288061371 L 64 11.535049288061371 L 65.333333333333 11.535049288061371 L 66.666666666667 11.535049288061371 L 68 11.535049288061371 L 69.333333333333 11.535049288061371 L 70.666666666667 11.535049288061371 L 72 11.535049288061371 L 73.333333333333 11.535049288061371 L 74.666666666667 11.535049288061371 L 76 11.535049288061371 L 77.333333333333 11.535049288061371 L 78.666666666667 11.535049288061371 L 80 11.535049288061371 L 81.333333333333 11.535049288061371 L 82.666666666667 11.535049288061371 L 84 11.535049288061371 L 85.333333333333 11.535049288061371 L 86.666666666667 11.535049288061371 L 88 11.535049288061371 L 89.333333333333 11.535049288061371 L 90.666666666667 11.535049288061371 L 92 11.535049288061371 L 93.333333333333 11.535049288061371 L 94.666666666667 11.535049288061371 L 96 11.535049288061371 L 97.333333333333 11.535049288061371 L 98.666666666667 11.535049288061371 L 100 11.535049288061371" class="highcharts-graph" data-z-index="1" stroke="#B3B6B9" stroke-width="1.5px" stroke-dasharray="1.5,1.5" stroke-opacity="0.63"></path><path fill="none" d="M -10 11.535049288061371 L 0 11.535049288061371 L 1.3333333333333 11.535049288061371 L 2.6666666666667 11.535049288061371 L 4 11.535049288061371 L 5.3333333333333 11.535049288061371 L 6.6666666666667 11.535049288061371 L 8 11.535049288061371 L 9.3333333333333 11.535049288061371 L 10.666666666667 11.535049288061371 L 12 11.535049288061371 L 13.333333333333 11.535049288061371 L 14.666666666667 11.535049288061371 L 16 11.535049288061371 L 17.333333333333 11.535049288061371 L 18.666666666667 11.535049288061371 L 20 11.535049288061371 L 21.333333333333 11.535049288061371 L 22.666666666667 11.535049288061371 L 24 11.535049288061371 L 25.333333333333 11.535049288061371 L 26.666666666667 11.535049288061371 L 28 11.535049288061371 L 29.333333333333 11.535049288061371 L 30.666666666667 11.535049288061371 L 32 11.535049288061371 L 33.333333333333 11.535049288061371 L 34.666666666667 11.535049288061371 L 36 11.535049288061371 L 37.333333333333 11.535049288061371 L 38.666666666667 11.535049288061371 L 40 11.535049288061371 L 41.333333333333 11.535049288061371 L 42.666666666667 11.535049288061371 L 44 11.535049288061371 L 45.333333333333 11.535049288061371 L 46.666666666667 11.535049288061371 L 48 11.535049288061371 L 49.333333333333 11.535049288061371 L 50.666666666667 11.535049288061371 L 52 11.535049288061371 L 53.333333333333 11.535049288061371 L 54.666666666667 11.535049288061371 L 56 11.535049288061371 L 57.333333333333 11.535049288061371 L 58.666666666667 11.535049288061371 L 60 11.535049288061371 L 61.333333333333 11.535049288061371 L 62.666666666667 11.535049288061371 L 64 11.535049288061371 L 65.333333333333 11.535049288061371 L 66.666666666667 11.535049288061371 L 68 11.535049288061371 L 69.333333333333 11.535049288061371 L 70.666666666667 11.535049288061371 L 72 11.535049288061371 L 73.333333333333 11.535049288061371 L 74.666666666667 11.535049288061371 L 76 11.535049288061371 L 77.333333333333 11.535049288061371 L 78.666666666667 11.535049288061371 L 80 11.535049288061371 L 81.333333333333 11.535049288061371 L 82.666666666667 11.535049288061371 L 84 11.535049288061371 L 85.333333333333 11.535049288061371 L 86.666666666667 11.535049288061371 L 88 11.535049288061371 L 89.333333333333 11.535049288061371 L 90.666666666667 11.535049288061371 L 92 11.535049288061371 L 93.333333333333 11.535049288061371 L 94.666666666667 11.535049288061371 L 96 11.535049288061371 L 97.333333333333 11.535049288061371 L 98.666666666667 11.535049288061371 L 100 11.535049288061371 L 110 11.535049288061371" stroke-linejoin="round" stroke="#C0C0C0" stroke-width="21.5px" visibility="visible" data-z-index="2" class="highcharts-tracker-line" stroke-opacity="0"></path></g><g data-z-index="0.1" class="highcharts-markers highcharts-series-1 highcharts-line-series highcharts-color-1 highcharts-tracker" transform="translate(0,2) scale(1 1)"></g></g><text x="50" text-anchor="middle" class="highcharts-title" data-z-index="4" style="color: rgb(51, 51, 51); font-size: 16px;" y="22" fill="#333333"></text><text x="50" text-anchor="middle" class="highcharts-subtitle" data-z-index="4" style="color: rgb(102, 102, 102);" y="24" fill="#666666"></text></svg>