<svg xmlns:xlink="http://www.w3.org/1999/xlink" class="profileIcon" xmlns="http://www.w3.org/2000/svg" width="12" height="11" viewBox="0 0 12 11"><path fill="#44475B" d="M6.35000014,10.1946015 C6.46119806,10.1946015 6.55651056,10.154888 6.63593765,10.0754609 L8.49453144,8.21686708 C8.58190124,8.13744 8.62558613,8.0421275 8.62558613,7.93092958 C8.62558613,7.81973166 8.58388691,7.72243348 8.50048847,7.63903504 C8.41709004,7.5556366 8.31979186,7.51393738 8.20859394,7.51393738 C8.09739602,7.51393738 8.00208352,7.55762228 7.92265643,7.64499207 L6.76699234,8.7887421 L6.76699234,1.91432787 C6.76699234,1.79518725 6.72529312,1.69590339 6.64189468,1.6164763 C6.55849624,1.53704922 6.46119806,1.49733568 6.35000014,1.49733568 C6.23880222,1.49733568 6.14348972,1.53704922 6.06406264,1.6164763 C5.98463555,1.69590339 5.94492201,1.79518725 5.94492201,1.91432787 L5.94492201,8.7887421 L4.78925792,7.63307801 C4.70188813,7.55365092 4.60260427,7.51393738 4.49140635,7.51393738 C4.38020843,7.51393738 4.28489593,7.5556366 4.20546884,7.63903504 C4.12604176,7.72243348 4.08632821,7.81973166 4.08632821,7.93092958 C4.08632821,8.0421275 4.12604176,8.13744 4.20546884,8.21686708 L6.06406264,10.0754609 C6.14348972,10.154888 6.23880222,10.1946015 6.35000014,10.1946015 Z M10.9369143,12.1723359 C11.1434247,12.1723359 11.3181643,12.0988659 11.4611331,11.9519258 C11.6041018,11.8049857 11.6755862,11.6322317 11.6755862,11.433664 L11.6755862,8.77682804 C11.6755862,8.66563012 11.6358727,8.57031761 11.5564456,8.49089053 C11.4770185,8.40352073 11.3797203,8.35983584 11.264551,8.35983584 C11.1493818,8.35983584 11.0520836,8.40153506 10.9726565,8.4849335 C10.8932294,8.56833194 10.8535159,8.66563012 10.8535159,8.77682804 L10.8535159,11.1000703 C10.8535159,11.1715547 10.8296877,11.231125 10.7820315,11.2787812 C10.7343752,11.3264375 10.6748049,11.3502656 10.6033206,11.3502656 L2.07285161,11.3502656 C2.00136723,11.3502656 1.94179691,11.3264375 1.89414066,11.2787812 C1.84648441,11.231125 1.82265629,11.1715547 1.82265629,11.1000703 L1.82265629,8.77682804 C1.82265629,8.66563012 1.78294274,8.56833194 1.70351566,8.4849335 C1.62408857,8.40153506 1.52679039,8.35983584 1.41162112,8.35983584 C1.29645185,8.35983584 1.19915367,8.40153506 1.11972658,8.4849335 C1.0402995,8.56833194 1.00058596,8.66563012 1.00058596,8.77682804 L1.00058596,11.433664 C1.00058596,11.6401745 1.07207033,11.814914 1.21503909,11.9578828 C1.35800784,12.1008516 1.53274743,12.1723359 1.73925785,12.1723359 L10.9369143,12.1723359 Z" opacity=".7" transform="matrix(0 1 1 0 -1 -1)"></path></svg>