<svg xmlns:xlink="http://www.w3.org/1999/xlink" version="1.1" class="highcharts-root" style="font-family:&quot;Lucida Grande&quot;, &quot;Lucida Sans Unicode&quot;, Arial, Helvetica, sans-serif;font-size:12px;overflow:visible;" xmlns="http://www.w3.org/2000/svg" width="100" height="25" viewBox="0 0 100 25"><desc>Created with Highstock 6.2.0</desc><defs><clipPath id="highcharts-0z4v3a5-2270"><rect x="0" y="0" width="100" height="21" fill="none"></rect></clipPath><clipPath id="highcharts-0z4v3a5-2346"><rect x="0" y="0" width="100" height="21" fill="none"></rect></clipPath></defs><rect fill="none" class="highcharts-background" x="0" y="0" width="100" height="25" rx="0" ry="0"></rect><rect fill="none" class="highcharts-plot-background" x="0" y="2" width="100" height="21"></rect><rect fill="none" class="highcharts-plot-border" data-z-index="1" x="0" y="2" width="100" height="21"></rect><g class="highcharts-series-group" data-z-index="3"><g data-z-index="0.1" class="highcharts-series highcharts-series-0 highcharts-line-series highcharts-color-0 " transform="translate(0,2) scale(1 1)" clip-path="url(#highcharts-0z4v3a5-2346)"><path fill="none" d="M 0 15.838983050847421 L 1.3513513513514 14.221109399075559 L 2.7027027027027 14.221109399075559 L 4.0540540540541 18.10400616332817 L 5.4054054054054 19.074730354391377 L 6.7567567567568 14.544684129429886 L 8.1081081081081 15.19183359013877 L 9.4594594594595 10.661787365177277 L 10.810810810811 8.396764252696533 L 12.162162162162 7.102465331278996 L 13.513513513514 2.2488443759629497 L 14.864864864865 0.9545454545454142 L 16.216216216216 3.543143297380716 L 17.567567567568 2.572419106317504 L 18.918918918919 3.543143297380716 L 20.27027027027 4.837442218798252 L 21.621621621622 4.513867488443694 L 22.972972972973 3.8667180277350397 L 24.324324324324 6.131741140215787 L 25.675675675676 7.74961479198765 L 27.027027027027 8.720338983050858 L 28.378378378378 7.102465331278996 L 29.72972972973 9.691063174114069 L 31.081081081081 6.455315870570113 L 32.432432432432 9.691063174114069 L 33.783783783784 10.661787365177277 L 35.135135135135 9.691063174114069 L 36.486486486486 9.367488443759742 L 37.837837837838 11.632511556240487 L 39.189189189189 13.25038520801235 L 40.540540540541 13.25038520801235 L 41.891891891892 11.632511556240487 L 43.243243243243 12.926810477658023 L 44.594594594595 11.308936825885931 L 45.945945945946 11.308936825885931 L 47.297297297297 9.367488443759742 L 48.648648648649 10.338212634822721 L 50 10.338212634822721 L 51.351351351351 10.014637904468396 L 52.702702702703 7.74961479198765 L 54.054054054054 10.014637904468396 L 55.405405405405 10.014637904468396 L 56.756756756757 10.014637904468396 L 58.108108108108 10.338212634822721 L 59.459459459459 10.014637904468396 L 60.810810810811 10.338212634822721 L 62.162162162162 10.014637904468396 L 63.513513513514 10.014637904468396 L 64.864864864865 10.014637904468396 L 66.216216216216 9.691063174114069 L 67.567567567568 9.043913713405185 L 68.918918918919 9.367488443759742 L 70.27027027027 8.073189522342206 L 71.621621621622 7.74961479198765 L 72.972972972973 8.073189522342206 L 74.324324324324 7.426040061633323 L 75.675675675676 6.455315870570113 L 77.027027027027 9.043913713405185 L 78.378378378378 7.102465331278996 L 79.72972972973 7.102465331278996 L 81.081081081081 9.043913713405185 L 82.432432432432 7.426040061633323 L 83.783783783784 9.367488443759742 L 85.135135135135 8.073189522342206 L 86.486486486486 8.396764252696533 L 87.837837837838 8.720338983050858 L 89.189189189189 7.426040061633323 L 90.540540540541 7.426040061633323 L 91.891891891892 7.74961479198765 L 93.243243243243 10.014637904468396 L 94.594594594595 10.014637904468396 L 95.945945945946 10.014637904468396 L 97.297297297297 7.74961479198765 L 98.648648648649 10.338212634822721" class="highcharts-graph" data-z-index="1" stroke="#00D09C" stroke-width="2px" stroke-linejoin="round" stroke-linecap="round"></path><path fill="none" d="M -10 15.838983050847421 L 0 15.838983050847421 L 1.3513513513514 14.221109399075559 L 2.7027027027027 14.221109399075559 L 4.0540540540541 18.10400616332817 L 5.4054054054054 19.074730354391377 L 6.7567567567568 14.544684129429886 L 8.1081081081081 15.19183359013877 L 9.4594594594595 10.661787365177277 L 10.810810810811 8.396764252696533 L 12.162162162162 7.102465331278996 L 13.513513513514 2.2488443759629497 L 14.864864864865 0.9545454545454142 L 16.216216216216 3.543143297380716 L 17.567567567568 2.572419106317504 L 18.918918918919 3.543143297380716 L 20.27027027027 4.837442218798252 L 21.621621621622 4.513867488443694 L 22.972972972973 3.8667180277350397 L 24.324324324324 6.131741140215787 L 25.675675675676 7.74961479198765 L 27.027027027027 8.720338983050858 L 28.378378378378 7.102465331278996 L 29.72972972973 9.691063174114069 L 31.081081081081 6.455315870570113 L 32.432432432432 9.691063174114069 L 33.783783783784 10.661787365177277 L 35.135135135135 9.691063174114069 L 36.486486486486 9.367488443759742 L 37.837837837838 11.632511556240487 L 39.189189189189 13.25038520801235 L 40.540540540541 13.25038520801235 L 41.891891891892 11.632511556240487 L 43.243243243243 12.926810477658023 L 44.594594594595 11.308936825885931 L 45.945945945946 11.308936825885931 L 47.297297297297 9.367488443759742 L 48.648648648649 10.338212634822721 L 50 10.338212634822721 L 51.351351351351 10.014637904468396 L 52.702702702703 7.74961479198765 L 54.054054054054 10.014637904468396 L 55.405405405405 10.014637904468396 L 56.756756756757 10.014637904468396 L 58.108108108108 10.338212634822721 L 59.459459459459 10.014637904468396 L 60.810810810811 10.338212634822721 L 62.162162162162 10.014637904468396 L 63.513513513514 10.014637904468396 L 64.864864864865 10.014637904468396 L 66.216216216216 9.691063174114069 L 67.567567567568 9.043913713405185 L 68.918918918919 9.367488443759742 L 70.27027027027 8.073189522342206 L 71.621621621622 7.74961479198765 L 72.972972972973 8.073189522342206 L 74.324324324324 7.426040061633323 L 75.675675675676 6.455315870570113 L 77.027027027027 9.043913713405185 L 78.378378378378 7.102465331278996 L 79.72972972973 7.102465331278996 L 81.081081081081 9.043913713405185 L 82.432432432432 7.426040061633323 L 83.783783783784 9.367488443759742 L 85.135135135135 8.073189522342206 L 86.486486486486 8.396764252696533 L 87.837837837838 8.720338983050858 L 89.189189189189 7.426040061633323 L 90.540540540541 7.426040061633323 L 91.891891891892 7.74961479198765 L 93.243243243243 10.014637904468396 L 94.594594594595 10.014637904468396 L 95.945945945946 10.014637904468396 L 97.297297297297 7.74961479198765 L 98.648648648649 10.338212634822721 L 108.648648648649 10.338212634822721" stroke-linejoin="round" stroke="#C0C0C0" stroke-width="22px" visibility="visible" data-z-index="2" class="highcharts-tracker-line" stroke-opacity="0"></path></g><g data-z-index="0.1" class="highcharts-markers highcharts-series-0 highcharts-line-series highcharts-color-0 highcharts-tracker" transform="translate(0,2) scale(1 1)"></g><g data-z-index="0.1" class="highcharts-series highcharts-series-1 highcharts-line-series highcharts-color-1 " transform="translate(0,2) scale(1 1)" clip-path="url(#highcharts-0z4v3a5-2346)"><path fill="none" d="M 0 20.045454545454586 L 1.3513513513514 20.045454545454586 L 2.7027027027027 20.045454545454586 L 4.0540540540541 20.045454545454586 L 5.4054054054054 20.045454545454586 L 6.7567567567568 20.045454545454586 L 8.1081081081081 20.045454545454586 L 9.4594594594595 20.045454545454586 L 10.810810810811 20.045454545454586 L 12.162162162162 20.045454545454586 L 13.513513513514 20.045454545454586 L 14.864864864865 20.045454545454586 L 16.216216216216 20.045454545454586 L 17.567567567568 20.045454545454586 L 18.918918918919 20.045454545454586 L 20.27027027027 20.045454545454586 L 21.621621621622 20.045454545454586 L 22.972972972973 20.045454545454586 L 24.324324324324 20.045454545454586 L 25.675675675676 20.045454545454586 L 27.027027027027 20.045454545454586 L 28.378378378378 20.045454545454586 L 29.72972972973 20.045454545454586 L 31.081081081081 20.045454545454586 L 32.432432432432 20.045454545454586 L 33.783783783784 20.045454545454586 L 35.135135135135 20.045454545454586 L 36.486486486486 20.045454545454586 L 37.837837837838 20.045454545454586 L 39.189189189189 20.045454545454586 L 40.540540540541 20.045454545454586 L 41.891891891892 20.045454545454586 L 43.243243243243 20.045454545454586 L 44.594594594595 20.045454545454586 L 45.945945945946 20.045454545454586 L 47.297297297297 20.045454545454586 L 48.648648648649 20.045454545454586 L 50 20.045454545454586 L 51.351351351351 20.045454545454586 L 52.702702702703 20.045454545454586 L 54.054054054054 20.045454545454586 L 55.405405405405 20.045454545454586 L 56.756756756757 20.045454545454586 L 58.108108108108 20.045454545454586 L 59.459459459459 20.045454545454586 L 60.810810810811 20.045454545454586 L 62.162162162162 20.045454545454586 L 63.513513513514 20.045454545454586 L 64.864864864865 20.045454545454586 L 66.216216216216 20.045454545454586 L 67.567567567568 20.045454545454586 L 68.918918918919 20.045454545454586 L 70.27027027027 20.045454545454586 L 71.621621621622 20.045454545454586 L 72.972972972973 20.045454545454586 L 74.324324324324 20.045454545454586 L 75.675675675676 20.045454545454586 L 77.027027027027 20.045454545454586 L 78.378378378378 20.045454545454586 L 79.72972972973 20.045454545454586 L 81.081081081081 20.045454545454586 L 82.432432432432 20.045454545454586 L 83.783783783784 20.045454545454586 L 85.135135135135 20.045454545454586 L 86.486486486486 20.045454545454586 L 87.837837837838 20.045454545454586 L 89.189189189189 20.045454545454586 L 90.540540540541 20.045454545454586 L 91.891891891892 20.045454545454586 L 93.243243243243 20.045454545454586 L 94.594594594595 20.045454545454586 L 95.945945945946 20.045454545454586 L 97.297297297297 20.045454545454586 L 98.648648648649 20.045454545454586 L 100 20.045454545454586" class="highcharts-graph" data-z-index="1" stroke="#B3B6B9" stroke-width="1.5px" stroke-dasharray="1.5,1.5" stroke-opacity="0.63"></path><path fill="none" d="M -10 20.045454545454586 L 0 20.045454545454586 L 1.3513513513514 20.045454545454586 L 2.7027027027027 20.045454545454586 L 4.0540540540541 20.045454545454586 L 5.4054054054054 20.045454545454586 L 6.7567567567568 20.045454545454586 L 8.1081081081081 20.045454545454586 L 9.4594594594595 20.045454545454586 L 10.810810810811 20.045454545454586 L 12.162162162162 20.045454545454586 L 13.513513513514 20.045454545454586 L 14.864864864865 20.045454545454586 L 16.216216216216 20.045454545454586 L 17.567567567568 20.045454545454586 L 18.918918918919 20.045454545454586 L 20.27027027027 20.045454545454586 L 21.621621621622 20.045454545454586 L 22.972972972973 20.045454545454586 L 24.324324324324 20.045454545454586 L 25.675675675676 20.045454545454586 L 27.027027027027 20.045454545454586 L 28.378378378378 20.045454545454586 L 29.72972972973 20.045454545454586 L 31.081081081081 20.045454545454586 L 32.432432432432 20.045454545454586 L 33.783783783784 20.045454545454586 L 35.135135135135 20.045454545454586 L 36.486486486486 20.045454545454586 L 37.837837837838 20.045454545454586 L 39.189189189189 20.045454545454586 L 40.540540540541 20.045454545454586 L 41.891891891892 20.045454545454586 L 43.243243243243 20.045454545454586 L 44.594594594595 20.045454545454586 L 45.945945945946 20.045454545454586 L 47.297297297297 20.045454545454586 L 48.648648648649 20.045454545454586 L 50 20.045454545454586 L 51.351351351351 20.045454545454586 L 52.702702702703 20.045454545454586 L 54.054054054054 20.045454545454586 L 55.405405405405 20.045454545454586 L 56.756756756757 20.045454545454586 L 58.108108108108 20.045454545454586 L 59.459459459459 20.045454545454586 L 60.810810810811 20.045454545454586 L 62.162162162162 20.045454545454586 L 63.513513513514 20.045454545454586 L 64.864864864865 20.045454545454586 L 66.216216216216 20.045454545454586 L 67.567567567568 20.045454545454586 L 68.918918918919 20.045454545454586 L 70.27027027027 20.045454545454586 L 71.621621621622 20.045454545454586 L 72.972972972973 20.045454545454586 L 74.324324324324 20.045454545454586 L 75.675675675676 20.045454545454586 L 77.027027027027 20.045454545454586 L 78.378378378378 20.045454545454586 L 79.72972972973 20.045454545454586 L 81.081081081081 20.045454545454586 L 82.432432432432 20.045454545454586 L 83.783783783784 20.045454545454586 L 85.135135135135 20.045454545454586 L 86.486486486486 20.045454545454586 L 87.837837837838 20.045454545454586 L 89.189189189189 20.045454545454586 L 90.540540540541 20.045454545454586 L 91.891891891892 20.045454545454586 L 93.243243243243 20.045454545454586 L 94.594594594595 20.045454545454586 L 95.945945945946 20.045454545454586 L 97.297297297297 20.045454545454586 L 98.648648648649 20.045454545454586 L 100 20.045454545454586 L 110 20.045454545454586" stroke-linejoin="round" stroke="#C0C0C0" stroke-width="21.5px" visibility="visible" data-z-index="2" class="highcharts-tracker-line" stroke-opacity="0"></path></g><g data-z-index="0.1" class="highcharts-markers highcharts-series-1 highcharts-line-series highcharts-color-1 highcharts-tracker" transform="translate(0,2) scale(1 1)"></g></g><text x="50" text-anchor="middle" class="highcharts-title" data-z-index="4" style="color: rgb(51, 51, 51); font-size: 16px;" y="22" fill="#333333"></text><text x="50" text-anchor="middle" class="highcharts-subtitle" data-z-index="4" style="color: rgb(102, 102, 102);" y="24" fill="#666666"></text></svg>